{"glyphs":{"0":{"ha":1089,"x_min":71,"x_max":1039,"o":"m 581 1287 q 823 1202 711 1287 q 982 941 955 1012 q 1036 761 1010 898 l 1039 713 q 1023 616 1039 669 l 1023 604 q 1039 581 1023 581 l 1036 509 l 1036 423 q 982 201 1036 363 q 929 148 968 168 q 716 24 898 115 q 567 -30 639 -30 l 564 -30 q 368 1 368 -14 q 239 103 308 23 l 239 110 q 172 214 208 134 q 153 255 163 224 q 71 661 99 312 l 71 670 q 96 850 84 850 q 153 1062 99 922 q 198 1135 176 1086 q 581 1287 332 1287 m 197 713 q 206 654 198 667 l 201 625 l 201 613 l 241 400 q 350 208 283 277 q 510 138 453 138 q 728 195 595 138 q 897 369 897 294 q 947 623 926 467 l 947 718 q 872 960 947 857 q 761 1076 872 977 q 631 1166 688 1166 l 549 1185 l 533 1185 q 368 1095 427 1185 q 296 1012 327 1063 q 217 907 277 1012 q 197 713 197 841 z "},"1":{"ha":772,"x_min":33,"x_max":792,"o":"m 324 1427 q 431 1396 431 1417 q 445 1377 431 1377 l 450 1371 q 452 1358 444 1358 q 460 1336 460 1358 l 476 819 q 457 500 457 734 l 457 491 q 464 304 457 351 q 450 279 450 298 q 460 254 452 254 l 464 254 l 467 269 l 469 269 q 488 180 480 269 l 486 178 l 476 178 l 498 155 q 780 153 780 168 l 780 151 q 751 137 780 145 l 749 134 l 749 132 q 783 119 757 125 q 792 99 792 109 q 746 -5 772 -5 l 711 -8 l 612 1 l 552 -1 q 47 11 47 -8 q 33 39 33 28 l 33 42 l 52 106 l 45 118 l 45 119 q 83 156 45 149 l 104 163 l 283 168 q 308 197 305 168 l 308 216 q 298 475 308 370 q 334 1032 315 1032 l 336 1057 q 309 1218 327 1218 q 198 1108 225 1165 l 186 1104 q 49 1180 80 1142 q 42 1206 43 1180 l 46 1210 l 58 1208 l 72 1208 q 233 1339 109 1208 q 293 1417 274 1377 q 324 1427 313 1427 z "},"2":{"ha":962,"x_min":37,"x_max":926,"o":"m 568 1302 q 761 1256 628 1302 q 831 1208 831 1221 q 895 1109 895 1145 l 926 998 q 844 793 903 921 q 610 637 772 731 q 445 515 481 518 l 366 445 q 191 290 193 297 q 163 198 178 260 l 163 193 q 255 172 163 179 l 278 164 l 278 170 l 281 170 q 433 141 315 170 l 537 134 l 628 144 l 675 144 q 810 110 799 134 l 867 94 l 879 84 l 879 79 l 884 62 l 886 60 q 875 -23 883 -23 l 654 -18 l 609 -18 q 480 -26 555 -18 q 84 8 194 8 q 50 41 50 16 q 37 126 37 77 l 37 183 q 75 391 37 346 l 122 420 q 134 454 134 441 q 262 552 255 552 q 401 647 315 572 l 410 648 l 423 661 l 559 746 q 724 879 669 823 q 781 1012 766 928 q 720 1122 781 1085 q 549 1142 704 1130 q 521 1147 549 1146 l 400 1072 q 385 1021 385 1040 l 385 1009 l 388 1008 q 326 983 388 993 l 248 971 l 248 970 l 236 971 l 221 971 l 174 967 l 170 974 q 227 1135 193 1103 q 378 1237 336 1234 q 525 1297 407 1265 l 568 1302 z "},"3":{"ha":886,"x_min":37,"x_max":856,"o":"m 43 1309 q 401 1278 168 1295 q 680 1240 433 1267 q 777 1188 777 1218 q 713 1097 768 1161 q 628 982 713 1090 q 505 844 628 966 l 505 837 l 506 837 q 628 859 528 837 q 787 780 662 859 q 856 632 822 743 l 856 612 q 812 302 856 361 q 616 87 774 198 q 331 -1 524 42 q 255 -11 305 -11 l 240 -11 l 231 -14 q 84 27 145 -14 l 84 33 q 114 141 92 38 l 118 141 l 118 142 l 159 141 l 178 141 l 433 194 l 594 298 q 694 416 688 378 q 732 613 732 475 q 727 632 730 632 l 620 713 l 604 716 q 258 621 461 716 l 239 609 l 231 612 l 231 628 q 212 659 231 639 l 212 661 q 255 764 212 670 q 288 827 260 798 l 366 944 q 449 1058 408 1038 q 464 1096 464 1080 l 464 1100 q 429 1116 446 1116 l 79 1122 q 56 1154 60 1122 l 56 1162 l 60 1169 l 60 1179 q 37 1305 50 1203 l 37 1306 l 43 1309 z "},"4":{"ha":910,"x_min":3,"x_max":826,"o":"m 262 1343 l 263 1344 q 366 1312 366 1335 q 300 774 351 1227 q 269 631 289 677 q 209 469 221 564 q 361 448 221 460 q 430 433 407 433 l 453 433 l 548 441 l 591 441 l 591 442 q 572 882 582 529 q 556 929 563 924 q 617 948 556 941 q 633 955 617 954 q 665 936 659 955 l 655 907 q 689 556 689 852 q 703 452 689 452 l 709 452 q 807 464 783 452 l 807 467 l 819 457 l 817 441 l 817 426 l 826 412 l 823 393 q 782 325 823 338 q 741 302 741 312 l 708 302 q 703 296 703 302 q 718 53 718 175 q 727 -33 727 16 l 743 -39 l 743 -42 q 624 -94 743 -58 q 585 -81 608 -81 l 579 -77 q 601 127 601 56 q 576 319 601 319 l 496 321 l 338 321 l 281 317 q 9 343 9 320 q 3 347 3 343 q 64 431 64 403 q 92 568 92 496 q 167 960 144 709 q 205 1223 167 990 q 224 1314 205 1255 l 225 1314 q 247 1302 237 1302 l 256 1302 l 263 1309 l 263 1318 l 262 1343 z "},"5":{"ha":834,"x_min":41,"x_max":814,"o":"m 483 1188 q 774 1175 774 1185 q 753 1158 772 1168 l 753 1149 l 761 1130 l 753 1101 l 753 1099 l 755 1096 l 749 1089 l 749 1086 l 724 1105 l 718 1105 q 654 1080 718 1080 l 606 1086 q 305 1058 357 1067 q 283 821 289 1040 l 283 826 l 347 859 l 433 873 q 575 811 533 873 q 694 723 652 761 l 718 697 q 770 608 747 655 q 784 533 783 608 l 784 463 q 781 326 814 388 l 779 324 l 773 324 l 764 288 l 681 155 q 439 -1 541 28 q 172 -22 245 -22 q 43 -9 153 -15 l 41 -8 l 41 -5 l 65 85 q 117 133 65 133 l 126 134 q 164 114 159 114 l 172 114 q 237 119 194 114 q 286 123 279 123 q 503 202 347 106 q 643 343 614 288 q 654 472 684 400 q 597 652 654 604 q 499 713 579 682 q 411 741 458 741 l 404 741 q 183 684 338 741 l 151 678 l 144 685 l 144 693 q 160 808 151 693 q 198 1070 183 846 q 214 1150 202 1150 l 217 1153 l 217 1156 l 214 1175 l 217 1175 q 255 1168 228 1168 q 477 1188 292 1168 l 483 1188 z "},"6":{"ha":772,"x_min":33,"x_max":738,"o":"m 595 1221 q 738 1202 716 1221 q 723 1181 723 1190 l 723 1179 l 730 1138 l 730 1135 q 707 1078 730 1078 l 678 1086 l 671 1086 l 586 1077 l 557 1078 q 426 977 533 1077 l 415 960 q 355 898 377 940 q 292 796 335 879 q 277 765 285 796 q 217 692 232 732 q 156 597 206 684 q 118 536 130 564 l 111 528 l 111 526 l 121 526 q 153 564 127 526 q 245 623 160 564 q 400 685 359 685 q 581 632 471 685 q 690 507 678 541 q 732 400 718 487 q 666 182 700 241 l 571 30 q 498 -18 529 -7 q 298 -4 328 -9 q 206 34 254 20 l 125 91 q 46 315 46 194 q 33 445 37 321 q 77 602 33 486 q 122 730 77 633 q 282 1008 145 849 q 479 1188 458 1188 q 595 1221 552 1221 m 146 412 q 222 144 146 312 q 365 80 324 80 q 576 233 498 80 l 583 281 q 530 499 583 449 q 355 545 457 545 q 227 473 328 537 q 149 419 176 457 l 146 412 z "},"7":{"ha":772,"x_min":37,"x_max":757,"o":"m 94 1363 q 639 1329 410 1337 q 715 1303 685 1310 l 727 1303 l 730 1306 q 742 1299 742 1303 l 742 1291 q 730 1120 757 1274 l 730 1119 l 680 958 q 464 625 557 788 q 326 407 363 490 l 324 382 l 334 221 l 316 19 q 245 -4 316 8 l 227 3 l 208 3 l 176 19 q 160 56 160 19 l 160 119 l 163 262 l 160 331 q 220 483 179 418 q 267 570 267 532 q 283 597 274 570 l 373 731 q 499 978 448 850 l 509 990 l 509 997 l 506 1000 l 568 1164 l 568 1166 q 454 1192 538 1166 q 326 1204 392 1192 l 286 1190 q 126 1206 167 1206 l 113 1206 q 88 1202 88 1206 q 41 1278 56 1202 q 37 1291 38 1278 q 68 1329 47 1329 l 91 1328 l 91 1329 l 72 1351 l 72 1354 q 94 1363 72 1358 z "},"8":{"ha":868,"x_min":45,"x_max":819,"o":"m 463 1332 l 477 1332 q 547 1302 500 1332 q 627 1236 627 1271 q 689 1040 689 1108 q 674 941 681 1017 q 594 793 644 859 q 769 594 750 663 q 819 505 769 581 l 814 381 l 812 373 l 812 366 q 779 255 812 305 l 762 231 l 769 210 q 731 170 769 193 l 731 174 l 724 153 l 724 151 q 636 72 681 87 q 560 24 604 45 q 425 -26 526 -4 q 401 -30 425 -30 q 247 15 355 -30 q 79 240 179 15 q 62 307 71 240 l 62 340 q 100 530 62 458 q 149 628 121 628 q 199 708 149 650 l 221 732 l 221 739 q 100 860 202 739 q 45 1055 45 1023 l 57 1090 l 60 1109 l 60 1114 q 133 1211 79 1179 q 212 1287 153 1264 q 463 1332 324 1332 m 199 1009 q 319 800 202 939 l 342 784 l 345 784 l 368 791 l 385 791 q 528 834 445 791 q 594 926 556 852 q 617 971 606 952 l 613 1031 l 567 1154 q 509 1183 556 1173 q 368 1240 490 1206 q 216 1142 327 1240 q 199 1009 199 1105 m 216 543 l 218 540 l 218 537 l 231 540 l 235 534 q 180 391 180 420 l 180 385 q 250 170 180 191 l 250 172 l 252 172 l 351 117 q 499 79 467 79 l 506 79 q 566 122 518 79 l 566 113 l 636 212 l 636 214 q 680 302 680 278 q 662 438 680 374 l 662 457 q 646 562 662 484 l 646 563 l 643 578 q 617 632 636 582 q 461 711 562 711 q 269 625 269 677 q 216 543 269 567 z "},"9":{"ha":864,"x_min":23,"x_max":829,"o":"m 401 1232 q 640 1203 640 1227 q 716 1134 716 1156 q 791 963 768 1069 l 829 781 l 829 754 q 800 557 811 557 q 766 439 793 521 q 741 361 766 389 l 738 346 q 586 171 738 293 q 431 57 532 136 q 408 22 420 52 q 288 -69 300 -69 q 221 -85 252 -69 q 161 41 198 -85 l 178 61 l 165 76 l 165 79 l 187 107 l 213 107 q 256 136 245 136 q 418 237 298 140 q 564 349 547 330 q 621 446 585 374 q 671 574 671 556 l 671 582 l 665 589 l 662 589 q 541 487 650 589 q 380 468 500 468 l 327 487 q 203 538 233 503 q 57 769 57 708 q 23 892 23 840 l 23 909 q 90 1057 23 963 q 142 1152 90 1070 q 377 1229 243 1229 l 401 1232 m 149 829 l 149 807 q 174 791 152 799 q 216 697 193 712 q 406 608 368 608 l 411 608 q 564 690 519 639 l 621 781 q 684 876 684 830 l 684 880 q 591 1067 684 1006 q 465 1127 499 1127 l 437 1133 q 327 1104 414 1120 q 184 1019 184 1051 l 149 829 z "},"!":{"ha":426,"x_min":103,"x_max":362,"o":"m 252 1356 l 264 1356 q 353 1314 315 1356 l 350 1173 l 350 1157 l 362 906 q 338 704 362 784 l 338 673 l 343 650 l 334 613 l 334 587 q 345 530 334 552 q 332 467 339 486 q 335 461 326 449 l 345 452 q 189 407 345 423 q 172 416 179 407 q 198 433 172 430 l 182 452 l 179 467 q 172 518 179 475 q 151 979 163 518 q 144 1172 144 1051 l 144 1226 q 172 1278 144 1260 l 151 1309 q 172 1324 151 1320 l 174 1325 l 174 1333 l 172 1335 q 252 1356 172 1356 m 250 222 q 353 122 288 209 l 353 118 q 278 -4 353 92 l 278 -8 l 248 -14 q 126 39 199 -14 q 103 96 103 71 q 210 213 103 175 l 250 222 z "},"\"":{"ha":617,"x_min":58,"x_max":578,"o":"m 248 1354 l 251 1356 q 312 1325 282 1350 q 327 1275 327 1302 q 286 1190 308 1199 q 182 1135 240 1135 l 167 1135 l 167 1133 l 176 1101 q 151 926 176 1008 l 151 907 l 153 905 l 151 898 l 146 898 q 91 952 102 920 l 58 1139 q 81 1246 68 1208 q 156 1341 81 1295 q 248 1354 203 1354 m 499 1244 l 502 1246 l 502 1244 l 563 1215 q 578 1165 578 1192 q 537 1080 559 1089 q 433 1025 491 1025 l 418 1025 l 418 1023 l 427 991 q 401 817 427 898 l 401 798 l 404 795 l 401 788 l 397 788 q 342 842 353 810 l 309 1029 q 332 1137 319 1099 q 407 1232 332 1185 q 499 1244 454 1244 z "},"#":{"ha":944,"x_min":152,"x_max":903,"o":"m 669 933 l 674 928 l 674 864 q 684 766 674 804 l 814 769 q 878 747 878 769 l 878 743 q 864 712 865 743 q 785 674 849 674 q 688 659 688 667 l 688 658 q 703 494 688 612 l 705 494 q 886 469 886 494 q 871 450 871 456 q 715 392 903 399 l 709 373 l 709 351 q 719 269 709 311 l 712 225 l 719 202 q 677 184 703 184 q 620 206 620 193 q 595 382 609 382 q 456 363 456 370 l 458 178 q 439 152 458 152 q 361 127 393 127 l 358 130 l 358 133 q 349 304 370 161 q 330 349 349 349 q 180 392 180 349 l 180 431 l 175 458 l 175 463 q 320 472 195 468 q 339 507 336 472 l 339 646 l 206 639 l 206 636 q 175 655 175 636 l 152 712 l 152 719 q 269 738 152 738 l 301 738 q 336 754 336 741 l 336 772 l 332 836 q 365 909 336 876 q 399 911 387 911 l 415 914 q 449 769 427 914 l 456 762 l 515 762 q 570 769 545 762 l 570 878 q 586 899 570 899 l 605 899 q 665 933 652 899 l 669 933 m 444 541 l 444 477 l 446 477 q 589 496 589 477 l 591 507 q 576 652 586 652 l 574 652 l 526 655 q 449 643 449 655 q 444 541 444 624 z "},"$":{"ha":1009,"x_min":83,"x_max":968,"o":"m 696 1548 l 696 1544 q 674 1461 686 1518 l 674 1356 l 665 1325 q 757 1246 708 1274 l 788 1211 l 793 1211 q 838 1326 807 1329 q 876 1322 869 1322 l 898 1322 q 921 1328 921 1322 q 937 1297 933 1328 q 936 1149 937 1257 q 921 1111 933 1126 l 921 1097 l 905 936 l 902 933 l 895 933 l 848 939 l 842 939 l 842 936 q 785 1082 821 936 q 722 1133 785 1133 l 684 1135 l 677 1135 q 658 1088 658 1135 q 662 863 662 894 q 652 750 662 833 q 724 720 652 720 q 864 635 764 720 q 968 389 968 547 l 968 288 q 928 142 968 212 q 798 28 838 28 l 753 15 q 655 31 711 31 q 608 12 618 31 l 608 -14 q 639 -73 621 -60 l 629 -85 q 472 -61 522 -61 l 471 -58 l 471 -57 q 491 -19 471 -46 q 496 19 496 -8 l 496 31 q 437 79 496 61 q 199 217 213 217 l 197 217 q 148 151 165 151 l 95 151 l 83 152 l 83 170 q 117 370 83 240 q 152 477 152 412 q 221 522 184 515 l 224 522 q 250 503 239 503 l 252 503 l 252 452 l 252 418 q 420 236 252 368 q 496 193 479 193 l 496 195 l 499 228 l 499 354 q 509 598 499 510 q 472 663 490 663 q 411 693 416 680 q 205 962 205 857 q 292 1180 205 1084 q 396 1271 351 1271 q 510 1339 510 1324 q 529 1491 518 1470 l 534 1506 l 528 1518 l 528 1522 q 667 1544 528 1533 q 696 1548 667 1548 m 328 1040 l 328 1031 l 330 1028 l 316 1000 l 316 990 q 387 888 316 947 q 490 803 471 803 l 496 803 q 525 911 525 803 q 534 1043 529 1020 q 513 1078 519 1043 q 500 1100 500 1089 l 503 1120 q 463 1138 496 1138 l 430 1138 q 335 1081 335 1101 q 328 1040 328 1061 m 632 594 q 617 138 627 594 q 665 119 617 119 l 667 110 l 670 110 q 722 133 678 110 q 793 170 793 148 q 857 245 857 231 q 864 321 864 286 l 864 328 q 819 509 864 396 q 781 541 819 526 l 766 556 l 747 556 q 642 594 724 556 l 632 594 z "},"%":{"ha":958,"x_min":126,"x_max":929,"o":"m 856 1431 q 901 1409 901 1423 q 929 1393 929 1400 q 906 1355 906 1362 l 917 1337 l 917 1336 q 897 1293 917 1325 q 604 719 837 1138 q 488 491 515 528 q 308 121 378 302 l 271 61 l 293 30 q 267 8 293 22 l 262 8 q 172 65 232 8 q 134 102 134 81 l 138 121 l 233 343 q 274 416 254 416 l 264 429 l 264 431 l 338 600 q 362 652 362 629 q 419 735 407 690 l 416 757 q 452 799 427 779 l 659 1217 q 796 1444 735 1444 q 856 1431 831 1444 m 720 308 q 817 241 792 283 q 829 165 829 190 q 798 88 812 102 q 739 54 768 58 l 724 57 l 718 57 l 718 54 l 724 45 l 724 42 l 718 42 q 616 107 659 42 q 598 175 598 137 q 629 269 598 235 q 720 308 688 308 m 247 1333 q 345 1267 320 1309 q 357 1191 357 1215 q 326 1114 340 1127 q 266 1080 294 1084 l 252 1082 l 244 1082 l 244 1080 l 252 1070 l 252 1067 l 244 1067 q 142 1133 187 1067 q 126 1200 126 1162 q 157 1294 126 1260 q 247 1333 214 1333 z "},"&":{"ha":1111,"x_min":92,"x_max":1063,"o":"m 396 1397 q 481 1378 419 1389 q 586 1295 530 1358 q 647 1191 647 1206 q 675 1072 675 1139 q 517 818 700 1005 q 406 707 425 765 l 406 697 q 510 571 406 669 q 600 517 545 571 q 685 457 635 487 l 685 460 q 694 476 685 469 l 732 454 l 742 454 q 788 600 762 486 l 804 745 l 804 751 q 770 780 804 776 l 766 780 l 742 773 l 738 773 l 735 787 q 764 882 750 882 q 795 922 785 922 l 818 925 l 830 925 q 918 872 863 925 l 1063 758 l 1063 757 l 1054 723 l 1054 694 q 1020 662 1054 682 l 1016 662 q 935 685 955 685 l 922 685 q 902 605 910 685 l 827 362 q 918 293 831 353 l 1020 208 q 1055 159 1055 174 q 1031 73 1055 140 q 963 -5 1008 7 l 951 -15 l 949 -15 q 935 54 943 -15 q 880 99 928 66 l 880 102 q 883 125 880 107 l 875 125 l 868 121 l 864 121 l 830 163 q 764 216 793 216 q 709 127 745 218 q 656 45 661 65 q 448 -31 602 -31 l 422 -34 q 244 39 298 -18 q 178 130 190 95 q 127 222 172 149 q 92 372 92 334 l 111 567 q 149 675 136 675 q 199 716 199 703 q 142 811 184 746 q 106 996 106 952 q 130 1194 106 1095 q 241 1366 130 1305 q 396 1397 307 1397 m 187 1086 l 201 1015 l 201 1004 q 218 979 208 1004 q 225 970 225 979 l 220 956 l 220 951 q 266 890 220 930 l 332 815 l 339 815 q 465 887 345 815 l 560 1016 l 560 1131 q 391 1279 418 1279 q 256 1213 293 1256 q 199 1137 217 1192 q 187 1086 187 1100 m 199 557 l 199 533 l 194 467 q 222 358 209 437 q 263 244 243 312 l 377 127 q 429 103 412 103 l 438 103 q 595 170 505 103 l 688 286 l 688 293 q 463 435 643 346 q 301 593 376 490 q 275 605 282 605 l 263 605 q 199 557 199 591 z "},"'":{"ha":345,"x_min":62,"x_max":316,"o":"m 155 1215 q 271 1156 216 1215 q 307 1029 307 1111 q 316 1010 313 1029 l 316 1009 q 300 943 316 996 l 271 859 l 208 779 q 171 823 171 803 q 195 943 179 892 l 195 949 q 167 985 195 975 q 65 1092 65 1039 l 62 1104 q 155 1215 75 1215 z "},"(":{"ha":480,"x_min":71,"x_max":439,"o":"m 355 1614 q 387 1569 382 1614 q 430 1481 411 1506 l 430 1478 l 324 1312 l 250 1127 q 203 722 203 861 l 199 709 l 197 708 l 197 705 l 201 699 l 201 689 l 193 680 q 209 610 203 610 q 209 595 212 610 l 206 595 l 217 458 q 282 275 256 312 q 334 145 297 250 q 439 -35 396 28 l 439 -42 l 429 -45 l 399 -45 q 355 -64 382 -45 l 343 -64 q 293 -42 327 -42 q 233 81 275 -34 q 119 408 186 170 l 91 610 q 83 699 88 610 q 71 810 71 736 l 71 836 q 90 895 71 856 l 90 898 q 123 1063 90 960 q 197 1401 172 1401 l 263 1516 q 355 1614 309 1592 z "},")":{"ha":621,"x_min":66,"x_max":566,"o":"m 347 1626 l 351 1626 q 433 1487 393 1588 q 513 1290 488 1389 q 551 1087 537 1203 q 557 976 564 971 q 566 860 551 981 l 566 857 l 534 514 q 521 476 528 476 l 515 495 q 380 186 449 305 q 240 -35 301 52 l 240 -37 q 205 -80 240 -49 q 199 -109 199 -85 l 193 -115 l 189 -115 l 180 -106 l 179 -103 l 174 -103 q 157 -111 165 -111 q 100 -49 129 -73 q 75 -20 95 -20 l 66 -18 l 66 -14 l 84 -8 l 132 15 l 129 18 l 129 20 q 214 107 129 26 q 290 248 247 141 q 368 509 336 377 q 391 611 399 642 q 392 635 382 581 q 408 705 408 673 q 430 914 427 861 l 374 1230 q 255 1511 262 1484 l 245 1530 l 243 1531 l 243 1534 q 302 1603 243 1558 q 347 1626 320 1603 m 250 -11 l 252 -14 l 252 -16 l 245 -20 l 245 -16 l 250 -11 z "},"*":{"ha":1085,"x_min":33,"x_max":1051,"o":"m 510 1202 l 521 1202 l 521 1196 q 609 993 525 1175 q 644 892 624 967 l 647 890 l 709 890 q 1051 869 1051 883 l 1051 864 q 1013 804 1034 844 q 899 712 981 768 q 795 614 795 620 l 795 610 q 891 406 830 515 q 954 294 891 385 q 967 273 967 286 q 944 262 951 262 q 728 354 854 313 q 540 396 582 396 q 434 313 522 396 l 270 190 q 245 183 258 183 l 244 183 q 227 216 237 184 q 254 292 227 239 q 282 525 270 334 l 282 528 q 241 570 282 549 q 68 774 241 595 l 64 788 l 42 800 l 33 803 l 33 807 q 56 819 33 812 l 56 823 l 49 836 q 130 867 49 853 l 140 867 l 339 852 q 445 1108 370 910 q 510 1202 486 1181 m 979 831 l 985 831 l 979 831 z "},"+":{"ha":811,"x_min":168,"x_max":731,"o":"m 507 298 q 359 297 506 288 l 358 294 q 350 467 339 297 q 262 458 289 458 l 262 463 q 247 463 262 475 l 233 456 q 168 589 168 456 q 316 640 168 624 q 335 646 316 644 l 340 644 q 342 770 338 734 l 347 769 l 349 784 l 343 799 q 483 845 351 863 q 517 692 518 841 q 518 673 519 692 l 513 656 l 699 684 l 708 684 q 728 536 719 684 l 731 536 q 538 503 731 515 q 506 496 522 499 l 509 308 l 507 298 z "},",":{"ha":385,"x_min":71,"x_max":313,"o":"m 145 311 q 260 266 179 311 l 260 263 l 298 206 q 311 194 305 206 l 304 171 q 313 142 313 153 q 278 45 313 68 q 289 39 278 39 l 289 35 q 294 9 289 31 q 247 -76 281 -33 q 174 -141 194 -141 l 159 -126 q 140 -133 149 -133 l 137 -126 q 159 -72 155 -88 l 159 -66 q 178 42 178 14 l 178 47 q 123 58 178 52 q 71 168 71 100 l 71 184 q 118 292 71 273 l 114 296 l 114 298 q 145 311 123 311 z "},"-":{"ha":677,"x_min":66,"x_max":629,"o":"m 605 666 q 627 518 616 666 l 629 518 q 437 486 629 498 q 159 441 221 441 l 159 445 q 145 445 159 461 l 130 438 q 66 571 66 438 q 213 623 66 606 q 232 628 213 627 l 270 621 l 288 621 l 595 666 l 605 666 z "},".":{"ha":385,"x_min":104,"x_max":292,"o":"m 203 231 q 285 201 260 221 q 292 167 292 184 l 292 141 q 203 28 292 64 l 180 19 q 104 91 141 19 l 104 100 q 130 201 104 182 q 203 231 183 231 z "},"/":{"ha":856,"x_min":37,"x_max":831,"o":"m 758 1413 q 803 1392 803 1407 q 831 1375 831 1383 q 808 1337 808 1344 l 819 1321 l 819 1318 q 799 1276 819 1308 q 506 701 739 1122 q 391 473 418 511 q 210 103 281 285 l 174 43 l 195 14 q 170 -8 195 5 l 164 -8 q 75 49 134 -8 q 37 84 37 65 l 41 103 q 136 327 91 244 q 176 400 156 400 l 186 400 l 167 412 l 167 414 l 240 583 q 264 635 264 613 q 321 718 309 673 l 319 739 q 354 783 330 761 l 562 1200 q 699 1428 637 1428 q 758 1413 734 1428 z "},":":{"ha":385,"x_min":71,"x_max":305,"o":"m 225 903 q 305 815 294 903 q 248 685 305 769 q 179 637 202 637 q 71 726 117 637 l 71 735 q 111 865 92 837 q 225 903 179 903 m 178 350 l 217 350 q 296 281 273 350 l 296 274 q 267 165 285 182 q 201 110 228 110 q 127 153 153 121 q 103 214 103 197 l 122 296 q 178 350 122 335 z "},";":{"ha":385,"x_min":66,"x_max":332,"o":"m 197 949 q 294 883 270 925 q 307 807 307 830 q 275 728 290 742 q 216 696 244 700 l 202 697 l 194 697 l 194 696 l 202 686 l 202 684 l 194 684 q 92 747 137 684 q 76 817 76 777 q 107 909 76 875 q 197 949 164 949 m 218 273 q 275 235 260 273 q 304 209 294 235 l 308 190 l 316 190 q 332 88 332 190 q 279 -102 304 -102 q 171 -209 218 -190 l 161 -202 q 197 -45 197 -109 l 197 -38 q 183 50 197 50 q 66 155 66 64 q 218 273 66 252 z "},"<":{"ha":532,"x_min":83,"x_max":475,"o":"m 395 751 q 437 726 426 726 l 437 716 q 430 711 430 716 l 437 704 l 442 704 l 452 707 q 463 694 457 707 q 288 510 463 662 q 263 481 263 496 l 263 476 q 311 407 263 454 q 475 213 384 315 l 475 208 q 373 175 458 208 q 247 293 340 175 q 88 486 88 463 l 83 491 l 83 495 l 85 498 l 85 500 q 123 486 113 486 l 157 543 l 157 548 l 102 538 l 100 540 l 100 543 q 301 700 170 608 q 395 751 358 747 m 366 633 l 366 628 q 408 671 389 628 l 408 681 l 404 681 q 366 633 382 681 m 320 643 l 320 635 l 328 635 q 354 647 354 639 l 354 650 l 349 654 l 339 654 q 320 643 327 654 m 202 606 l 205 606 q 235 635 235 614 q 202 606 216 635 m 266 567 l 269 564 l 271 564 q 313 602 289 568 l 313 609 l 304 609 q 266 567 266 581 m 339 282 q 366 244 351 254 l 370 248 l 370 260 q 345 286 361 277 l 339 282 m 354 217 l 354 208 q 373 194 359 194 l 376 194 l 376 197 q 358 217 376 210 l 354 217 z "},"=":{"ha":811,"x_min":141,"x_max":735,"o":"m 709 412 q 707 263 720 410 l 709 263 q 514 260 707 243 q 233 259 296 250 l 233 263 l 205 260 q 163 403 141 271 q 316 431 168 437 q 335 433 316 434 l 372 419 l 388 416 l 700 414 l 709 412 m 724 646 q 707 498 735 643 l 709 496 q 515 513 704 477 q 235 540 296 524 l 236 544 l 222 548 l 208 544 q 179 689 145 560 q 334 703 187 724 q 354 703 335 705 l 388 686 l 404 682 l 715 647 l 724 646 z "},">":{"ha":540,"x_min":79,"x_max":473,"o":"m 189 811 q 231 773 231 803 l 229 766 l 227 766 l 240 758 q 397 530 382 582 q 435 472 435 483 q 458 445 435 458 l 473 419 q 362 293 468 385 q 240 141 269 189 l 233 141 l 233 144 l 153 160 q 117 178 153 167 l 107 189 l 107 217 l 100 235 q 245 429 113 288 q 255 435 255 429 l 255 438 q 110 681 255 458 q 79 739 79 727 l 87 742 l 107 761 l 107 764 l 106 766 q 189 811 129 811 z "},"?":{"ha":772,"x_min":41,"x_max":762,"o":"m 438 1257 q 601 1207 477 1257 q 762 1001 762 1134 l 762 935 q 718 795 762 868 q 675 704 692 704 q 601 643 601 667 l 601 624 q 616 481 601 555 q 591 384 610 384 q 525 350 576 384 l 506 346 q 473 381 473 346 q 439 663 439 574 q 530 757 439 681 q 587 827 578 803 q 610 849 606 849 l 628 844 q 658 920 643 844 l 658 925 l 639 960 l 639 966 l 637 966 l 644 985 l 644 1010 q 613 1055 644 1029 q 568 1093 601 1093 q 429 1115 506 1115 l 410 1115 q 221 979 308 1115 l 148 884 l 148 880 q 75 869 109 830 q 41 928 41 909 l 62 998 q 144 1100 85 1050 q 335 1233 251 1188 q 438 1257 381 1257 m 552 248 q 654 208 583 247 l 648 182 l 647 179 l 647 175 l 658 144 q 617 8 692 57 q 457 122 498 4 l 452 151 q 552 248 452 191 z "},"@":{"ha":1473,"x_min":100,"x_max":1407,"o":"m 831 1397 q 944 1377 884 1377 q 1036 1350 951 1369 l 1115 1283 q 1236 1198 1160 1267 q 1274 1177 1274 1191 l 1268 1158 q 1324 1073 1268 1143 q 1388 897 1363 1006 q 1407 700 1400 897 l 1401 652 l 1407 628 q 1375 387 1390 471 l 1381 387 l 1381 384 q 1164 146 1381 361 l 1105 99 q 1036 38 1090 61 q 746 -50 798 -50 q 623 -65 712 -57 q 369 127 526 -7 q 167 372 222 210 q 100 617 100 567 l 100 669 q 167 1008 100 825 q 298 1188 240 1127 q 480 1302 419 1297 q 568 1345 506 1312 q 770 1386 617 1371 l 831 1397 m 248 789 q 258 770 254 789 q 241 551 248 574 l 241 538 q 258 484 250 538 l 347 320 l 488 168 q 659 127 571 142 q 784 111 708 111 l 802 111 q 1008 184 890 130 q 1100 248 1042 193 l 1112 266 l 1112 275 q 1008 296 1008 282 q 948 425 986 296 l 948 441 l 951 475 q 941 494 947 494 q 774 399 909 481 q 718 384 738 384 l 716 384 q 552 450 604 384 q 498 532 507 488 q 457 655 457 629 q 511 864 457 758 q 559 935 541 894 q 803 1067 680 1067 q 970 979 860 1067 l 972 979 l 983 1006 l 989 1006 l 1002 1001 l 1005 1001 q 1039 1008 1025 1001 l 1055 991 q 1077 954 1077 991 q 1034 637 1077 770 q 1005 627 1005 632 q 1034 460 1020 627 q 1086 362 1034 411 l 1088 362 q 1179 419 1101 362 l 1185 419 l 1185 412 l 1188 412 q 1259 581 1236 491 l 1261 595 l 1242 845 l 1248 865 q 1188 1108 1210 1038 q 1134 1172 1150 1172 q 894 1263 1081 1210 q 856 1272 894 1268 l 793 1272 q 590 1232 665 1272 q 374 1048 426 1082 q 267 909 302 948 q 251 792 262 818 l 248 789 m 566 732 q 612 560 566 598 q 723 517 677 517 l 746 517 q 837 555 837 533 q 906 656 892 595 q 925 792 925 738 l 925 807 q 868 928 925 854 q 802 951 837 949 l 770 951 q 640 884 718 951 q 606 852 640 869 l 566 745 l 566 732 z "},"A":{"ha":1082,"x_min":7,"x_max":1119,"o":"m 585 1253 q 694 1211 694 1237 l 785 943 l 846 727 q 967 271 891 514 l 1002 193 l 1012 148 l 1006 126 q 1055 109 1028 113 l 1093 109 l 1096 110 q 1119 100 1115 106 l 1107 77 l 1109 46 q 1090 5 1109 27 l 1084 5 l 1067 1 l 1067 -4 q 1046 -14 1067 -9 l 1020 -5 l 1002 -5 l 884 -18 q 787 30 848 -18 l 802 46 l 802 53 l 784 94 q 853 115 784 115 l 856 118 l 856 125 q 779 317 856 210 l 776 317 q 319 277 582 301 l 277 277 q 225 127 267 267 l 225 126 q 247 118 235 118 l 285 118 q 396 66 350 118 l 396 64 q 349 14 396 49 q 62 -7 349 -7 q 15 4 15 -4 l 22 28 l 22 31 q 7 64 22 38 q 41 92 7 76 l 45 99 l 45 126 q 62 142 45 142 l 69 136 q 83 175 88 175 q 114 266 102 214 l 212 537 l 247 625 q 281 682 248 643 l 281 686 l 275 705 q 294 730 294 718 l 290 734 q 313 774 290 753 l 311 787 l 397 1040 q 456 1176 433 1104 q 484 1214 461 1177 q 585 1253 560 1251 m 313 406 l 319 401 q 707 441 564 441 l 783 441 l 789 448 l 789 452 q 637 877 665 787 q 595 1000 610 967 q 571 1034 582 1027 l 571 993 q 380 633 430 715 q 313 415 350 576 l 313 406 m 869 -5 l 869 -8 l 869 -5 z "},"B":{"ha":1015,"x_min":-24,"x_max":1000,"o":"m 95 1191 l 117 1184 q 560 1191 224 1191 l 650 1162 q 766 1127 734 1152 q 905 916 905 1004 q 867 761 899 871 q 743 650 803 696 q 779 621 743 632 q 838 590 796 606 q 911 498 861 566 q 991 336 979 430 l 994 315 q 981 296 993 296 l 981 293 q 1000 244 981 282 l 1000 229 q 972 153 1000 209 q 947 111 972 129 q 852 46 921 94 l 852 45 q 735 -1 825 16 q 251 -56 618 -56 l 251 -53 l 250 -43 q 90 -77 159 -43 q 61 27 61 -77 q 174 73 61 45 q 256 90 256 83 l 256 94 q 231 251 245 94 q 218 336 227 313 q 213 526 218 359 q 193 833 202 526 l 194 1024 q 140 1042 151 1042 l 126 1042 q 109 1032 113 1042 l 109 1029 l 111 1015 q 85 951 111 1008 l 85 948 l 54 947 q 19 958 49 952 q -3 1067 1 958 q -24 1141 -9 1105 q 38 1181 4 1181 q 95 1191 38 1185 m 317 1020 q 342 616 332 616 l 349 612 l 351 612 l 522 652 q 633 681 633 665 q 772 827 772 787 l 772 837 q 750 960 750 941 q 684 1051 750 1010 q 591 1058 667 1055 q 317 1020 317 1046 m 330 481 l 327 441 q 355 75 336 117 q 401 45 365 45 l 570 35 q 817 122 666 41 q 890 220 890 191 q 899 239 897 220 l 899 245 q 848 426 899 328 q 762 483 793 483 l 747 481 q 735 488 735 484 q 750 495 738 495 l 715 502 l 712 502 q 572 529 625 529 l 563 529 l 336 492 l 330 481 z "},"C":{"ha":1090,"x_min":22,"x_max":1066,"o":"m 547 1244 l 563 1244 q 766 1180 656 1244 q 841 1124 826 1124 l 850 1124 q 867 1146 867 1133 l 867 1149 l 857 1177 q 867 1222 857 1183 q 905 1227 876 1227 q 975 1191 916 1227 q 987 1177 987 1191 l 987 1001 q 968 859 987 879 l 966 852 l 971 845 l 971 842 q 888 814 971 814 q 864 804 872 804 l 857 804 q 814 911 857 836 q 753 1058 784 1034 q 585 1118 723 1095 l 529 1123 l 456 1115 q 437 1108 408 1097 l 437 1105 q 271 981 396 1063 q 193 876 220 943 l 148 665 q 190 406 148 484 q 363 114 266 199 q 604 45 492 45 l 632 45 q 755 85 688 45 q 854 190 774 123 q 918 273 918 240 l 918 279 l 917 330 q 940 351 917 338 q 949 363 940 358 l 955 363 l 1000 355 l 1032 355 q 1047 330 1047 355 q 1066 199 1066 239 q 1042 42 1066 104 l 1042 35 l 1044 22 l 1035 7 l 1035 4 q 1066 -5 1035 0 l 1066 -9 l 943 -69 l 937 -69 q 892 22 911 -35 l 890 23 l 888 23 q 803 -22 856 11 q 623 -85 656 -85 l 509 -50 l 487 -47 l 475 -47 l 452 -54 q 311 -15 407 -54 q 180 88 232 5 q 47 382 47 281 q 31 487 31 452 q 31 526 34 506 q 22 731 26 526 q 73 899 22 776 q 83 952 79 899 q 98 997 90 955 q 237 1115 151 1059 q 347 1181 277 1152 q 547 1244 490 1244 z "},"D":{"ha":1199,"x_min":33,"x_max":1165,"o":"m 1103 865 l 1103 833 l 1103 831 l 1123 807 q 1119 803 1120 804 q 1165 570 1165 643 l 1147 399 q 1114 288 1138 343 q 1054 184 1089 232 q 1048 180 1051 182 q 1042 175 1044 178 q 815 11 930 77 q 675 -57 764 -38 q 540 -85 574 -66 l 524 -88 q 296 -65 475 -79 q 191 -53 258 -53 q 159 -60 171 -53 q 106 -65 152 -60 l 102 -65 l 102 -66 q 87 -31 87 -64 l 92 104 l 90 106 l 90 109 q 103 118 92 118 l 178 111 l 184 111 q 210 115 201 111 l 293 95 l 302 102 l 302 111 l 296 137 q 302 248 302 167 q 283 353 302 353 l 282 361 q 312 991 289 690 q 324 1074 324 1051 l 324 1092 q 292 1130 324 1130 l 229 1130 q 225 1118 225 1130 l 217 1115 l 84 1120 l 37 1115 l 33 1122 l 33 1210 q 52 1291 33 1291 q 134 1312 76 1312 q 334 1336 221 1336 l 359 1336 l 369 1339 l 378 1336 l 396 1336 q 663 1283 507 1336 q 842 1179 818 1206 l 932 1115 q 954 1092 948 1103 l 954 1089 l 951 1089 l 989 1073 l 1043 989 q 1042 962 1042 975 l 1043 960 l 1073 926 l 1103 865 m 450 1096 l 457 987 l 444 716 l 453 444 q 410 95 453 209 l 410 83 q 567 52 410 68 q 804 125 665 52 q 929 267 917 225 q 982 479 954 311 l 982 495 q 880 909 982 677 q 749 1039 812 1015 q 500 1134 514 1134 q 450 1096 450 1112 z "},"E":{"ha":963,"x_min":1,"x_max":951,"o":"m 410 1303 q 840 1284 840 1298 q 827 1278 840 1279 l 827 1274 l 830 1274 q 925 1302 850 1293 l 935 1303 q 941 1278 941 1290 q 951 1090 941 1173 l 916 1017 q 872 1005 894 1005 q 812 1040 812 1005 l 812 1046 q 831 1074 814 1055 q 812 1107 812 1082 q 784 1141 812 1141 l 751 1142 l 751 1135 l 736 1133 l 505 1138 l 385 1138 q 267 1130 262 1138 q 283 768 271 1122 q 305 755 294 755 l 319 755 l 412 761 l 564 743 q 585 796 585 743 q 631 829 585 819 l 644 838 q 669 644 669 838 l 669 568 q 659 547 669 549 q 587 568 631 559 q 568 625 579 568 q 422 644 568 644 q 289 632 289 644 l 286 604 l 298 411 q 281 186 293 304 l 289 183 q 498 202 416 191 l 502 202 q 770 182 606 202 l 774 182 q 792 201 787 182 l 802 201 l 821 183 l 822 183 l 825 193 q 811 227 825 227 l 796 221 q 768 262 776 236 q 837 290 768 282 q 884 267 844 290 q 906 229 906 267 q 916 12 907 87 l 910 -7 l 901 -7 q 802 11 884 3 q 134 30 802 16 q 91 65 91 30 q 84 132 84 71 l 94 172 l 91 191 l 99 201 l 103 201 q 132 183 121 183 l 137 183 q 176 212 176 191 l 165 637 q 146 685 165 651 q 160 1046 152 685 q 167 1084 167 1057 l 172 1131 l 106 1141 l 58 1154 l 34 1152 q 4 1236 4 1152 l 1 1237 q 42 1297 5 1297 l 43 1297 l 410 1303 z "},"F":{"ha":848,"x_min":30,"x_max":993,"o":"m 260 1213 q 972 1196 972 1210 q 993 1044 993 1090 q 967 916 979 991 q 945 890 956 890 q 825 924 825 890 l 825 928 l 849 1023 q 822 1096 841 1096 l 796 1099 l 746 1099 l 353 1080 q 334 1042 334 1080 l 334 1032 l 340 712 q 422 700 340 700 l 543 696 q 597 754 543 754 l 642 753 l 647 745 l 647 716 q 661 662 647 700 q 609 507 631 507 l 528 538 l 518 541 l 518 545 l 533 567 l 533 576 l 353 589 q 334 567 334 581 l 334 503 l 331 465 q 355 127 331 384 q 486 109 368 119 l 488 107 q 498 98 498 106 q 452 7 491 7 l 448 7 l 448 4 l 407 7 l 369 7 q 53 -12 236 -5 l 52 -15 l 49 -15 l 33 -9 l 34 16 l 30 35 q 39 80 37 47 q 186 104 39 90 q 222 142 222 113 l 239 427 l 244 434 l 250 434 l 252 446 l 252 494 l 236 503 l 227 572 l 236 602 q 227 861 227 637 l 227 962 q 233 1063 227 1017 q 205 1085 233 1081 l 179 1085 q 43 1153 43 1085 l 39 1177 q 53 1203 45 1203 l 58 1203 q 68 1181 62 1203 l 71 1181 l 75 1187 l 75 1190 l 72 1191 q 175 1210 72 1210 l 260 1213 z "},"G":{"ha":1012,"x_min":9,"x_max":1005,"o":"m 850 1202 q 895 1165 895 1202 q 872 911 886 911 q 806 879 872 886 l 798 879 q 750 914 750 879 l 755 936 q 670 1021 755 948 q 484 1066 602 1066 q 252 927 382 1066 q 117 629 122 788 l 117 628 l 126 534 q 193 320 126 481 q 255 237 193 307 q 293 174 259 205 l 587 123 q 753 209 661 123 q 781 396 781 225 l 781 420 q 743 439 781 439 q 616 468 616 446 l 613 481 q 658 557 625 557 l 806 556 l 983 572 q 1005 556 1005 568 l 1000 494 l 1000 477 q 952 427 987 427 l 898 430 l 898 425 q 911 197 911 425 q 929 -79 911 -61 l 926 -79 l 917 -80 l 834 -80 q 800 -88 819 -80 q 768 -31 768 -88 q 750 12 768 12 q 680 -35 742 12 q 582 -57 623 -57 l 570 -57 q 312 3 449 -57 q 231 60 282 35 q 141 155 175 100 q 72 281 72 258 q 12 465 34 342 l 15 642 l 18 642 q 12 661 23 670 l 9 662 q 47 831 14 746 q 174 1013 100 898 q 195 1047 184 1023 q 359 1152 218 1076 q 483 1177 385 1164 l 484 1177 q 750 1123 557 1177 l 753 1123 q 762 1146 762 1133 l 762 1154 l 760 1168 q 850 1202 776 1202 z "},"H":{"ha":1114,"x_min":4,"x_max":1101,"o":"m 940 1257 q 1000 1198 1000 1246 l 1004 1147 q 849 1118 1004 1137 l 845 1109 l 845 1103 q 883 916 845 1081 l 883 884 l 878 802 q 918 178 918 525 l 924 178 q 1085 141 1085 178 q 1101 20 1101 46 q 978 -15 1101 -15 l 943 -15 l 933 -18 l 924 -15 l 902 -15 q 807 1 807 -15 q 791 134 791 92 l 791 163 l 798 203 l 798 208 q 785 270 785 252 l 785 283 q 776 538 776 450 l 773 538 l 384 548 l 374 540 l 377 463 l 374 251 l 374 187 q 387 90 374 138 l 374 54 q 387 20 387 33 q 313 -34 387 -34 q 152 -12 187 -34 q 83 46 83 9 l 98 127 q 123 132 106 132 l 174 132 q 218 144 218 132 l 221 163 l 221 254 q 206 723 221 551 l 209 804 q 190 1084 202 804 l 175 1089 l 174 1089 q 22 1105 22 1089 l 4 1150 q 155 1194 4 1194 q 316 1200 240 1200 l 339 1195 l 339 1194 l 330 1169 l 335 1156 q 323 1131 323 1141 l 323 1119 l 354 732 q 370 700 354 700 l 764 688 l 766 694 l 760 792 q 772 821 760 802 l 762 830 l 762 834 l 766 842 l 766 846 l 760 899 l 760 960 q 738 1077 745 1065 q 697 1191 719 1077 q 707 1236 704 1236 q 940 1257 852 1242 z "},"I":{"ha":601,"x_min":-27,"x_max":581,"o":"m 156 1225 l 184 1222 q 438 1253 308 1222 l 448 1251 l 448 1248 l 441 1234 q 484 1222 457 1222 q 519 1108 519 1183 l 519 1104 q 427 1058 519 1067 q 351 1013 351 1058 l 351 760 q 332 719 351 719 l 330 716 l 330 697 l 334 652 l 334 650 l 349 560 q 362 247 349 471 q 343 161 355 174 q 365 149 343 149 l 372 149 q 536 171 446 171 q 581 118 581 171 l 581 102 q 560 7 581 7 l 513 7 l 486 0 l 467 12 l 64 0 q 38 85 38 0 l 38 123 q 45 137 39 137 l 47 137 l 64 152 l 73 156 q 187 145 106 156 l 194 145 q 210 159 208 145 l 203 232 l 213 346 q 168 1038 187 1038 l 1 1047 q -27 1096 -27 1077 l -27 1127 l -24 1165 q -27 1227 -24 1184 l -19 1219 l -9 1219 q 156 1225 35 1219 m 76 1225 l 73 1222 l 73 1219 l 80 1213 l 83 1213 l 83 1222 l 76 1225 z "},"J":{"ha":859,"x_min":16,"x_max":997,"o":"m 761 1238 l 785 1238 q 985 1217 970 1238 q 997 1153 997 1184 l 997 1143 q 975 1065 997 1065 l 941 1062 l 940 1062 q 865 1081 925 1081 q 840 1077 854 1081 l 817 1077 q 780 939 789 1077 q 751 594 751 822 l 726 340 q 709 258 726 258 l 704 245 l 713 227 q 659 99 709 190 q 437 -37 547 -37 l 434 -37 q 273 8 382 -37 q 159 165 184 77 q 118 336 141 312 l 109 336 q 33 321 77 336 q 16 331 16 324 q 37 448 28 366 l 326 476 l 334 448 q 317 334 331 334 l 313 334 l 313 331 q 285 362 290 331 l 282 362 q 248 328 248 351 q 353 100 248 141 l 370 99 l 450 118 q 467 127 467 123 l 467 129 q 526 189 511 152 q 586 274 586 241 q 618 381 608 316 q 637 528 637 408 l 637 692 q 612 1046 637 962 l 609 1093 l 526 1067 l 450 1065 l 434 1128 l 425 1150 q 444 1185 444 1177 l 444 1217 q 469 1223 444 1223 l 472 1223 q 761 1238 581 1223 z "},"K":{"ha":1127,"x_min":15,"x_max":1103,"o":"m 205 1272 l 296 1272 q 416 1246 397 1272 l 429 1244 l 429 1240 q 400 1126 400 1215 q 378 845 400 1024 l 381 845 l 518 975 q 680 1139 680 1114 q 735 1230 735 1219 l 732 1230 l 699 1234 l 699 1237 q 789 1251 699 1251 l 977 1251 q 1017 1225 1017 1251 l 1055 1215 l 1058 1213 l 1058 1211 q 1020 1196 1058 1204 l 1020 1187 q 1027 1165 1027 1177 l 1027 1161 q 1008 1101 1027 1101 l 982 1108 l 954 1108 q 840 1051 894 1108 q 623 886 667 910 q 545 807 545 815 l 545 804 q 623 661 553 746 q 764 380 699 521 q 803 304 788 346 q 879 190 864 190 l 901 186 l 901 180 q 891 164 891 170 l 906 159 l 974 159 q 1088 148 1088 159 l 1084 140 l 1084 136 q 1097 126 1084 130 l 1103 119 l 1084 81 l 1084 76 l 1096 15 q 1074 -12 1096 0 q 818 5 1074 -5 q 694 28 694 15 l 694 34 q 723 62 723 49 l 718 62 l 713 69 q 720 140 720 104 q 678 278 720 186 l 647 377 q 521 629 635 388 q 454 715 465 707 l 448 715 q 355 613 355 618 q 334 468 355 574 l 338 446 l 319 392 l 319 389 q 334 363 319 381 q 317 225 328 225 q 300 180 300 220 q 505 123 319 148 l 507 121 q 530 98 515 98 l 536 91 q 499 3 524 76 q 479 -4 491 -4 q 281 7 479 7 l 262 7 q 195 -3 221 7 q 148 5 175 5 l 62 5 q 20 -4 49 5 l 15 9 l 15 16 q 43 102 15 50 q 56 140 43 113 l 56 142 q 138 155 56 151 q 184 313 174 155 q 205 496 184 374 q 222 1061 217 525 l 220 1088 l 222 1107 l 81 1133 q 20 1161 20 1150 q 49 1177 49 1165 l 39 1199 q 91 1268 53 1268 q 205 1272 123 1272 m 327 178 l 334 178 l 334 174 l 327 174 l 327 178 z "},"L":{"ha":972,"x_min":7,"x_max":952,"o":"m 99 1297 q 358 1263 250 1297 l 391 1261 l 415 1263 l 419 1253 l 418 1145 q 403 1133 414 1133 q 336 1142 326 1142 l 336 1139 q 292 1128 336 1133 l 282 761 l 282 723 l 278 217 l 278 186 q 385 170 278 170 l 746 170 l 807 165 q 826 270 815 165 q 842 296 831 296 q 952 274 952 293 q 947 246 945 258 q 949 220 949 235 q 936 106 949 182 l 936 77 l 937 68 q 928 30 928 47 q 911 5 924 30 q 831 -8 872 -8 l 823 -8 l 661 5 l 652 5 l 282 -8 l 22 15 q 7 39 7 27 q 54 151 22 151 q 129 165 62 159 q 130 712 152 229 q 149 1104 140 811 l 149 1123 q 109 1152 149 1152 l 92 1154 l 92 1161 q 66 1168 79 1168 l 58 1168 q 39 1211 39 1179 l 39 1218 q 64 1271 39 1260 q 77 1290 69 1271 l 99 1297 z "},"M":{"ha":1267,"x_min":22,"x_max":1252,"o":"m 228 1185 q 332 1147 332 1166 q 377 1099 357 1137 q 490 897 425 1063 l 548 789 q 598 666 582 666 q 674 787 620 666 q 860 1108 743 925 q 895 1138 895 1124 q 926 1172 907 1162 l 949 1169 q 1009 1184 979 1181 q 1137 1143 1137 1166 l 1137 1141 l 1139 700 l 1137 578 q 1168 182 1146 511 l 1165 153 q 1210 151 1153 151 q 1251 115 1251 145 l 1252 103 q 1236 -20 1252 -20 l 1233 -20 q 1169 -5 1203 -5 l 1058 -5 q 884 30 884 -5 l 891 77 l 891 84 q 878 111 891 94 l 878 122 q 941 144 878 132 l 951 156 l 947 168 l 947 197 q 964 289 947 220 l 971 298 q 959 453 959 316 l 959 567 l 962 624 q 952 678 952 646 l 952 707 q 964 821 952 747 q 983 882 964 842 l 985 894 q 971 985 971 962 l 966 985 q 864 844 936 955 q 722 606 789 700 l 646 498 q 614 483 633 483 l 591 491 q 563 483 576 490 q 537 526 540 483 q 477 612 521 563 q 363 827 453 644 l 342 865 l 319 909 l 320 910 l 282 982 l 282 970 l 278 951 l 278 932 q 309 220 309 505 q 297 210 307 210 q 300 163 300 179 l 294 140 l 328 109 l 338 109 q 366 115 351 109 q 442 87 442 100 l 442 80 l 434 54 l 437 35 l 437 26 q 399 -3 437 -1 q 382 -8 382 -3 l 361 -12 q 136 11 298 -12 l 88 -3 q 54 26 54 5 l 54 35 q 26 83 34 35 l 22 87 l 22 96 q 98 134 43 134 q 145 151 145 145 l 145 153 l 114 1024 l 117 1105 l 110 1137 q 155 1175 110 1175 l 228 1185 z "},"N":{"ha":1082,"x_min":35,"x_max":1080,"o":"m 1031 1328 l 1050 1328 q 1070 1280 1070 1328 l 1073 1274 l 1076 1271 l 1078 1264 l 1080 1264 q 1025 1210 1063 1210 q 956 1200 1025 1203 l 952 1194 q 1006 260 1006 502 l 1013 80 q 987 11 1013 11 q 933 7 975 7 l 873 7 q 826 27 826 7 q 776 141 821 66 q 715 321 750 273 q 689 359 715 330 q 506 694 593 517 q 425 852 487 723 q 311 1023 368 954 l 304 1023 l 304 977 q 316 742 304 918 q 285 327 316 617 l 285 301 l 297 260 l 290 127 l 300 77 l 290 39 l 290 33 q 292 1 292 12 q 266 -30 292 -30 l 104 -34 q 53 11 53 -27 q 35 103 45 76 q 126 149 35 113 l 129 151 l 129 213 q 140 245 129 236 l 140 251 q 126 374 126 251 l 126 397 q 167 1255 167 764 q 178 1314 168 1314 q 254 1324 178 1322 l 275 1324 q 382 1207 316 1324 q 494 1061 454 1118 l 575 925 q 727 631 669 817 q 804 502 787 502 q 829 576 829 528 l 826 654 l 831 916 q 819 1027 819 990 l 819 1034 q 833 1181 819 1138 q 734 1198 833 1198 l 728 1204 l 728 1267 q 781 1326 728 1326 q 1031 1328 997 1328 m 774 1229 l 779 1229 l 774 1229 z "},"O":{"ha":1080,"x_min":35,"x_max":1061,"o":"m 617 1309 q 784 1268 760 1283 q 945 1112 920 1184 l 1012 1012 q 1061 715 1035 916 q 1016 449 1046 480 q 955 278 994 362 q 829 56 865 94 q 696 -8 757 -8 q 670 -26 670 -15 l 586 -58 l 575 -56 q 449 -68 494 -68 l 425 -68 q 281 -20 408 -68 q 199 46 250 -8 q 159 100 159 73 q 57 340 107 174 q 38 407 38 395 l 35 438 q 126 891 35 747 q 180 1036 156 933 q 247 1122 191 1055 q 395 1264 247 1169 q 500 1299 395 1272 l 617 1309 m 176 594 l 176 435 q 262 224 176 273 q 370 138 346 138 q 461 103 426 138 l 477 100 l 499 103 l 515 87 l 518 87 q 547 107 529 87 q 665 148 635 121 q 798 293 798 279 l 876 530 q 943 705 921 705 l 945 705 l 945 715 q 921 787 945 736 q 886 971 907 941 q 681 1164 846 1081 q 613 1188 628 1188 l 601 1188 q 509 1152 521 1152 q 503 1135 503 1152 q 376 1040 393 1063 l 285 924 q 225 815 252 883 q 176 594 176 707 z "},"P":{"ha":926,"x_min":12,"x_max":1000,"o":"m 148 1367 l 182 1364 q 515 1333 450 1364 q 784 1279 658 1312 q 888 1245 808 1265 q 933 1200 911 1236 q 1000 1042 1000 1142 l 964 880 q 856 693 945 833 q 578 564 856 654 q 480 543 566 551 q 286 517 456 532 l 286 296 l 283 114 q 480 71 380 114 l 480 66 l 483 66 l 480 64 l 480 45 q 487 28 480 37 l 476 11 l 476 -9 q 442 -31 476 -31 q 334 -40 363 -42 q 125 -38 304 -38 l 77 -41 l 77 -43 q 56 -53 77 -49 q 37 68 37 -53 l 31 102 q 49 121 31 121 l 115 114 l 125 114 q 148 387 148 114 l 151 476 q 138 513 138 476 l 136 570 l 136 655 q 132 712 136 690 l 136 726 l 129 732 l 129 741 l 138 751 l 138 766 l 132 776 q 141 970 141 892 l 141 975 q 132 1020 132 985 l 132 1046 l 144 1156 l 144 1158 q 41 1162 111 1162 q 12 1225 20 1162 l 12 1226 q 27 1272 12 1240 l 22 1298 q 53 1320 22 1316 l 60 1320 l 60 1321 l 49 1339 l 49 1343 q 148 1367 53 1359 m 267 1175 l 267 1162 l 269 1156 l 267 1149 l 264 1055 q 297 747 264 945 l 302 656 q 502 690 357 656 q 654 757 562 690 q 770 837 715 785 q 825 982 825 917 q 829 1010 829 982 l 829 1023 q 701 1120 829 1046 q 471 1198 537 1172 l 433 1200 q 267 1175 289 1200 z "},"Q":{"ha":1162,"x_min":4,"x_max":1143,"o":"m 454 1256 l 479 1256 q 675 1233 647 1256 q 941 1027 853 1172 q 1058 739 1058 884 l 1053 711 l 1055 711 q 1067 692 1061 711 l 1061 606 q 1039 477 1048 567 q 982 326 1020 404 l 944 233 l 944 224 q 994 193 972 193 l 996 193 q 1029 245 1029 193 l 1032 248 l 1036 248 q 1131 164 1050 248 q 1143 157 1143 163 q 1065 60 1092 117 q 1017 -11 1044 35 q 970 -26 987 -26 l 963 -23 l 963 -20 l 967 -14 q 899 34 964 -5 l 899 50 l 894 50 q 830 88 878 50 l 825 88 l 738 34 q 526 -11 667 -11 q 270 53 403 -11 q 236 96 259 61 q 80 307 80 251 q 39 448 62 396 q 4 628 39 491 l 16 749 q 39 831 39 781 q 61 894 61 849 q 160 1047 118 1004 l 217 1119 q 274 1150 245 1143 l 277 1160 l 270 1160 l 260 1157 l 254 1160 l 254 1164 q 359 1245 270 1183 q 454 1256 397 1256 m 127 623 q 160 454 127 538 q 236 243 213 273 q 552 126 439 126 l 616 126 q 723 176 682 126 l 723 182 q 688 198 723 184 q 612 286 612 269 q 567 315 612 293 q 536 369 536 358 q 574 404 536 382 q 621 464 601 446 l 628 464 l 747 357 q 840 315 819 315 l 844 315 q 875 435 852 321 q 928 647 888 461 l 929 699 l 929 736 q 872 948 929 834 q 739 1019 856 978 q 495 1072 666 1047 l 481 1072 q 312 983 453 1072 q 270 922 270 948 q 175 819 247 883 q 127 623 127 720 z "},"R":{"ha":1194,"x_min":-1,"x_max":1175,"o":"m 321 1303 l 327 1303 q 469 1282 361 1303 q 842 1204 613 1282 q 996 1019 941 1128 q 1013 902 1013 956 l 1013 898 q 944 711 1013 815 q 825 616 902 658 q 732 556 796 591 q 701 522 701 530 q 920 217 859 297 q 1017 126 975 126 q 1160 85 1160 118 q 1175 -4 1164 85 q 1161 -14 1173 -14 l 1146 -14 l 1040 -37 q 924 -18 1028 -18 q 822 -5 822 -18 q 803 71 817 24 l 802 84 l 802 91 q 749 180 802 107 q 730 227 742 218 q 600 471 682 297 q 567 492 582 492 l 450 464 q 369 416 369 464 l 369 385 q 406 145 369 145 l 429 142 l 450 142 l 495 152 q 507 72 507 127 l 500 53 l 502 19 q 369 -16 502 1 l 362 -14 l 217 -11 l 111 -11 q 92 37 92 -11 l 92 69 q 125 141 92 141 l 210 160 l 216 189 q 187 727 201 600 q 175 1139 184 1139 l 168 1142 l 39 1119 l 33 1120 l 35 1138 l 14 1138 l 14 1142 l 11 1142 l 14 1166 l 14 1177 q -1 1215 14 1190 l 14 1244 l 14 1246 q 178 1282 14 1259 l 321 1303 m 353 1147 l 353 1133 l 368 1012 q 350 800 357 818 l 339 788 l 339 765 l 353 667 q 372 601 353 601 l 374 601 q 519 635 519 621 q 654 693 609 667 q 853 810 739 693 q 884 929 884 872 l 884 949 q 833 1050 884 967 q 650 1158 735 1158 l 586 1164 q 353 1147 445 1147 z "},"S":{"ha":895,"x_min":30,"x_max":869,"o":"m 461 1295 l 587 1271 q 694 1217 618 1271 l 701 1217 q 716 1290 707 1290 q 783 1270 770 1270 l 822 1270 l 850 1271 l 856 1267 l 853 1255 l 853 1015 q 841 979 853 993 q 856 951 856 966 q 844 918 856 937 l 849 887 q 837 865 849 865 l 789 871 l 787 871 l 761 865 l 758 865 q 732 947 750 865 q 711 994 732 972 q 685 1042 685 1031 l 697 1046 l 697 1048 q 663 1099 669 1070 q 530 1175 587 1175 l 518 1175 q 331 1137 495 1175 q 281 1065 319 1130 q 245 975 245 1016 q 274 853 256 853 q 334 776 300 791 q 378 758 339 765 q 490 697 406 734 l 509 688 l 530 694 q 545 688 545 692 l 545 685 q 689 609 587 675 q 844 425 844 463 q 869 282 869 315 q 840 137 853 137 l 793 58 q 640 -20 663 -20 q 353 54 427 23 q 205 217 205 191 l 198 222 l 195 220 l 195 210 l 194 106 q 127 92 194 92 l 94 94 l 65 83 q 30 103 49 83 l 30 106 l 39 121 q 72 438 53 438 l 75 438 l 109 431 l 110 431 q 129 438 119 431 l 153 431 l 167 435 l 172 435 q 208 381 179 434 q 336 206 279 292 q 384 156 343 206 l 499 106 l 533 106 l 533 99 l 537 99 l 581 111 l 581 113 q 713 140 583 118 q 773 244 745 140 q 789 293 773 279 l 789 302 q 718 431 760 400 q 545 524 696 472 q 388 612 453 559 q 286 671 301 637 q 201 751 271 699 q 125 913 167 856 q 106 1086 106 990 q 241 1257 121 1147 q 461 1295 309 1295 z "},"T":{"ha":848,"x_min":-1,"x_max":989,"o":"m 197 1280 q 543 1255 281 1280 l 751 1249 l 758 1249 q 966 1261 897 1249 q 989 1059 989 1177 l 989 1050 q 967 998 989 998 l 960 991 q 982 974 960 983 l 985 972 l 985 967 q 918 945 975 949 q 875 977 875 945 l 871 1021 l 875 1107 q 764 1124 875 1124 l 650 1124 l 586 1126 q 559 818 567 1126 q 548 473 548 563 l 548 416 q 530 366 548 391 l 530 365 q 548 324 544 365 l 543 296 l 540 296 l 538 298 l 538 309 l 536 163 q 723 122 536 138 q 758 87 758 109 q 742 1 742 56 q 738 -18 738 1 l 730 -23 q 358 -14 529 -14 l 315 -14 q 182 -20 236 -14 q 165 103 178 -15 l 168 103 q 260 138 179 123 q 393 148 260 146 q 415 270 408 148 l 425 391 q 407 585 407 545 l 387 958 l 387 1005 l 391 1077 l 387 1100 l 393 1115 l 393 1124 q 245 1143 393 1139 q 137 1128 137 1138 q 103 998 121 1086 l 90 986 l 87 989 l 73 989 q 56 982 64 982 l 3 978 q 8 1141 8 1111 l -1 1214 q 27 1240 -1 1238 l 49 1261 l 58 1261 l 75 1240 l 80 1240 q 172 1280 111 1280 l 197 1280 z "},"U":{"ha":869,"x_min":-7,"x_max":869,"o":"m 114 1171 l 218 1158 l 262 1158 q 335 1145 335 1158 l 320 1127 l 320 1126 q 354 1111 320 1118 l 354 1107 q 323 1051 336 1095 l 212 1035 q 197 1031 212 1032 l 197 1028 l 205 890 q 186 709 205 850 l 186 674 q 197 518 186 623 l 195 515 l 193 515 q 193 301 189 439 q 216 243 209 271 q 297 142 243 243 q 425 110 334 110 l 471 98 l 484 98 q 576 164 548 98 q 658 304 597 193 q 684 387 684 332 l 684 418 l 677 601 l 681 624 q 689 613 686 624 l 693 613 q 708 671 707 613 q 684 689 684 671 l 696 829 q 643 1016 678 1016 q 551 1051 551 1029 q 529 1104 529 1081 q 642 1154 566 1154 q 774 1164 642 1161 q 867 1145 867 1164 l 869 1133 l 869 1104 q 810 1019 869 1046 l 804 1012 l 804 1009 q 833 700 822 749 q 807 408 807 625 q 731 142 807 382 q 700 92 704 92 l 699 73 l 699 72 q 651 34 694 64 q 557 3 621 3 l 509 7 l 406 -12 q 136 81 210 -12 q 104 121 104 96 l 107 138 q 41 330 79 179 l 31 401 l 31 414 l 35 449 l 24 453 l 26 472 l 15 494 q 41 566 18 526 l 41 651 l 64 883 l 64 1019 q 7 1050 64 1042 q -7 1139 -7 1085 q 114 1171 -7 1171 z "},"V":{"ha":941,"x_min":4,"x_max":1073,"o":"m 374 1299 l 374 1284 q 399 1268 374 1279 l 399 1263 q 392 1240 392 1251 l 392 1237 l 393 1195 q 374 1161 393 1184 l 374 1157 q 387 1133 374 1147 l 387 1126 q 263 1100 387 1116 l 266 1085 q 323 986 302 1085 q 330 967 327 986 l 323 936 l 323 924 l 339 910 q 355 857 355 875 l 355 810 q 368 727 368 792 q 392 627 392 651 q 450 407 392 574 l 522 189 l 525 189 q 605 401 560 214 q 646 566 646 522 l 639 579 q 724 845 680 673 q 779 1040 779 1006 l 779 1047 q 735 1073 779 1065 q 726 1090 726 1080 l 726 1218 q 764 1265 726 1253 q 829 1287 796 1287 l 1066 1242 q 1070 1199 1070 1242 l 1073 1199 l 1070 1187 l 1070 1119 q 1058 1062 1070 1062 q 902 1043 902 1059 q 804 682 860 834 q 747 442 766 586 q 617 50 681 180 l 617 47 q 627 28 617 39 l 627 24 q 460 -9 627 11 q 403 57 403 -9 q 373 174 403 87 q 297 452 336 323 q 187 760 254 602 q 164 873 171 803 q 99 1097 115 1016 q 79 1109 88 1109 l 22 1107 q 4 1123 4 1107 l 12 1171 l 7 1195 l 12 1208 q 7 1221 12 1221 q 50 1280 7 1238 q 145 1271 111 1271 l 156 1271 q 358 1299 213 1271 l 374 1299 z "},"W":{"ha":1077,"x_min":22,"x_max":1169,"o":"m 94 1171 q 307 1130 136 1171 q 326 1104 326 1114 q 309 916 309 1027 l 319 728 q 300 355 319 566 l 296 260 l 296 251 q 302 197 296 221 l 305 197 q 400 399 324 208 q 487 629 456 526 q 533 703 511 647 l 540 707 l 544 707 q 623 688 578 693 q 685 365 663 688 q 715 237 701 237 q 770 401 727 237 q 834 648 799 494 q 898 1000 867 757 q 920 1153 906 1025 q 1021 1158 951 1158 l 1057 1158 q 1161 1133 1145 1158 l 1169 1111 l 1166 1096 q 1160 944 1166 970 l 1156 944 q 1097 949 1108 949 l 1095 949 q 1053 899 1061 949 q 936 430 955 587 q 914 269 924 384 q 864 31 871 41 q 779 -4 846 9 q 642 14 646 -7 q 608 125 642 7 q 575 292 575 243 q 547 403 560 376 q 499 292 536 403 q 433 123 452 190 l 416 80 q 392 38 392 49 l 392 33 l 397 14 q 229 -15 397 -5 q 214 -7 214 -12 l 217 3 q 182 90 201 3 q 160 289 160 191 l 160 553 l 136 769 l 132 899 l 134 928 q 88 954 126 954 q 22 985 22 959 q 41 1133 31 1017 q 68 1156 43 1141 q 94 1171 75 1171 m 655 5 l 659 5 l 655 5 z "},"X":{"ha":1111,"x_min":19,"x_max":1097,"o":"m 392 1234 q 425 1208 425 1226 l 412 1168 l 412 1162 l 430 1139 q 382 1099 430 1104 q 361 1092 361 1099 l 411 1028 q 441 962 419 991 q 572 764 441 951 q 591 738 572 749 l 593 738 q 650 819 631 774 q 757 1013 738 974 q 769 1032 769 1019 l 769 1035 q 728 1076 741 1076 q 678 1092 678 1080 q 693 1130 693 1116 l 693 1139 l 684 1152 l 684 1153 l 703 1196 l 722 1200 l 726 1200 l 760 1194 l 943 1194 q 1076 1168 1024 1194 l 1077 1158 q 1054 1063 1077 1074 q 952 1038 1034 1038 q 925 1028 925 1035 q 944 1020 925 1023 l 944 1016 q 911 1000 944 1012 q 819 842 911 991 q 677 621 745 712 l 677 614 q 753 477 684 594 q 945 138 890 138 q 1097 87 1023 138 l 1095 58 l 1085 37 q 1078 -5 1085 -5 l 1028 -4 q 983 -23 1020 -4 l 910 -27 q 723 4 800 -27 l 705 43 l 692 58 l 705 56 l 677 94 q 747 138 677 114 l 750 141 l 750 146 q 620 399 708 256 q 564 475 578 475 q 506 392 529 441 q 354 184 457 298 l 326 142 q 301 117 301 123 q 351 60 351 96 q 316 -16 339 -16 q 270 -43 307 -43 q 146 -24 170 -24 l 69 -26 q 19 42 30 -26 q 42 95 19 71 q 79 137 43 104 l 80 137 q 133 117 103 109 q 189 189 164 138 q 363 430 294 320 q 411 496 372 435 q 446 555 438 519 l 488 617 l 488 627 q 361 829 457 696 q 275 968 316 888 q 175 1063 217 1063 q 102 1095 102 1063 q 95 1133 102 1133 q 221 1208 136 1208 q 392 1234 357 1234 z "},"Y":{"ha":926,"x_min":-33,"x_max":1055,"o":"m 346 1272 q 355 1265 355 1268 q 346 1146 350 1242 q 302 1133 342 1133 q 435 937 336 1062 l 476 852 q 545 773 499 812 q 631 880 572 795 q 751 1042 680 952 q 783 1108 783 1086 l 774 1114 l 736 1114 q 688 1215 694 1114 q 736 1238 688 1238 q 837 1260 736 1260 l 945 1260 q 1050 1244 1050 1260 q 1055 1200 1055 1232 l 1055 1177 q 1034 1127 1055 1127 q 1012 1116 1023 1127 l 994 1116 q 883 977 929 1032 q 773 838 837 922 q 623 640 629 673 l 623 631 q 635 408 635 609 q 661 140 635 140 l 663 140 l 716 130 l 751 126 l 755 114 l 754 57 l 754 42 l 770 23 l 770 16 q 597 -28 739 -28 q 395 -7 395 -24 l 391 41 l 393 104 q 452 130 393 130 q 502 140 502 133 l 502 142 q 480 563 480 221 q 464 614 476 589 q 441 652 464 632 q 260 971 393 746 q 179 1092 260 978 q 157 1099 170 1099 l 72 1096 q 42 1114 42 1101 l 33 1124 q 18 1105 33 1112 q -1 1143 4 1105 q -33 1171 -24 1171 l -33 1180 q -14 1199 -14 1187 l -27 1210 q 20 1241 -27 1237 l 58 1241 q 327 1270 142 1241 l 346 1272 z "},"Z":{"ha":929,"x_min":27,"x_max":903,"o":"m 675 1215 l 780 1219 q 811 1202 811 1215 q 806 1176 806 1192 q 815 1160 815 1165 l 815 1108 l 815 1103 l 818 1100 q 734 960 818 1058 q 675 849 704 917 q 628 764 666 842 q 438 435 525 609 q 388 359 431 434 q 271 178 335 293 l 271 175 q 293 165 274 165 l 297 165 l 476 178 q 705 159 563 178 q 741 274 722 159 l 751 262 q 777 290 761 282 q 873 289 878 273 q 903 20 892 286 q 492 14 857 22 l 224 -11 q 174 -20 202 -20 l 134 -5 l 88 -12 l 84 -12 q 27 8 34 -12 l 31 18 l 30 39 q 205 330 33 106 q 326 517 209 343 q 591 928 458 741 q 675 1027 609 952 l 677 1036 q 637 1043 669 1043 l 632 1043 q 350 1010 543 1043 l 340 1010 l 243 1017 l 229 985 l 240 878 q 117 846 240 857 q 94 937 94 901 l 91 979 l 91 1005 l 96 1127 l 84 1156 q 113 1188 91 1156 q 179 1166 121 1196 q 435 1196 399 1196 q 675 1215 647 1207 m 164 1188 l 164 1185 q 164 1188 164 1175 z "},"[":{"ha":547,"x_min":53,"x_max":525,"o":"m 351 1419 l 475 1419 q 511 1401 511 1419 l 525 1369 q 513 1255 525 1259 q 475 1271 490 1271 l 461 1271 l 397 1248 q 231 1229 361 1236 q 171 1219 231 1221 q 155 1154 155 1196 q 180 1138 155 1139 l 180 1131 q 174 1126 180 1126 l 157 1128 l 157 1126 q 174 1100 157 1115 q 151 1020 151 1080 l 152 958 l 152 945 q 164 982 157 945 l 170 982 l 170 963 q 155 920 170 920 l 148 920 l 148 916 l 161 901 l 161 891 l 151 897 q 142 875 142 887 l 142 859 q 160 827 142 844 l 160 825 q 141 774 160 793 l 141 716 l 136 654 l 141 613 l 136 585 l 145 575 l 145 574 l 136 559 q 160 338 136 484 q 190 148 160 221 l 189 119 q 205 56 189 109 l 212 56 q 442 87 340 56 q 465 -5 465 87 q 473 -52 473 -15 l 473 -58 q 461 -91 473 -84 l 437 -90 l 397 -90 l 231 -96 l 160 -94 q 56 -109 117 -96 l 53 -100 l 72 -68 q 57 165 65 -42 l 65 201 l 66 201 l 72 260 q 60 471 60 260 q 66 486 62 486 l 72 486 q 57 618 66 498 q 65 635 61 635 l 62 685 l 69 1153 l 66 1160 q 92 1298 76 1298 q 114 1394 117 1396 q 351 1419 114 1407 m 145 822 l 145 818 l 151 818 l 151 822 l 145 822 z "},"\\":{"ha":802,"x_min":-14,"x_max":783,"o":"m 119 1340 q 258 1112 182 1340 l 464 694 q 499 651 490 673 l 498 629 q 555 547 509 585 q 578 495 555 525 l 651 326 l 651 324 q 682 239 662 312 q 777 15 728 156 l 783 -4 q 745 -39 783 -23 q 654 -96 684 -96 l 650 -96 l 609 15 q 429 385 537 197 q 312 613 400 423 q 20 1188 79 1034 q -1 1230 -1 1219 l -1 1233 l 11 1249 q -14 1287 11 1256 q 15 1303 -14 1295 q 61 1325 15 1318 q 119 1340 84 1340 z "},"]":{"ha":598,"x_min":19,"x_max":555,"o":"m 525 1407 q 555 1377 544 1407 l 555 1374 q 517 1036 530 1335 q 506 769 506 837 l 506 707 q 536 118 506 245 l 538 61 l 538 35 q 522 -53 538 -19 l 529 -62 q 522 -76 526 -76 l 507 -103 l 507 -107 q 251 -155 507 -130 q 161 -141 217 -155 l 71 -164 q 41 -138 41 -164 q 61 33 46 33 q 92 47 84 47 l 111 45 q 137 66 123 45 q 187 73 163 73 l 213 73 l 326 66 l 365 121 q 374 144 365 130 l 370 159 q 384 279 384 171 l 387 419 l 387 823 q 380 916 387 891 l 377 1153 l 377 1206 q 142 1168 202 1184 l 88 1169 l 85 1169 l 47 1158 q 22 1179 22 1169 q 33 1238 33 1194 l 33 1255 q 19 1324 33 1310 l 19 1329 q 92 1378 52 1378 q 202 1402 142 1396 q 297 1396 252 1396 l 358 1396 q 525 1407 481 1396 m 66 -114 l 66 -126 l 76 -136 l 95 -136 l 99 -132 l 99 -126 q 80 -100 99 -113 l 73 -100 q 66 -114 66 -103 m 209 -107 q 240 -117 209 -114 l 240 -114 l 241 -107 l 259 -107 l 259 -104 l 254 -100 l 222 -100 q 209 -107 209 -102 z "},"_":{"ha":674,"x_min":61,"x_max":633,"o":"m 623 174 q 627 24 633 172 l 629 24 q 434 14 627 4 q 153 1 216 -5 l 153 7 q 140 8 156 23 l 125 3 q 76 142 61 11 q 228 176 80 178 q 248 179 229 180 l 285 168 l 301 165 l 613 175 l 623 174 z "},"":{"ha":1150,"x_min":-7,"x_max":1078,"o":"m 765 1382 l 766 1382 l 779 1379 l 779 1375 q 772 1358 772 1366 l 772 1356 l 784 1356 q 823 1377 807 1377 q 1061 1332 1061 1369 l 1063 1318 q 1023 1208 1063 1208 q 1009 1215 1021 1215 q 975 1206 996 1206 l 959 1206 l 871 1221 q 594 1139 762 1221 q 472 1072 481 1099 q 396 952 396 985 q 347 815 347 840 q 339 793 347 802 l 339 784 q 481 758 430 758 l 537 768 q 792 734 697 734 q 954 693 827 719 q 972 662 972 678 l 940 636 l 940 633 q 966 620 966 628 l 966 612 l 949 610 l 928 610 q 595 632 815 610 q 357 654 495 632 l 354 654 q 338 525 347 654 l 392 518 q 700 477 650 477 l 895 449 q 918 441 903 441 l 937 441 l 962 460 l 963 460 q 972 415 972 433 q 892 365 972 365 l 807 365 q 741 355 780 365 l 646 357 l 415 392 l 389 392 l 380 382 l 380 380 q 401 231 392 345 q 534 56 407 191 q 718 -28 590 5 l 895 -85 l 1019 -95 q 1040 -118 1021 -118 q 1069 -130 1069 -118 q 1078 -210 1073 -137 q 1019 -254 1078 -233 l 943 -260 q 614 -156 886 -260 q 368 12 483 -99 q 228 208 254 125 q 161 397 190 283 q 76 416 76 397 l 38 416 q 15 461 15 416 q 7 477 9 461 q 24 534 15 477 l 28 540 l 47 537 q 145 551 145 541 l 145 556 q 130 674 142 674 l -3 696 l -3 699 q -5 710 -3 705 q -7 741 -7 715 l -7 762 q 19 819 -7 799 l 28 819 q 53 810 41 810 q 72 815 72 810 q 138 798 95 798 l 161 798 q 190 854 184 798 q 271 1063 233 1023 q 427 1234 389 1184 q 765 1382 651 1382 z "},"a":{"ha":1006,"x_min":37,"x_max":991,"o":"m 492 1027 q 618 1000 525 1027 q 747 838 728 895 q 814 666 787 798 q 844 532 844 637 l 846 487 l 840 300 q 909 159 840 245 q 991 98 971 98 l 991 95 q 925 22 991 72 q 863 -26 876 -26 l 861 -26 q 709 85 833 -24 q 486 -4 600 45 q 320 -26 411 -26 l 311 -26 q 137 53 208 -8 q 83 148 125 65 q 49 250 49 189 l 49 304 q 77 401 49 355 q 163 548 103 476 q 222 594 193 585 q 416 646 321 646 l 502 648 l 511 648 q 614 627 586 648 l 625 627 q 633 636 633 627 q 567 806 614 722 q 412 875 526 875 l 336 884 q 236 844 236 865 q 189 718 198 795 q 121 708 184 708 l 109 705 q 90 673 102 705 q 37 694 37 681 q 52 831 43 711 q 194 990 81 917 q 258 1021 248 1021 l 492 1027 m 194 358 q 225 244 206 244 l 244 221 l 244 218 l 227 221 l 227 216 q 374 123 266 168 q 412 114 389 117 q 673 224 450 114 q 688 245 688 232 l 688 255 q 659 435 671 331 l 656 437 q 614 471 656 457 q 425 510 476 510 q 227 415 283 477 q 194 358 194 380 z "},"b":{"ha":929,"x_min":-46,"x_max":887,"o":"m 56 1364 l 58 1362 l 71 1364 l 146 1364 l 206 1356 l 213 1350 l 218 1350 l 222 1354 l 222 1356 q 274 1241 274 1343 q 302 903 274 1008 l 308 903 l 426 910 q 640 872 640 897 q 713 814 646 872 q 850 637 819 727 q 884 431 884 602 l 887 374 q 831 236 831 259 q 680 56 831 165 q 452 7 661 12 q 321 23 357 23 l 279 23 q 248 -1 248 23 l 208 -53 q 156 -62 179 -62 q 65 -27 134 -62 l 65 -20 q 77 11 77 -3 l 77 18 l 71 52 l 75 77 l 75 113 l 68 149 q 90 315 90 270 l 96 334 l 94 358 l 109 492 l 109 500 q 84 806 109 540 l 84 808 l 81 811 l 84 823 l 84 830 q 94 1043 94 962 l 91 1184 l 90 1194 l 87 1194 q -18 1156 15 1156 q -46 1257 -39 1156 q -34 1280 -46 1264 l -34 1286 l -37 1286 l -43 1283 l -46 1286 q -30 1356 -46 1356 q 56 1364 -7 1364 m 251 429 q 255 343 251 373 l 252 296 l 252 210 q 340 160 252 186 q 412 153 365 153 q 647 213 510 153 q 749 365 693 251 l 761 410 q 701 612 761 505 q 642 716 689 671 l 556 777 q 283 719 423 777 q 262 587 267 719 q 251 429 251 522 z "},"c":{"ha":1139,"x_min":35,"x_max":1116,"o":"m 597 1046 q 673 1019 618 1028 q 830 932 711 1019 l 856 924 l 865 924 l 899 907 q 956 850 949 869 l 956 848 q 935 819 956 837 q 856 696 929 789 l 856 689 l 859 670 q 804 656 833 667 q 783 682 792 656 q 730 736 730 715 l 751 796 q 628 848 751 833 l 505 856 q 331 806 441 856 q 236 673 270 773 q 191 566 208 581 l 184 549 q 191 537 190 549 l 179 452 q 216 339 187 448 l 209 327 l 209 320 q 224 258 218 311 q 332 156 240 202 l 433 83 q 727 156 598 83 q 854 302 854 266 l 848 331 l 848 334 q 930 425 849 342 q 962 396 936 425 l 962 391 l 952 388 q 1006 346 1006 377 q 1070 225 1038 304 q 1088 182 1080 225 q 1116 160 1112 171 q 1092 141 1116 144 q 1012 80 1047 125 q 943 146 947 146 l 838 80 q 743 18 787 53 l 548 -46 l 518 -49 q 339 -12 456 -49 q 199 73 212 42 q 41 368 41 262 l 35 431 q 52 594 52 498 l 102 715 q 172 850 102 768 q 378 1012 212 937 q 597 1043 446 1034 l 597 1046 z "},"d":{"ha":978,"x_min":19,"x_max":949,"o":"m 836 1423 q 914 1400 914 1408 q 921 1344 918 1400 q 943 1312 943 1322 q 925 944 933 1222 q 921 926 921 944 q 906 903 906 916 l 906 875 q 905 749 906 840 l 906 735 q 878 423 878 496 q 867 338 878 338 l 867 334 q 880 308 876 334 l 878 296 l 878 289 q 854 115 878 255 l 854 71 q 949 18 949 53 l 940 8 l 940 -11 l 949 -23 l 949 -24 q 842 -65 935 -65 l 830 -65 l 821 -49 l 800 -49 l 750 -61 l 678 -58 q 662 37 671 -58 l 665 99 q 589 56 642 99 q 313 -37 430 -28 q 117 71 205 -9 q 57 160 87 103 q 23 217 23 208 l 26 224 l 22 241 l 19 251 q 26 346 22 324 l 31 362 q 23 376 27 362 q 117 678 23 515 q 203 799 161 757 q 393 853 263 853 l 411 853 q 738 749 610 853 l 750 742 l 757 742 q 791 1164 773 823 q 804 1176 796 1176 l 804 1179 q 722 1217 746 1217 q 700 1347 704 1217 q 715 1369 704 1351 q 707 1382 707 1374 q 750 1401 707 1401 l 750 1407 l 743 1416 l 743 1419 l 753 1420 l 836 1423 m 136 327 l 136 300 q 206 148 136 271 q 320 119 262 119 q 572 182 453 119 q 662 258 624 258 q 707 400 682 279 q 722 469 722 430 l 722 488 q 700 568 722 568 q 658 613 658 608 q 610 647 665 636 l 598 656 l 601 659 q 425 682 629 680 l 396 688 q 247 647 247 674 q 156 445 176 566 q 136 327 136 376 z "},"e":{"ha":975,"x_min":27,"x_max":958,"o":"m 483 945 q 675 879 562 945 q 772 780 772 807 q 846 590 846 617 l 848 575 q 819 486 819 510 l 808 483 l 647 483 q 594 476 624 483 q 214 498 321 498 l 174 498 q 151 452 151 464 q 164 385 164 427 q 186 300 164 312 l 189 290 l 189 289 l 176 293 l 176 289 l 195 270 q 229 208 195 243 q 363 72 290 98 q 506 52 422 52 q 559 75 518 52 q 701 198 595 85 l 701 203 q 677 210 701 208 l 673 220 q 777 328 716 304 q 846 277 784 320 q 958 125 888 210 l 958 118 q 869 39 897 39 l 863 39 q 812 87 863 81 q 730 24 802 87 q 581 -39 690 -7 q 407 -65 454 -65 l 300 -27 q 134 71 210 -27 q 81 153 102 103 q 39 309 81 165 q 27 414 27 370 l 27 416 q 176 856 27 670 q 264 925 198 902 q 373 945 304 936 q 483 945 389 952 m 171 625 l 524 623 l 543 616 l 566 618 q 667 593 646 593 q 680 585 667 587 q 692 616 692 600 l 692 651 q 597 761 692 677 q 499 811 556 803 l 435 821 q 231 745 279 791 q 171 625 212 709 z "},"f":{"ha":764,"x_min":35,"x_max":886,"o":"m 525 1276 l 534 1279 q 712 1232 581 1276 q 736 1219 724 1219 l 747 1223 l 836 1109 q 867 1043 867 1065 q 886 935 886 985 q 817 884 886 884 q 757 901 798 884 l 755 901 q 743 880 749 901 l 738 880 q 709 954 728 880 q 648 1108 656 1105 q 538 1124 623 1124 l 534 1124 l 389 1089 q 338 1042 338 1053 q 357 785 338 785 q 522 757 401 757 q 544 738 544 750 q 579 673 579 707 q 465 593 579 593 l 461 593 q 399 614 433 593 l 387 616 q 349 605 349 612 l 349 350 q 358 232 349 290 l 354 178 l 354 125 q 465 96 354 114 q 585 77 564 96 l 591 71 q 567 -37 581 71 q 490 -27 515 -30 l 465 -30 q 254 -12 328 -12 l 100 -15 q 92 14 92 -7 l 92 54 q 85 137 92 111 q 117 151 85 151 q 190 134 136 151 l 218 134 q 243 146 237 134 l 243 149 q 225 286 225 190 q 216 362 216 332 l 216 368 q 240 605 216 420 q 206 614 240 612 l 199 614 q 64 590 118 590 l 35 595 q 60 770 43 770 q 73 777 62 777 l 83 777 q 228 787 228 780 q 226 956 228 906 q 224 1034 224 1006 l 224 1042 l 214 1074 l 214 1077 q 266 1150 237 1120 l 354 1241 q 525 1276 434 1276 z "},"g":{"ha":1097,"x_min":18,"x_max":1089,"o":"m 416 985 l 479 985 q 625 947 524 985 q 745 898 662 947 l 754 898 q 844 974 774 898 q 901 921 860 974 q 944 886 921 911 l 944 880 q 837 750 837 764 q 770 560 787 581 q 669 494 738 522 q 521 411 586 411 l 463 408 l 340 420 l 317 420 q 277 297 304 420 l 292 292 l 298 292 q 362 316 326 292 l 407 319 l 483 319 q 780 285 663 319 q 863 243 792 274 l 928 197 q 1020 81 1001 134 q 1089 -142 1089 -53 q 979 -317 1089 -212 l 865 -399 q 650 -456 774 -456 l 597 -463 q 144 -327 262 -463 q 56 -190 56 -273 q 23 -33 23 -133 l 18 9 l 23 34 l 30 34 q 31 58 35 65 q 23 72 26 50 q 94 202 28 109 q 165 281 165 271 q 194 475 184 439 q 146 629 146 567 l 144 661 q 168 779 144 692 q 248 880 186 796 q 416 985 347 985 m 282 705 l 282 696 q 324 553 311 553 q 401 503 369 510 q 673 665 560 517 q 688 705 688 690 l 688 734 q 643 826 688 766 q 502 869 541 869 q 331 793 410 869 q 282 705 282 732 m 481 161 l 483 159 l 483 155 l 453 149 l 412 155 l 273 152 q 187 41 187 73 l 175 28 l 175 26 q 213 -209 190 -168 q 282 -266 216 -218 q 393 -311 282 -281 q 669 -336 564 -336 q 861 -256 810 -311 q 954 -102 954 -160 l 954 -92 q 880 34 954 -57 q 823 85 869 58 l 656 152 l 538 155 l 540 167 l 538 168 l 517 168 q 481 161 492 168 z "},"h":{"ha":1004,"x_min":1,"x_max":979,"o":"m 106 1382 q 346 1337 346 1373 l 359 1062 q 319 869 359 1027 q 309 792 309 818 l 309 780 l 315 780 q 604 878 442 878 q 777 825 651 878 q 840 746 800 802 q 856 723 853 735 l 853 704 q 906 555 906 659 q 916 369 913 555 l 916 366 q 884 157 916 338 l 879 122 l 917 122 q 979 106 979 118 q 963 75 979 98 l 970 65 l 970 61 q 970 27 970 43 q 920 -62 970 -62 l 903 -65 q 830 -43 830 -65 q 754 -34 830 -38 q 699 -8 730 -19 l 697 -1 q 723 239 697 76 q 755 435 730 331 l 751 502 l 758 510 q 732 564 732 529 q 694 628 720 591 q 598 685 671 663 q 357 604 525 707 l 305 526 l 293 403 l 298 277 q 270 137 286 137 l 267 129 l 274 125 l 283 125 l 315 138 q 359 110 359 132 l 372 77 l 374 68 q 346 -30 365 -30 l 340 -30 q 138 -4 312 -12 q 14 34 14 7 l 14 65 q 6 104 11 72 q 1 141 1 136 q 94 151 11 148 q 113 224 106 151 q 134 283 127 235 q 146 315 146 298 l 146 317 q 146 422 146 346 q 160 834 156 422 l 186 1112 l 186 1195 q 160 1236 186 1236 l 99 1238 l 58 1226 q 46 1276 47 1226 l 46 1297 q 68 1378 46 1378 l 106 1382 z "},"i":{"ha":578,"x_min":47,"x_max":545,"o":"m 349 1339 q 453 1272 414 1339 l 465 1210 q 425 1118 463 1179 q 349 1093 399 1093 q 201 1130 231 1093 q 175 1234 172 1166 q 168 1238 168 1234 l 168 1241 q 285 1329 224 1329 q 349 1339 300 1335 m 95 970 q 133 958 111 958 l 156 968 q 412 954 412 968 l 415 941 l 415 909 q 430 836 430 873 l 430 807 q 401 308 411 545 q 393 270 395 297 q 411 260 397 260 l 418 260 q 519 237 519 260 l 517 235 l 517 222 q 538 80 538 178 l 545 4 l 541 0 l 458 -3 l 270 -3 q 57 30 57 -3 q 47 71 57 50 q 66 92 53 85 l 71 92 q 61 123 61 109 l 60 140 l 60 161 l 54 209 q 197 229 54 229 q 216 313 216 229 l 237 808 l 235 808 q 186 822 164 808 q 73 848 73 822 q 66 863 66 850 l 76 886 q 64 905 76 892 l 64 907 q 85 967 80 918 l 88 970 l 95 970 z "},"j":{"ha":476,"x_min":-218,"x_max":427,"o":"m 240 1218 q 350 1183 307 1218 q 380 1097 376 1139 q 312 955 363 955 q 290 949 312 951 q 176 971 176 956 l 176 974 l 151 1044 l 148 1063 q 174 1180 148 1165 q 240 1218 202 1218 m 138 788 l 145 788 l 179 779 l 237 779 q 297 758 267 779 q 316 750 316 758 q 309 734 309 742 l 309 730 l 316 722 l 335 727 l 338 727 q 382 549 373 709 q 411 233 397 500 q 427 -106 419 -106 q 411 -149 427 -117 q 401 -209 401 -179 l 401 -210 q 293 -370 361 -309 l 202 -425 q 151 -437 164 -437 q -168 -320 -23 -437 l -191 -247 q -218 -175 -206 -247 l -213 -140 l -213 -134 l -216 -96 q -133 -39 -216 -54 q -61 -23 -84 -23 q -35 -92 -41 -23 q 15 -228 -16 -228 q 113 -247 57 -247 q 214 -146 144 -247 q 227 -96 227 -122 l 227 -87 l 218 22 l 221 88 q 174 549 191 549 l 170 553 l 170 556 l 141 549 q 43 589 57 581 q 28 636 28 623 q 47 779 35 779 l 76 784 q 103 774 87 784 q 138 788 125 788 z "},"k":{"ha":1059,"x_min":-12,"x_max":1035,"o":"m 20 1423 l 35 1423 q 232 1375 202 1404 q 256 1302 245 1375 l 248 1286 l 248 1279 q 275 1043 266 1253 q 294 557 275 661 l 304 557 q 617 785 401 639 q 646 954 636 785 q 684 994 646 994 l 760 998 q 963 963 929 998 l 963 960 l 956 954 l 954 939 q 968 852 968 939 q 940 815 968 815 q 913 789 930 815 l 906 787 l 868 789 l 861 789 q 818 747 861 766 q 811 739 811 747 l 817 726 l 637 602 l 636 595 q 821 213 637 582 q 854 127 846 160 q 943 116 861 117 q 1025 94 1025 115 l 1010 73 q 1035 -49 1035 33 q 1006 -75 1035 -75 l 991 -77 q 770 -69 939 -69 l 760 -69 q 726 -12 736 -69 q 688 168 713 94 q 562 429 658 239 q 513 524 530 524 q 410 467 481 522 q 374 445 388 445 q 334 415 365 449 l 336 403 q 320 372 320 393 l 324 170 l 406 137 q 463 111 422 123 l 472 92 l 469 65 l 469 45 l 475 18 l 475 14 q 460 -39 467 -3 l 460 -43 q 437 -53 460 -50 l 349 -31 q 111 -8 175 -22 l 85 -15 q 61 46 61 -3 l 61 56 l 58 58 q 87 113 58 92 l 95 113 l 90 127 l 90 130 q 175 156 90 144 q 198 172 193 163 q 203 343 203 182 q 168 612 191 536 q 137 1172 156 1074 q 71 1184 137 1179 l 16 1169 q -5 1204 -4 1191 l -9 1321 l -12 1328 q -3 1356 -8 1356 l 16 1352 l 16 1356 q 1 1385 16 1366 l 1 1393 q 16 1400 16 1394 l 9 1412 l 9 1421 l 20 1423 z "},"l":{"ha":595,"x_min":7,"x_max":572,"o":"m 129 1413 l 206 1394 l 330 1400 q 377 1371 377 1400 q 366 1181 366 1302 l 366 884 l 363 602 l 366 526 l 357 168 q 551 144 408 153 l 553 141 l 553 115 q 572 84 553 104 q 525 -49 551 37 l 509 -62 l 503 -62 q 456 -46 491 -46 l 148 -3 q 7 14 7 -3 q 41 160 30 58 l 45 160 l 45 163 l 62 160 l 81 160 q 136 175 96 168 q 164 165 153 165 l 186 165 q 205 203 205 165 q 224 616 212 269 q 202 1238 212 728 q 183 1251 193 1251 l 98 1245 q 76 1260 76 1248 q 100 1407 85 1407 l 129 1413 z "},"m":{"ha":1523,"x_min":12,"x_max":1458,"o":"m 326 960 q 347 954 347 958 l 339 941 l 339 937 l 342 937 l 439 940 q 658 859 604 940 q 705 792 694 811 l 712 789 q 926 892 728 789 q 968 903 952 903 q 1130 846 1044 903 q 1289 631 1289 718 q 1348 245 1303 598 l 1348 193 q 1356 174 1348 175 l 1363 174 q 1424 189 1379 174 q 1455 79 1455 189 q 1458 -7 1458 34 q 1436 -7 1443 -7 l 1432 -7 q 1291 -20 1345 -20 l 1233 -14 l 1123 -16 l 1104 -16 q 1100 -1 1100 -16 l 1076 22 l 1076 24 l 1081 43 l 1081 47 l 1072 98 l 1072 122 q 1111 148 1072 148 q 1166 198 1177 138 q 1177 419 1164 345 l 1177 422 l 1173 536 q 1123 605 1173 564 l 1107 609 l 1095 609 l 1076 618 q 936 674 1034 674 q 791 602 815 663 q 781 513 784 582 l 785 469 l 785 334 l 784 279 q 831 182 784 193 q 852 168 852 178 q 826 64 833 79 l 779 54 l 617 68 l 598 64 q 567 161 567 64 l 567 168 q 624 197 567 179 q 639 210 639 197 q 629 317 629 252 l 632 524 q 623 590 623 566 q 633 637 624 637 l 636 637 q 525 750 655 673 q 458 764 488 764 q 339 716 407 764 l 338 707 l 338 555 l 342 159 l 351 152 l 358 152 q 366 165 363 152 l 370 165 q 430 140 420 165 l 430 123 l 434 80 q 393 1 438 1 q 292 -5 378 -4 l 47 11 q 12 123 28 11 l 12 127 q 88 165 12 142 q 164 190 88 180 q 178 209 178 195 l 190 650 l 193 754 q 157 770 193 770 q 69 761 117 770 q 38 798 38 779 q 43 898 45 892 q 54 932 41 903 q 326 960 165 948 z "},"n":{"ha":1088,"x_min":-15,"x_max":1062,"o":"m 26 954 q 115 947 73 947 l 270 947 l 274 941 q 264 887 264 906 l 264 854 q 293 802 271 802 q 369 842 305 822 q 618 909 519 909 q 757 852 682 909 q 861 764 811 830 q 937 475 937 643 l 937 460 l 925 324 l 937 225 l 918 137 l 918 134 l 920 118 l 991 115 l 1023 115 q 1062 109 1054 115 q 1032 -28 1051 -28 q 951 -50 997 -50 l 913 -50 q 723 -75 826 -50 q 656 -8 656 -66 l 654 57 q 685 149 654 121 q 726 317 701 239 l 738 484 q 742 526 742 484 q 662 671 742 575 q 590 697 602 697 q 393 605 483 697 q 302 513 387 605 q 274 387 274 491 q 289 197 278 197 q 362 168 362 183 l 362 159 l 365 134 q 377 90 377 121 l 377 87 q 358 -8 377 43 l 140 -12 q 92 20 104 -12 q 75 159 83 58 q 132 182 75 170 l 141 194 l 141 197 q 125 228 141 206 l 127 286 l 127 393 l 134 567 q 118 745 134 745 l 109 745 l 20 732 q -15 757 7 732 l -15 764 q -5 795 -5 776 l -8 864 l 20 949 l 26 954 z "},"o":{"ha":949,"x_min":14,"x_max":925,"o":"m 574 876 l 590 876 q 789 749 690 829 q 884 625 884 667 l 882 625 l 891 591 l 894 591 q 907 537 898 590 l 922 499 l 920 475 l 925 407 q 901 283 916 377 q 726 15 892 247 q 578 -56 652 -56 q 429 -65 505 -65 l 393 -65 q 225 -11 359 -65 q 54 224 54 144 q 14 319 30 277 q 65 480 14 340 q 106 601 65 567 q 330 848 193 792 q 521 891 446 891 l 574 876 m 182 300 l 182 288 q 239 179 203 243 q 311 125 239 160 q 438 65 345 87 l 472 61 q 595 96 551 77 l 663 153 q 765 342 768 266 l 765 359 q 754 458 754 391 q 761 541 754 507 q 689 608 761 552 q 578 699 635 681 l 556 699 q 336 663 336 690 q 267 566 288 614 q 208 483 208 505 q 182 300 191 414 z "},"p":{"ha":975,"x_min":30,"x_max":944,"o":"m 142 962 l 146 962 q 247 935 209 962 q 279 924 279 930 l 279 918 l 286 895 q 313 880 290 886 l 361 883 l 381 878 l 526 909 l 532 909 q 788 783 674 873 q 925 601 909 662 q 944 513 944 534 q 899 288 918 288 q 814 161 831 176 l 798 146 l 802 140 l 802 137 q 732 85 768 96 q 712 50 716 73 q 624 23 686 23 q 437 -22 487 -22 q 355 9 415 -22 q 266 19 308 19 l 254 12 q 266 -88 266 -7 l 266 -114 l 279 -199 l 282 -332 l 282 -351 q 315 -396 282 -396 l 327 -408 l 327 -411 q 315 -425 315 -411 q 342 -494 342 -450 l 353 -529 q 285 -538 324 -538 l 153 -529 q 114 -556 119 -556 q 33 -463 72 -544 l 30 -461 l 33 -453 q 30 -415 30 -425 l 33 -408 l 58 -392 q 99 -373 71 -373 q 106 -282 106 -366 l 106 -148 q 95 23 106 -103 l 95 735 l 92 795 l 45 795 l 38 802 l 35 906 q 83 954 35 954 q 142 962 95 960 m 389 707 l 351 688 l 351 684 l 361 684 l 362 686 l 365 686 l 368 684 l 368 681 q 270 612 286 643 q 254 260 263 612 l 251 235 q 334 165 251 228 l 412 130 q 422 118 416 119 l 429 118 q 557 159 486 118 q 640 203 585 184 q 738 351 738 282 l 738 380 l 732 406 l 732 408 l 747 427 l 747 434 q 731 479 731 441 q 693 586 731 545 q 628 669 674 635 q 529 712 614 692 l 513 712 l 425 705 l 419 705 q 389 707 403 705 z "},"q":{"ha":1006,"x_min":22,"x_max":1152,"o":"m 560 907 q 731 810 640 907 q 781 747 769 781 l 784 747 q 803 895 803 747 l 804 898 q 810 905 804 905 l 812 905 q 826 890 812 892 q 956 898 886 898 l 971 898 l 975 892 q 956 841 956 854 l 955 776 q 983 -137 955 477 l 983 -159 q 966 -355 983 -289 l 966 -399 q 973 -429 966 -422 q 981 -441 981 -435 l 981 -446 l 985 -446 q 1076 -420 1008 -446 l 1085 -420 q 1152 -498 1116 -426 l 1146 -572 l 1146 -579 q 1133 -598 1146 -598 l 1111 -598 q 829 -610 1004 -598 q 791 -579 791 -605 l 800 -519 l 800 -515 l 795 -479 l 803 -463 q 791 -336 791 -406 l 791 -323 q 803 -263 791 -305 l 795 -216 l 800 -202 l 795 -184 l 800 -168 q 791 28 791 -118 l 791 85 l 793 130 q 785 142 789 142 q 595 -4 768 142 q 475 -38 548 -38 l 439 -42 q 126 102 274 -42 l 35 301 l 22 427 q 123 705 34 532 q 262 838 153 762 q 477 898 281 859 l 560 907 m 174 471 l 174 420 q 199 273 174 335 q 252 152 214 190 q 408 64 369 64 l 425 64 q 557 114 518 64 q 731 338 731 270 q 747 453 747 401 q 671 708 747 632 q 477 785 571 785 q 332 727 454 785 l 244 655 q 178 534 178 575 q 174 471 174 534 z "},"r":{"ha":941,"x_min":30,"x_max":909,"o":"m 732 879 q 856 774 806 879 q 883 750 867 774 l 909 610 q 808 589 892 589 l 789 589 q 719 636 719 598 q 675 708 719 663 q 595 718 670 718 q 422 680 521 718 q 327 563 354 610 q 336 159 340 221 q 359 142 336 142 l 406 142 q 435 133 435 141 l 435 130 l 442 104 l 438 0 l 427 -15 l 339 -23 l 331 -23 l 293 -35 q 77 -19 77 -28 q 39 15 39 -19 q 35 85 35 41 q 109 133 35 121 q 159 148 109 148 l 165 149 l 165 152 l 153 667 q 130 715 153 715 l 118 715 q 42 696 95 715 l 39 699 l 39 703 q 54 712 39 707 l 54 715 q 35 822 35 715 q 30 854 33 822 q 187 914 107 914 l 235 914 q 330 895 259 914 l 332 888 q 315 850 315 865 l 315 838 q 732 879 467 907 z "},"s":{"ha":1040,"x_min":30,"x_max":1010,"o":"m 416 1137 q 697 1080 467 1137 q 825 1029 808 1029 q 840 1082 840 1047 l 840 1085 l 837 1099 q 872 1123 837 1123 q 936 1139 895 1139 q 993 1127 993 1139 l 1010 949 l 1010 895 q 991 814 1010 827 q 964 798 974 798 q 860 826 860 806 q 793 892 844 872 l 533 982 l 480 985 q 369 949 387 985 q 346 868 346 918 l 346 867 q 454 696 346 764 q 618 651 585 662 q 694 638 652 640 q 798 597 736 636 q 967 439 859 559 l 974 430 l 974 425 q 963 420 974 420 l 963 418 q 989 351 989 365 q 935 137 989 180 q 831 38 913 88 q 650 -43 741 -43 l 585 -43 q 435 -5 435 -20 q 336 54 351 54 q 208 145 244 99 l 201 145 q 163 80 176 80 q 43 121 43 98 q 30 285 34 146 l 49 401 q 65 465 49 465 l 184 479 q 210 374 198 479 l 264 279 q 431 165 264 273 q 549 118 475 118 l 616 118 q 751 183 713 118 q 815 320 798 231 l 815 326 q 720 463 815 381 q 613 510 677 510 q 445 545 583 526 l 293 624 l 220 686 q 170 788 174 758 l 172 819 l 165 892 q 198 954 165 918 q 289 1057 198 977 q 388 1130 373 1101 l 416 1137 z "},"t":{"ha":841,"x_min":16,"x_max":785,"o":"m 444 1514 q 513 1492 487 1514 q 481 1302 491 1438 l 465 1130 q 538 1115 465 1115 q 762 1096 762 1115 q 785 1084 769 1096 q 766 1048 766 1057 l 766 1042 l 783 1006 q 774 883 785 905 l 774 880 l 709 887 l 709 892 l 703 894 l 576 892 l 471 894 q 452 788 463 894 l 449 788 l 444 764 l 449 776 l 452 769 l 437 590 q 477 199 461 199 q 525 140 484 140 q 576 127 548 127 l 610 127 l 722 133 q 736 33 730 133 q 670 -27 745 -27 l 525 -31 q 326 35 403 -31 q 273 149 273 56 q 259 450 266 224 l 282 707 l 288 818 l 288 833 q 243 911 275 911 l 187 913 l 121 913 q 62 899 94 913 q 16 949 43 902 l 54 1118 q 282 1127 54 1124 q 309 1188 282 1153 q 328 1481 316 1481 l 328 1488 q 320 1492 328 1492 l 320 1497 q 444 1514 320 1504 z "},"u":{"ha":1111,"x_min":7,"x_max":1085,"o":"m 171 935 l 300 892 q 323 830 304 861 l 326 811 q 317 309 309 696 q 361 237 317 254 l 374 206 q 500 186 374 194 l 507 186 q 605 271 545 186 q 665 342 652 319 l 674 342 l 674 354 l 671 363 q 688 414 681 380 l 690 415 l 690 433 l 724 791 l 724 823 l 719 842 l 719 845 q 741 892 741 860 q 754 914 741 910 l 798 892 l 840 892 q 947 860 914 892 l 947 852 q 956 829 952 829 q 966 798 963 819 l 947 563 l 949 560 l 949 557 q 924 330 937 521 l 924 275 q 935 152 924 152 l 943 152 q 1051 168 981 152 q 1085 145 1062 167 q 1063 -23 1078 -23 l 1042 -7 l 985 -12 l 776 -7 q 743 69 760 -7 q 731 92 731 80 l 734 110 l 728 110 q 617 60 713 110 q 487 3 612 47 q 411 -26 456 -14 q 320 7 382 -9 q 175 214 202 123 q 127 510 127 282 l 148 731 l 148 735 q 19 761 148 742 q 7 854 7 779 q 26 906 7 906 q 171 935 26 928 z "},"v":{"ha":1008,"x_min":-73,"x_max":1053,"o":"m 195 944 q 334 894 334 928 l 343 882 l 343 859 l 363 834 q 343 799 343 817 q 357 789 347 789 l 357 787 l 345 774 l 331 774 q 232 777 312 789 l 274 625 q 368 388 327 435 q 510 138 471 149 l 514 138 q 557 232 522 138 q 669 471 624 351 q 700 545 700 526 l 812 796 l 681 785 l 675 785 q 711 951 669 951 q 947 970 760 970 q 1032 906 1032 970 q 1053 861 1053 873 q 1023 804 1023 836 l 954 792 q 891 659 944 777 q 758 403 876 613 l 707 248 q 590 14 594 14 q 586 1 586 14 l 586 -14 l 587 -15 q 538 -49 587 -45 l 502 -71 q 435 -43 476 -71 q 343 87 388 26 q 301 170 320 170 q 270 264 289 184 q 198 378 224 343 q 206 395 198 387 l 206 403 l 175 480 q 134 590 148 582 q 49 768 71 768 q 24 758 49 760 q -52 789 -8 758 l -52 793 l -46 802 l -46 808 q -71 827 -46 812 l -73 830 l -73 831 q -30 849 -30 840 l -56 863 l -58 865 l -58 869 l -46 887 q -58 907 -46 895 l -58 913 q 195 944 153 944 z "},"w":{"ha":1245,"x_min":12,"x_max":1298,"o":"m 1012 1035 q 1290 998 1290 1032 l 1298 937 q 1279 856 1284 913 l 1267 849 l 1185 861 l 1180 861 q 1138 724 1172 861 q 1074 399 1112 563 q 1034 165 1059 206 q 989 -41 1017 114 l 981 -43 q 960 -38 975 -38 l 960 -35 l 932 -38 l 848 -38 q 789 -24 793 -35 l 789 -22 q 777 -5 789 -15 q 742 85 754 22 q 705 270 705 197 q 682 346 699 270 q 642 538 682 396 q 637 545 642 545 q 587 396 631 544 q 487 98 514 165 q 449 66 476 83 l 449 61 q 477 28 477 43 q 411 9 471 14 q 281 14 296 -12 q 271 73 271 28 l 274 95 q 229 437 274 239 q 205 544 220 510 l 210 608 l 210 610 q 195 849 210 849 q 62 857 195 853 q 12 921 33 857 l 12 925 q 53 1000 20 959 l 100 997 l 122 997 q 273 989 212 997 q 335 975 335 981 l 335 962 q 353 811 353 930 q 366 496 366 581 l 366 332 q 391 178 366 199 q 449 323 426 178 q 590 678 528 529 l 623 719 l 610 734 l 610 735 q 663 753 610 746 q 773 700 761 761 q 791 563 785 639 q 848 127 827 319 q 863 109 854 113 l 875 109 q 907 155 907 109 q 939 304 922 189 q 1005 1035 981 506 l 1012 1035 z "},"x":{"ha":1176,"x_min":45,"x_max":1175,"o":"m 206 1027 q 439 1008 439 1027 l 434 926 l 434 925 l 575 685 l 582 682 q 680 811 602 696 q 712 850 711 842 q 760 901 727 850 q 788 964 760 940 l 793 960 l 817 991 q 861 1012 817 1009 l 911 1012 q 1175 970 1175 1001 l 1175 935 l 1168 926 l 1173 907 l 1175 897 l 1175 875 l 1168 868 l 1154 868 q 1173 844 1173 852 l 1173 841 l 1158 827 l 1175 818 l 1175 815 l 1171 808 q 892 827 1076 827 q 736 644 810 741 q 655 545 655 560 q 731 407 669 507 q 829 232 742 376 q 924 176 829 206 q 962 167 940 167 l 1095 172 l 1108 148 l 1108 125 q 1101 109 1101 115 q 1107 81 1101 99 q 1092 4 1112 62 q 1069 -5 1081 -5 q 795 8 937 8 l 772 8 l 743 1 l 727 1 l 715 4 l 715 5 l 705 27 l 699 27 q 681 118 681 30 q 684 163 681 125 q 690 176 690 168 q 575 407 629 342 l 566 407 q 503 308 540 399 q 439 191 468 255 q 404 153 422 153 l 423 115 l 442 94 l 434 68 l 439 49 l 439 43 l 401 -1 l 401 -4 l 404 -20 l 396 -23 l 338 -18 l 320 -18 q 168 -13 274 -18 q 62 -27 62 -8 l 60 -30 l 50 -30 l 53 1 l 45 23 q 60 106 56 23 q 79 119 68 117 q 95 141 79 141 l 244 167 q 269 198 256 172 q 301 245 279 198 q 316 290 328 279 l 316 296 q 332 327 332 309 q 404 423 378 396 l 490 547 q 437 628 490 553 q 292 841 323 821 q 164 853 292 845 q 79 872 79 863 q 85 1005 85 975 q 206 1027 104 1027 z "},"y":{"ha":1035,"x_min":41,"x_max":1028,"o":"m 349 872 q 347 751 373 751 q 414 534 320 750 q 480 382 457 426 q 552 250 532 250 q 571 225 556 250 l 574 222 l 593 222 q 663 387 614 222 q 758 728 860 749 q 764 859 768 803 l 773 864 q 1017 846 1017 860 q 1028 749 1028 846 q 994 693 1015 693 q 979 688 955 696 l 967 688 q 894 526 894 563 q 834 396 869 435 q 745 164 774 225 q 718 66 732 151 l 637 -66 q 476 -319 578 -198 l 385 -380 q 296 -395 328 -395 q 156 -368 156 -395 q 132 -313 141 -358 q 62 -117 106 -290 l 62 -114 q 100 -95 62 -95 q 213 -60 133 -95 q 281 -233 237 -60 q 302 -273 294 -273 l 317 -273 q 347 -228 334 -267 q 422 -130 357 -228 q 483 -19 452 -68 l 488 3 l 488 41 q 448 126 487 69 q 388 247 407 199 q 187 688 298 490 q 170 694 178 694 l 54 690 l 49 694 l 46 758 l 41 840 l 75 853 l 260 871 l 263 871 l 296 868 l 349 872 z "},"z":{"ha":983,"x_min":35,"x_max":971,"o":"m 823 967 q 878 954 823 958 q 887 830 887 909 q 864 792 887 819 q 783 689 823 751 q 267 193 608 522 q 252 156 252 165 l 258 152 l 419 146 l 613 146 l 764 156 l 765 191 l 774 278 q 914 278 892 294 q 948 104 952 278 q 821 -3 971 -11 l 821 3 l 837 3 q 680 4 808 12 q 412 -7 585 -7 q 87 23 152 -7 q 53 71 53 23 q 39 231 47 90 l 229 389 q 598 689 517 581 l 656 758 l 656 768 q 336 787 393 787 l 228 787 l 228 773 q 213 735 228 764 l 206 707 l 206 704 l 209 651 l 199 647 l 130 642 q 35 675 35 659 q 64 875 47 675 q 73 945 66 926 l 76 945 l 146 932 q 780 955 264 943 l 823 967 z "},"{":{"ha":598,"x_min":53,"x_max":659,"o":"m 403 1421 q 545 1390 556 1449 l 563 1366 q 545 1274 559 1298 l 545 1270 q 518 1238 532 1248 l 514 1238 q 492 1251 503 1251 l 483 1251 q 441 1234 473 1251 q 404 1200 416 1234 l 397 1196 l 395 1187 l 397 1179 q 350 795 350 890 l 350 700 q 312 633 350 643 l 251 551 l 251 543 q 308 448 251 532 l 308 431 l 296 311 l 315 241 l 315 237 l 305 172 l 305 156 q 340 -66 305 8 q 502 -122 399 -122 l 547 -122 q 642 -113 598 -122 q 659 -132 656 -113 l 659 -133 l 659 -195 l 659 -208 q 587 -217 659 -217 l 502 -218 l 416 -218 l 397 -221 l 378 -218 l 347 -218 q 274 -195 274 -218 q 227 -91 250 -122 q 201 52 210 -60 l 195 77 q 192 120 195 85 q 189 182 189 155 q 214 228 189 212 l 214 229 l 205 248 l 208 323 l 208 349 l 201 381 l 213 396 l 213 400 q 165 469 213 420 q 110 555 130 513 q 53 640 75 594 q 72 652 54 646 l 72 665 l 77 665 l 103 662 q 144 707 113 662 q 239 795 168 719 q 270 854 270 807 q 315 1253 298 1074 q 328 1321 326 1253 l 403 1421 z "},"}":{"ha":589,"x_min":18,"x_max":559,"o":"m 282 1317 q 369 1282 349 1317 l 377 1244 q 397 1142 397 1176 l 397 1047 l 393 854 q 460 728 393 811 q 557 601 460 713 l 559 593 q 505 479 559 556 q 445 336 445 382 q 426 149 434 270 q 372 -110 395 -37 q 113 -233 281 -233 l 109 -233 q 18 -206 50 -233 l 18 -199 l 39 -195 l 39 -190 q 27 -171 27 -178 q 52 -126 27 -156 l 49 -110 q 68 -83 68 -110 l 77 -76 l 83 -76 l 194 -92 l 198 -92 q 289 -12 269 -62 q 312 42 289 -1 q 346 235 324 69 q 359 430 346 403 q 340 460 346 444 l 381 513 q 396 567 396 533 q 330 620 336 606 q 282 741 282 703 l 279 764 l 289 876 l 277 1085 q 298 1101 277 1101 l 298 1105 q 267 1162 283 1139 l 267 1175 l 260 1175 q 239 1165 260 1165 q 96 1153 183 1165 q 77 1237 77 1179 l 77 1241 q 99 1305 77 1305 q 282 1317 109 1314 z "},"":{"ha":401,"x_min":69,"x_max":338,"o":"m 307 1039 q 227 941 229 956 l 225 935 l 160 863 l 144 844 l 69 886 l 144 987 q 142 983 142 985 q 152 1000 148 998 l 282 1141 q 338 1103 317 1126 l 307 1039 m 175 884 l 172 884 l 175 884 z "},"":{"ha":533,"x_min":50,"x_max":495,"o":"m 50 821 l 103 917 q 121 949 110 920 l 134 971 l 134 972 q 130 978 130 975 q 164 1010 142 989 q 176 1036 171 1034 q 194 1061 184 1036 q 240 1099 220 1080 q 289 1104 258 1107 l 304 1097 q 324 1088 324 1096 l 323 1088 l 323 1084 l 326 1080 q 380 1005 327 1080 l 401 962 q 457 888 452 902 l 495 821 l 420 800 q 353 898 385 845 q 302 981 321 951 q 277 1020 283 1010 l 220 945 q 149 795 201 920 l 50 821 z "},"":{"ha":544,"x_min":80,"x_max":467,"o":"m 167 1029 q 228 902 212 924 l 277 840 q 300 873 283 848 q 344 943 316 898 q 401 1025 372 987 l 467 1008 l 434 951 q 385 888 429 939 l 366 852 q 319 789 320 789 q 317 785 317 789 l 317 783 l 319 783 q 301 774 319 776 l 288 769 q 245 773 260 766 q 205 806 228 789 q 190 826 197 826 q 179 848 186 829 q 149 875 160 865 q 153 880 149 878 l 153 880 l 141 899 q 126 926 132 924 l 80 1008 l 167 1029 z "},"~":{"ha":464,"x_min":27,"x_max":457,"o":"m 30 916 q 57 941 41 920 q 97 970 87 966 q 117 975 107 975 l 144 974 l 155 975 q 191 964 165 975 l 214 945 l 243 909 q 271 863 260 892 l 321 837 l 323 837 q 374 856 355 844 q 396 891 397 867 l 396 907 q 381 918 397 907 q 444 920 422 940 q 452 881 448 920 q 427 818 457 842 q 392 792 410 799 q 313 774 376 777 q 289 780 309 774 l 288 780 q 288 777 289 777 l 286 777 l 281 779 q 229 819 237 804 q 220 838 229 834 q 203 859 210 860 l 195 883 q 133 909 170 910 l 132 909 q 102 903 114 909 q 90 872 90 897 l 91 860 q 49 838 84 861 q 27 909 27 895 l 30 916 m 85 857 q 83 854 91 857 l 83 854 l 85 857 m 420 930 q 423 930 426 930 l 420 930 z "},"":{"ha":1157,"x_min":104,"x_max":1063,"o":"m 203 263 q 285 233 260 254 q 292 199 292 217 l 292 174 q 203 26 292 96 l 180 16 q 104 123 141 16 l 104 133 q 130 233 104 214 q 203 263 183 263 m 590 263 q 670 233 647 254 q 678 199 678 217 l 678 174 q 590 26 678 96 l 566 16 q 490 123 526 16 l 490 133 q 517 233 490 214 q 590 263 570 263 m 975 263 q 1057 233 1032 254 q 1063 199 1063 217 l 1063 174 q 975 26 1063 96 l 952 16 q 876 123 913 16 l 876 133 q 902 233 876 214 q 975 263 955 263 z "},"":{"ha":1157,"x_min":194,"x_max":711,"o":"m 294 1166 q 374 1135 351 1157 q 382 1103 382 1119 l 382 1076 q 294 963 382 1000 l 270 954 q 194 1027 231 954 l 194 1036 q 221 1135 194 1118 q 294 1166 274 1166 m 623 1157 q 704 1126 680 1147 q 711 1093 711 1109 l 711 1066 q 623 954 711 990 l 600 944 q 524 1017 560 944 l 524 1027 q 549 1126 524 1108 q 623 1157 602 1157 z "},"":{"ha":764,"x_min":35,"x_max":886,"o":"m 525 1276 l 534 1279 q 712 1232 581 1276 q 736 1219 724 1219 l 747 1223 l 836 1109 q 867 1043 867 1065 q 886 935 886 985 q 817 884 886 884 q 757 901 798 884 l 755 901 q 743 880 749 901 l 738 880 q 709 954 728 880 q 648 1108 656 1105 q 538 1124 623 1124 l 534 1124 l 389 1089 q 338 1042 338 1053 q 357 785 338 785 q 522 757 401 757 q 544 738 544 750 q 579 673 579 707 q 465 593 579 593 l 461 593 q 399 614 433 593 l 387 616 q 349 605 349 612 l 349 350 q 349 -133 349 290 l 345 -187 l 345 -239 q 456 -267 345 -251 l 456 -393 q 244 -377 319 -377 l 91 -380 q 83 -351 83 -370 l 83 -311 q 76 -228 83 -252 q 107 -213 76 -213 q 180 -229 126 -213 l 209 -229 q 233 -218 228 -229 l 233 -216 q 225 286 216 -174 q 216 362 216 332 l 216 368 q 240 605 216 420 q 206 614 240 612 l 199 614 q 64 590 118 590 l 35 595 q 60 770 43 770 q 73 777 62 777 l 83 777 q 228 787 228 780 q 226 956 228 906 q 224 1034 224 1006 l 224 1042 l 214 1074 l 214 1077 q 266 1150 237 1120 l 354 1241 q 525 1276 434 1276 z "},"":{"ha":345,"x_min":62,"x_max":316,"o":"m 224 779 q 107 838 163 779 q 72 964 72 883 q 62 983 65 964 l 62 985 q 79 1051 62 998 l 107 1135 l 171 1215 q 208 1171 208 1191 q 183 1051 199 1101 l 183 1044 q 212 1009 183 1019 q 313 902 313 955 l 316 890 q 224 779 304 779 z "},"":{"ha":345,"x_min":62,"x_max":316,"o":"m 155 1215 q 271 1156 216 1215 q 307 1029 307 1111 q 316 1010 313 1029 l 316 1009 q 300 943 316 996 l 271 859 l 208 779 q 171 823 171 803 q 195 943 179 892 l 195 949 q 167 985 195 975 q 65 1092 65 1039 l 62 1104 q 155 1215 75 1215 m 160 1001 l 160 997 l 160 1001 z "},"":{"ha":617,"x_min":58,"x_max":578,"o":"m 248 791 q 156 803 203 791 q 81 898 81 849 q 58 1005 68 936 l 91 1192 q 146 1246 102 1225 l 151 1246 l 153 1240 l 151 1237 l 151 1218 q 176 1043 176 1137 l 182 1009 q 286 955 240 1009 q 327 869 308 945 q 312 819 327 842 l 251 791 l 251 788 l 248 791 m 300 926 q 300 926 301 860 m 499 901 l 502 898 l 502 901 l 483 913 l 483 916 l 563 929 q 578 979 578 952 q 525 1087 559 1055 q 433 1119 491 1119 l 427 1153 q 401 1328 427 1246 l 401 1347 l 404 1350 l 401 1356 l 397 1356 q 342 1302 353 1335 l 309 1115 q 332 1008 319 1046 q 407 913 332 959 q 499 901 454 901 m 556 996 q 556 996 552 970 z "},"":{"ha":617,"x_min":58,"x_max":537,"o":"m 362 1339 q 446 1328 403 1339 q 515 1238 515 1284 q 537 1137 528 1202 l 506 959 q 456 906 496 926 l 452 906 l 449 913 l 452 916 l 452 933 q 427 1100 427 1010 l 437 1130 l 437 1131 l 423 1131 q 327 1184 369 1131 q 289 1265 307 1192 q 302 1312 289 1291 q 377 1325 377 1317 l 377 1328 l 359 1339 l 359 1341 l 362 1339 m 71 1207 q 66 1137 58 1187 q 95 1080 75 1088 q 191 1027 138 1027 l 205 1027 l 205 1025 l 197 996 q 220 829 197 906 l 220 811 l 218 808 l 220 802 l 224 802 q 275 854 264 822 l 305 1032 q 283 1134 296 1097 q 216 1223 283 1180 q 71 1207 172 1234 z "},"":{"ha":1043,"x_min":35,"x_max":1096,"o":"m 525 1276 l 534 1279 q 712 1232 581 1276 q 736 1219 724 1219 l 747 1223 l 836 1109 q 867 1043 867 1065 q 886 935 886 985 q 817 884 886 884 q 757 901 798 884 l 755 901 q 743 880 749 901 l 738 880 q 709 954 728 880 q 648 1108 656 1105 q 538 1124 623 1124 l 534 1124 l 389 1089 q 338 1042 338 1053 q 357 785 338 785 q 522 757 401 757 q 544 738 544 750 q 579 673 579 707 q 465 593 579 593 l 461 593 q 399 614 433 593 l 387 616 q 349 605 349 612 l 349 350 q 358 232 349 290 l 354 178 l 354 125 q 465 96 354 114 q 585 77 564 96 l 591 71 q 567 -37 581 71 q 490 -27 515 -30 l 465 -30 q 254 -12 328 -12 l 100 -15 q 92 14 92 -7 l 92 54 q 85 137 92 111 q 117 151 85 151 q 190 134 136 151 l 218 134 q 243 146 237 134 l 243 149 q 225 286 225 190 q 216 362 216 332 l 216 368 q 240 605 216 420 q 206 614 240 612 l 199 614 q 64 590 118 590 l 35 595 q 60 770 43 770 q 73 777 62 777 l 83 777 q 228 787 228 780 q 226 956 228 906 q 224 1034 224 1006 l 224 1042 l 214 1074 l 214 1077 q 266 1150 237 1120 l 354 1241 q 525 1276 434 1276 m 899 1316 q 1004 1249 964 1316 l 1016 1187 q 975 1095 1013 1156 q 899 1070 949 1070 q 752 1107 781 1070 q 726 1211 723 1143 q 719 1215 719 1211 l 719 1218 q 836 1306 774 1306 q 899 1316 850 1312 m 646 947 q 684 935 662 935 l 707 945 q 963 930 963 945 l 966 918 l 966 886 q 981 812 981 850 l 981 784 q 952 285 962 522 q 944 247 945 274 q 962 237 948 237 l 968 237 q 1070 214 1070 237 l 1067 212 l 1067 199 q 1089 57 1089 155 l 1096 -19 l 1092 -23 l 1009 -26 l 821 -26 q 608 7 608 -26 q 598 47 608 27 q 617 69 604 62 l 621 69 q 612 100 612 85 l 610 117 l 610 138 l 605 186 q 747 206 605 206 q 766 290 766 206 l 788 785 l 785 785 q 736 799 715 785 q 624 825 624 799 q 617 840 617 827 l 627 863 q 614 882 627 869 l 614 884 q 636 944 631 895 l 639 947 l 646 947 z "},"":{"ha":1359,"x_min":35,"x_max":1123,"o":"m 525 1276 l 534 1279 q 712 1232 581 1276 q 736 1219 724 1219 l 747 1223 l 836 1109 q 867 1043 867 1065 q 886 935 886 985 q 817 884 886 884 q 757 901 798 884 l 755 901 q 743 880 749 901 l 738 880 q 709 954 728 880 q 648 1108 656 1105 q 538 1124 623 1124 l 534 1124 l 389 1089 q 338 1042 338 1053 q 357 785 338 785 q 522 757 401 757 q 544 738 544 750 q 579 673 579 707 q 465 593 579 593 l 461 593 q 399 614 433 593 l 387 616 q 349 605 349 612 l 349 350 q 358 232 349 290 l 354 178 l 354 125 q 465 96 354 114 q 585 77 564 96 l 591 71 q 567 -37 581 71 q 490 -27 515 -30 l 465 -30 q 254 -12 328 -12 l 100 -15 q 92 14 92 -7 l 92 54 q 85 137 92 111 q 117 151 85 151 q 190 134 136 151 l 218 134 q 243 146 237 134 l 243 149 q 225 286 225 190 q 216 362 216 332 l 216 368 q 240 605 216 420 q 206 614 240 612 l 199 614 q 64 590 118 590 l 35 595 q 60 770 43 770 q 73 777 62 777 l 83 777 q 228 787 228 780 q 226 956 228 906 q 224 1034 224 1006 l 224 1042 l 214 1074 l 214 1077 q 266 1150 237 1120 l 354 1241 q 525 1276 434 1276 m 680 1390 l 757 1371 l 880 1377 q 928 1348 928 1377 q 917 1158 917 1279 l 917 861 l 914 579 l 917 503 l 907 145 q 1101 121 959 130 l 1104 118 l 1104 92 q 1123 61 1104 81 q 1076 -72 1101 14 l 1059 -85 l 1054 -85 q 1006 -69 1042 -69 l 699 -26 q 557 -9 557 -26 q 591 137 581 35 l 595 137 l 595 140 l 613 137 l 632 137 q 686 152 647 145 q 715 142 704 142 l 736 142 q 755 180 755 142 q 774 593 762 245 q 753 1215 762 705 q 734 1227 743 1227 l 648 1222 q 627 1237 627 1225 q 651 1383 636 1383 l 680 1390 z "},"":{"ha":972,"x_min":-54,"x_max":952,"o":"m 99 1297 q 358 1263 250 1297 l 391 1261 l 415 1263 l 419 1253 l 418 1145 q 403 1133 414 1133 q 336 1142 326 1142 l 336 1139 q 292 1128 336 1133 l 282 761 l 282 723 l 278 217 l 278 186 q 385 170 278 170 l 746 170 l 807 165 q 826 270 815 165 q 842 296 831 296 q 952 274 952 293 q 947 246 945 258 q 949 220 949 235 q 936 106 949 182 l 936 77 l 937 68 q 928 30 928 47 q 911 5 924 30 q 831 -8 872 -8 l 823 -8 l 661 5 l 652 5 l 282 -8 l 22 15 q 7 39 7 27 q 54 151 22 151 q 129 165 62 159 q 130 712 152 229 q 149 1104 140 811 l 149 1123 q 109 1152 149 1152 l 92 1154 l 92 1161 q 66 1168 79 1168 l 58 1168 q 39 1211 39 1179 l 39 1218 q 64 1271 39 1260 q 77 1290 69 1271 l 99 1297 m 484 746 q 506 598 495 746 l 509 598 q 316 566 509 578 q 38 521 100 521 l 38 525 q 24 525 38 541 l 9 518 q -54 651 -54 518 q 92 703 -54 686 q 111 708 92 707 l 149 701 l 167 701 l 475 746 l 484 746 z "},"":{"ha":595,"x_min":7,"x_max":581,"o":"m 129 1413 l 206 1394 l 330 1400 q 377 1371 377 1400 q 366 1181 366 1302 l 366 884 l 363 602 l 366 526 l 357 168 q 551 144 408 153 l 553 141 l 553 115 q 572 84 553 104 q 525 -49 551 37 l 509 -62 l 503 -62 q 456 -46 491 -46 l 148 -3 q 7 14 7 -3 q 41 160 30 58 l 45 160 l 45 163 l 62 160 l 81 160 q 136 175 96 168 q 164 165 153 165 l 186 165 q 205 203 205 165 q 224 616 212 269 q 202 1238 212 728 q 183 1251 193 1251 l 98 1245 q 76 1260 76 1248 q 100 1407 85 1407 l 129 1413 m 556 666 q 578 518 567 666 l 581 518 q 388 486 581 498 q 110 441 172 441 l 110 445 q 96 445 110 461 l 81 438 q 18 571 18 438 q 164 623 18 606 q 183 628 164 627 l 221 621 l 239 621 l 547 666 l 556 666 z "},"":{"ha":929,"x_min":27,"x_max":903,"o":"m 675 1215 l 780 1219 q 811 1202 811 1215 q 806 1176 806 1192 q 815 1160 815 1165 l 815 1108 l 815 1103 l 818 1100 q 734 960 818 1058 q 675 849 704 917 q 628 764 666 842 q 438 435 525 609 q 388 359 431 434 q 271 178 335 293 l 271 175 q 293 165 274 165 l 297 165 l 476 178 q 705 159 563 178 q 741 274 722 159 l 751 262 q 777 290 761 282 q 873 289 878 273 q 903 20 892 286 q 492 14 857 22 l 224 -11 q 174 -20 202 -20 l 134 -5 l 88 -12 l 84 -12 q 27 8 34 -12 l 31 18 l 30 39 q 205 330 33 106 q 326 517 209 343 q 591 928 458 741 q 675 1027 609 952 l 677 1036 q 637 1043 669 1043 l 632 1043 q 350 1010 543 1043 l 340 1010 l 243 1017 l 229 985 l 240 878 q 117 846 240 857 q 94 937 94 901 l 91 979 l 91 1005 l 96 1127 l 84 1156 q 113 1188 91 1156 q 179 1166 121 1196 q 435 1196 399 1196 q 675 1215 647 1207 m 164 1188 l 164 1185 q 164 1188 164 1175 m 336 1535 q 397 1408 381 1430 l 446 1345 q 469 1379 453 1354 q 513 1449 486 1404 q 571 1531 541 1493 l 636 1514 l 604 1457 q 555 1394 598 1444 l 536 1358 q 488 1295 490 1295 q 487 1291 487 1295 l 487 1289 l 488 1289 q 471 1280 488 1282 l 457 1275 q 415 1279 430 1272 q 374 1312 397 1295 q 359 1332 366 1332 q 349 1354 355 1335 q 319 1381 330 1371 q 323 1386 319 1383 l 323 1386 l 311 1405 q 296 1432 301 1430 l 250 1514 l 336 1535 z "},"":{"ha":983,"x_min":35,"x_max":971,"o":"m 823 967 q 878 954 823 958 q 887 830 887 909 q 864 792 887 819 q 783 689 823 751 q 267 193 608 522 q 252 156 252 165 l 258 152 l 419 146 l 613 146 l 764 156 l 765 191 l 774 278 q 914 278 892 294 q 948 104 952 278 q 821 -3 971 -11 l 821 3 l 837 3 q 680 4 808 12 q 412 -7 585 -7 q 87 23 152 -7 q 53 71 53 23 q 39 231 47 90 l 229 389 q 598 689 517 581 l 656 758 l 656 768 q 336 787 393 787 l 228 787 l 228 773 q 213 735 228 764 l 206 707 l 206 704 l 209 651 l 199 647 l 130 642 q 35 675 35 659 q 64 875 47 675 q 73 945 66 926 l 76 945 l 146 932 q 780 955 264 943 l 823 967 m 372 1335 q 433 1207 416 1229 l 481 1145 q 505 1178 488 1153 q 549 1248 521 1203 q 606 1331 576 1293 l 671 1313 l 639 1256 q 590 1194 633 1244 l 571 1157 q 524 1095 525 1095 q 522 1090 522 1095 l 522 1088 l 524 1088 q 506 1080 524 1081 l 492 1074 q 450 1078 465 1072 q 410 1111 433 1095 q 395 1131 401 1131 q 384 1153 391 1134 q 354 1180 365 1171 q 358 1185 354 1183 l 358 1185 l 346 1204 q 331 1232 336 1229 l 285 1313 l 372 1335 z "},"":{"ha":895,"x_min":-30,"x_max":810,"o":"m 401 1295 l 528 1271 q 635 1217 559 1271 l 642 1217 q 656 1290 647 1290 q 723 1270 711 1270 l 762 1270 l 791 1271 l 796 1267 l 793 1255 l 793 1015 q 781 979 793 993 q 796 951 796 966 q 784 918 796 937 l 789 887 q 777 865 789 865 l 730 871 l 727 871 l 701 865 l 699 865 q 673 947 690 865 q 651 994 673 972 q 625 1042 625 1031 l 637 1046 l 637 1048 q 604 1099 609 1070 q 471 1175 528 1175 l 458 1175 q 271 1137 435 1175 q 221 1065 259 1130 q 186 975 186 1016 q 214 853 197 853 q 274 776 240 791 q 319 758 279 765 q 430 697 346 734 l 449 688 l 471 694 q 486 688 486 692 l 486 685 q 629 609 528 675 q 784 425 784 463 q 810 282 810 315 q 780 137 793 137 l 734 58 q 581 -20 604 -20 q 293 54 368 23 q 145 217 145 191 l 138 222 l 136 220 l 136 210 l 134 106 q 68 92 134 92 l 34 94 l 5 83 q -30 103 -11 83 l -30 106 l -20 121 q 12 438 -7 438 l 15 438 l 49 431 l 50 431 q 69 438 60 431 l 94 431 l 107 435 l 113 435 q 148 381 119 434 q 277 206 220 292 q 324 156 283 206 l 439 106 l 473 106 l 473 99 l 477 99 l 521 111 l 521 113 q 654 140 524 118 q 713 244 685 140 q 730 293 713 279 l 730 302 q 658 431 700 400 q 486 524 636 472 q 328 612 393 559 q 227 671 241 637 q 141 751 212 699 q 65 913 107 856 q 46 1086 46 990 q 182 1257 61 1147 q 401 1295 250 1295 m 315 1610 q 376 1482 359 1504 l 425 1420 q 448 1453 431 1428 q 492 1523 464 1478 q 549 1606 519 1568 l 614 1588 l 582 1531 q 533 1469 576 1519 l 514 1432 q 467 1370 468 1370 q 465 1366 465 1370 l 465 1363 l 467 1363 q 449 1355 467 1356 l 435 1350 q 393 1354 408 1347 q 353 1386 376 1370 q 338 1407 345 1407 q 327 1428 334 1409 q 297 1455 308 1446 q 301 1461 297 1458 l 301 1461 l 289 1480 q 274 1507 279 1504 l 228 1588 l 315 1610 z "},"":{"ha":1761,"x_min":35,"x_max":1733,"o":"m 617 1309 q 784 1268 760 1283 q 945 1112 920 1184 l 1012 1012 q 1061 715 1035 916 q 1016 449 1046 480 q 955 278 994 362 q 829 56 865 94 q 696 -8 757 -8 q 670 -26 670 -15 l 586 -58 l 575 -56 q 449 -68 494 -68 l 425 -68 q 281 -20 408 -68 q 199 46 250 -8 q 159 100 159 73 q 57 340 107 174 q 38 407 38 395 l 35 438 q 126 891 35 747 q 180 1036 156 933 q 247 1122 191 1055 q 395 1264 247 1169 q 500 1299 395 1272 l 617 1309 m 176 594 l 176 435 q 262 224 176 273 q 370 138 346 138 q 461 103 426 138 l 477 100 l 499 103 l 515 87 l 518 87 q 547 107 529 87 q 665 148 635 121 q 798 293 798 279 l 876 530 q 943 705 921 705 l 945 705 l 945 715 q 921 787 945 736 q 886 971 907 941 q 681 1164 846 1081 q 613 1188 628 1188 l 601 1188 q 509 1152 521 1152 q 503 1135 503 1152 q 376 1040 393 1063 l 285 924 q 225 815 252 883 q 176 594 176 707 m 1192 1303 q 1622 1284 1622 1298 q 1610 1278 1622 1279 l 1610 1274 l 1613 1274 q 1708 1302 1633 1293 l 1717 1303 q 1724 1278 1724 1290 q 1733 1090 1724 1173 l 1698 1017 q 1655 1005 1676 1005 q 1595 1040 1595 1005 l 1595 1046 q 1614 1074 1596 1055 q 1595 1107 1595 1082 q 1567 1141 1595 1141 l 1534 1142 l 1534 1135 l 1519 1133 l 1287 1138 l 1168 1138 q 1049 1130 1044 1138 q 1066 768 1054 1122 q 1088 755 1077 755 l 1101 755 l 1195 761 l 1347 743 q 1367 796 1367 743 q 1413 829 1367 819 l 1427 838 q 1451 644 1451 838 l 1451 568 q 1442 547 1451 549 q 1370 568 1413 559 q 1351 625 1362 568 q 1204 644 1351 644 q 1072 632 1072 644 l 1069 604 l 1081 411 q 1063 186 1076 304 l 1072 183 q 1280 202 1199 191 l 1284 202 q 1553 182 1389 202 l 1557 182 q 1575 201 1569 182 l 1584 201 l 1603 183 l 1605 183 l 1607 193 q 1594 227 1607 227 l 1579 221 q 1550 262 1558 236 q 1619 290 1550 282 q 1667 267 1626 290 q 1689 229 1689 267 q 1698 12 1690 87 l 1693 -7 l 1683 -7 q 1584 11 1667 3 q 917 30 1584 16 q 873 65 873 30 q 867 132 867 71 l 876 172 l 873 191 l 882 201 l 886 201 q 914 183 903 183 l 920 183 q 959 212 959 191 l 948 637 q 929 685 948 651 q 943 1046 935 685 q 949 1084 949 1057 l 955 1131 l 888 1141 l 841 1154 l 817 1152 q 787 1236 787 1152 l 784 1237 q 825 1297 788 1297 l 826 1297 l 1192 1303 z "},"":{"ha":2115,"x_min":-1,"x_max":2101,"o":"m 1077 1185 q 1181 1147 1181 1166 q 1226 1099 1206 1137 q 1337 897 1274 1063 l 1397 789 q 1447 666 1430 666 q 1523 787 1469 666 q 1708 1108 1591 925 q 1743 1138 1743 1124 q 1774 1172 1755 1162 l 1799 1169 q 1857 1184 1828 1181 q 1986 1143 1986 1166 l 1986 1141 l 1988 700 l 1986 578 q 2017 182 1995 511 l 2014 160 q 2058 151 2029 151 q 2098 115 2098 145 l 2101 103 q 2085 -20 2101 -20 l 2082 -20 q 2018 -5 2052 -5 l 1906 -5 q 1733 30 1733 -5 l 1740 77 l 1740 84 q 1725 111 1740 94 l 1725 122 q 1790 144 1725 132 l 1800 156 l 1796 168 l 1796 197 q 1812 289 1796 220 l 1819 298 q 1808 453 1808 316 l 1808 567 l 1809 624 q 1800 678 1800 646 l 1800 707 q 1812 821 1800 747 q 1831 882 1812 842 l 1834 894 q 1819 985 1819 962 l 1815 985 q 1713 844 1784 955 q 1571 606 1638 700 l 1495 498 q 1463 483 1481 483 l 1439 491 q 1411 483 1424 490 q 1385 526 1389 483 q 1325 612 1369 563 q 1211 827 1302 644 l 1191 865 l 1166 909 l 1169 910 l 1131 982 l 1131 970 l 1126 951 l 1126 932 q 1157 220 1157 505 q 1145 210 1154 210 q 1147 163 1147 179 l 1143 140 l 1176 109 l 1185 109 q 1214 115 1200 109 q 1290 87 1290 100 l 1290 80 q 1283 54 1283 69 l 1286 35 l 1286 26 q 1248 -3 1286 -1 l 1230 -8 l 1210 -12 q 983 11 1147 -12 l 936 -3 q 893 20 903 5 q 875 83 883 35 l 869 87 l 869 96 q 945 134 892 134 q 993 151 993 145 l 993 153 l 966 954 q 918 945 948 947 q 875 977 875 945 l 871 1021 l 875 1107 q 764 1124 875 1124 l 650 1124 l 586 1126 q 559 818 567 1126 q 548 473 548 563 l 548 416 q 546 378 548 391 q 548 324 544 365 l 543 296 l 540 296 l 538 298 l 538 309 l 536 163 q 723 122 536 138 q 758 87 758 109 q 742 1 742 56 q 738 -18 738 1 l 730 -23 q 358 -14 529 -14 l 315 -14 l 182 -20 q 165 103 178 -15 l 168 103 l 184 109 l 179 115 l 179 118 q 260 138 179 123 q 393 148 260 146 q 415 270 408 148 l 425 391 q 407 585 407 545 l 387 958 l 387 1005 l 391 1077 l 387 1100 l 393 1115 l 393 1124 q 245 1143 393 1139 q 137 1128 137 1138 q 103 998 121 1086 l 90 986 l 87 989 l 73 989 q 56 982 64 982 l 3 978 q 8 1141 8 1111 l -1 1214 q 27 1240 -1 1238 l 49 1261 l 58 1261 l 75 1240 l 80 1240 q 172 1280 111 1280 l 281 1280 l 543 1255 l 751 1249 l 758 1249 q 966 1261 897 1249 q 982 1172 977 1221 q 1002 1175 990 1175 l 1077 1185 z "},"":{"ha":1040,"x_min":30,"x_max":1010,"o":"m 416 1137 q 697 1080 467 1137 q 825 1029 808 1029 q 840 1082 840 1047 l 840 1085 l 837 1099 q 872 1123 837 1123 q 936 1139 895 1139 q 993 1127 993 1139 l 1010 949 l 1010 895 q 991 814 1010 827 q 964 798 974 798 q 860 826 860 806 q 793 892 844 872 l 533 982 l 480 985 q 369 949 387 985 q 346 868 346 918 l 346 867 q 454 696 346 764 q 618 651 585 662 q 694 638 652 640 q 798 597 736 636 q 967 439 859 559 l 974 430 l 974 425 q 963 420 974 420 l 963 418 q 989 351 989 365 q 935 137 989 180 q 831 38 913 88 q 650 -43 741 -43 l 585 -43 q 435 -5 435 -20 q 336 54 351 54 q 208 145 244 99 l 201 145 q 163 80 176 80 q 43 121 43 98 q 30 285 34 146 l 49 401 q 65 465 49 465 l 184 479 q 210 374 198 479 l 264 279 q 431 165 264 273 q 549 118 475 118 l 616 118 q 751 183 713 118 q 815 320 798 231 l 815 326 q 720 463 815 381 q 613 510 677 510 q 445 545 583 526 l 293 624 l 220 686 q 170 788 174 758 l 172 819 l 165 892 q 198 954 165 918 q 289 1057 198 977 q 388 1130 373 1101 l 416 1137 m 458 1447 q 519 1320 503 1341 l 568 1257 q 591 1291 575 1265 q 635 1360 608 1316 q 693 1443 663 1405 l 758 1426 l 726 1369 q 677 1306 720 1356 l 658 1270 q 610 1207 612 1207 q 609 1203 609 1207 l 609 1200 l 610 1200 q 593 1192 610 1194 l 579 1187 q 537 1191 552 1184 q 496 1223 519 1207 q 481 1244 488 1244 q 471 1265 477 1246 q 441 1293 452 1283 q 445 1298 441 1295 l 445 1298 l 433 1317 q 418 1344 423 1341 l 372 1426 l 458 1447 z "},"":{"ha":1695,"x_min":14,"x_max":1685,"o":"m 574 876 l 590 876 q 789 749 690 829 q 884 625 884 667 l 882 625 l 891 591 l 894 591 q 907 537 898 590 l 922 499 l 920 475 l 925 407 q 901 283 916 377 q 726 15 892 247 q 578 -56 652 -56 q 429 -65 505 -65 l 393 -65 q 225 -11 359 -65 q 54 224 54 144 q 14 319 30 277 q 65 480 14 340 q 106 601 65 567 q 330 848 193 792 q 521 891 446 891 l 574 876 m 182 300 l 182 288 q 239 179 203 243 q 311 125 239 160 q 438 65 345 87 l 472 61 q 595 96 551 77 l 663 153 q 765 342 768 266 l 765 359 q 754 458 754 391 q 761 541 754 507 q 689 608 761 552 q 578 699 635 681 l 556 699 q 336 663 336 690 q 267 566 288 614 q 208 483 208 505 q 182 300 191 414 m 1210 945 q 1402 879 1289 945 q 1499 780 1499 807 q 1573 590 1573 617 l 1575 575 q 1546 486 1546 510 l 1535 483 l 1374 483 q 1321 476 1351 483 q 941 498 1048 498 l 901 498 q 878 452 878 464 q 891 385 891 427 q 913 300 891 312 l 916 290 l 916 289 l 903 293 l 903 289 l 922 270 q 956 208 922 243 q 1090 72 1017 98 q 1233 52 1149 52 q 1286 75 1245 52 q 1428 198 1322 85 l 1428 203 q 1404 210 1428 208 l 1400 220 q 1504 328 1443 304 q 1573 277 1511 320 q 1685 125 1615 210 l 1685 118 q 1596 39 1624 39 l 1590 39 q 1539 87 1590 81 q 1457 24 1529 87 q 1308 -39 1417 -7 q 1134 -65 1181 -65 l 1027 -27 q 861 71 937 -27 q 808 153 829 103 q 766 309 808 165 q 754 414 754 370 l 754 416 q 903 856 754 670 q 991 925 925 902 q 1100 945 1031 936 q 1210 945 1116 952 m 898 625 l 1251 623 l 1270 616 l 1293 618 q 1394 593 1373 593 q 1407 585 1394 587 q 1419 616 1419 600 l 1419 651 q 1324 761 1419 677 q 1226 811 1283 803 l 1162 821 q 958 745 1006 791 q 898 625 939 709 z "},"":{"ha":926,"x_min":-33,"x_max":1055,"o":"m 346 1272 q 355 1265 355 1268 q 346 1146 350 1242 q 302 1133 342 1133 q 435 937 336 1062 l 476 852 q 545 773 499 812 q 631 880 572 795 q 751 1042 680 952 q 783 1108 783 1086 l 774 1114 l 736 1114 q 688 1215 694 1114 q 736 1238 688 1238 q 837 1260 736 1260 l 945 1260 q 1050 1244 1050 1260 q 1055 1200 1055 1232 l 1055 1177 q 1034 1127 1055 1127 q 1012 1116 1023 1127 l 994 1116 q 883 977 929 1032 q 773 838 837 922 q 623 640 629 673 l 623 631 q 635 408 635 609 q 661 140 635 140 l 663 140 l 716 130 l 751 126 l 755 114 l 754 57 l 754 42 l 770 23 l 770 16 q 597 -28 739 -28 q 395 -7 395 -24 l 391 41 l 393 104 q 452 130 393 130 q 502 140 502 133 l 502 142 q 480 563 480 221 q 464 614 476 589 q 441 652 464 632 q 260 971 393 746 q 179 1092 260 978 q 157 1099 170 1099 l 72 1096 q 42 1114 42 1101 l 33 1124 q 18 1105 33 1112 q -1 1143 4 1105 q -33 1171 -24 1171 l -33 1180 q -14 1199 -14 1187 l -27 1210 q 20 1241 -27 1237 l 58 1241 q 327 1270 142 1241 l 346 1272 m 393 1553 q 473 1522 450 1544 q 481 1489 481 1506 l 481 1462 q 393 1350 481 1386 l 369 1340 q 293 1413 330 1340 l 293 1423 q 320 1522 293 1504 q 393 1553 373 1553 m 722 1544 q 803 1512 779 1534 q 810 1480 810 1496 l 810 1453 q 722 1340 810 1377 l 699 1331 q 623 1404 659 1331 l 623 1413 q 648 1512 623 1495 q 722 1544 701 1544 z "},"":{"ha":426,"x_min":65,"x_max":324,"o":"m 214 -12 l 227 -12 q 315 30 277 -12 l 312 171 l 312 187 l 324 438 q 300 640 324 560 l 300 671 l 305 694 l 296 731 l 296 757 q 307 814 296 792 q 294 877 301 859 q 297 883 288 895 l 307 892 q 151 937 307 921 q 134 928 141 937 q 160 911 134 914 l 144 892 l 141 878 q 134 826 141 869 q 113 365 125 826 q 106 172 106 293 l 106 118 q 134 67 106 84 l 113 35 q 134 20 113 24 l 136 19 l 136 11 l 134 10 q 214 -12 134 -12 m 212 1122 q 315 1222 250 1135 l 315 1226 q 240 1348 315 1252 l 240 1352 l 210 1358 q 88 1305 161 1358 q 65 1248 65 1274 q 172 1131 65 1169 l 212 1122 z "},"":{"ha":571,"x_min":35,"x_max":513,"o":"m 321 1301 q 425 1280 353 1301 q 463 1258 463 1263 q 497 1212 497 1228 l 514 1160 q 469 1065 501 1124 q 344 992 431 1036 q 255 935 275 937 l 213 903 q 119 831 120 834 q 104 788 112 817 l 104 785 q 153 776 104 779 l 166 772 l 166 775 l 167 775 q 249 761 185 775 l 305 758 l 353 763 l 379 763 q 451 747 445 758 l 482 739 l 488 735 l 488 732 l 491 725 l 492 724 q 486 685 490 685 l 367 688 l 343 688 q 274 684 314 688 q 61 700 120 700 q 43 715 43 703 q 36 754 36 732 l 36 781 q 56 877 36 857 l 82 891 q 88 907 88 901 q 157 953 153 953 q 232 997 185 962 l 236 997 l 243 1003 l 316 1043 q 405 1105 375 1079 q 436 1166 428 1127 q 403 1217 436 1200 q 311 1227 394 1221 q 296 1229 311 1229 l 231 1194 q 223 1171 223 1180 l 223 1165 l 225 1164 q 191 1153 225 1157 l 150 1147 l 150 1147 l 143 1147 l 135 1147 l 109 1146 l 107 1149 q 138 1224 120 1209 q 219 1271 197 1270 q 298 1299 235 1284 l 321 1301 z "},"":{"ha":448,"x_min":37,"x_max":406,"o":"m 40 1309 q 201 1296 96 1303 q 327 1280 216 1291 q 371 1259 371 1271 q 342 1221 367 1247 q 304 1173 342 1218 q 248 1115 304 1166 l 248 1113 l 249 1113 q 304 1122 258 1113 q 375 1089 319 1122 q 406 1028 391 1074 l 406 1019 q 387 891 406 915 q 298 801 370 847 q 170 764 257 782 q 135 760 158 760 l 129 760 l 124 759 q 58 776 86 759 l 58 778 q 72 824 62 781 l 74 824 l 74 824 l 92 824 l 101 824 l 216 846 l 288 889 q 334 938 331 922 q 351 1020 351 962 q 348 1028 350 1028 l 300 1061 l 293 1062 q 137 1023 228 1062 l 128 1018 l 124 1019 l 124 1026 q 116 1039 124 1030 l 116 1039 q 135 1082 116 1043 q 150 1109 138 1096 l 186 1157 q 223 1204 205 1196 q 230 1220 230 1213 l 230 1222 q 214 1229 222 1229 l 56 1231 q 45 1244 47 1231 l 45 1248 l 47 1251 l 47 1255 q 37 1307 43 1265 l 37 1308 l 40 1309 z "},"":{"ha":538,"x_min":31,"x_max":490,"o":"m 208 1427 q 272 1416 272 1423 q 281 1409 272 1409 l 284 1408 q 285 1403 280 1403 q 290 1395 290 1403 l 299 1217 q 288 1106 288 1187 l 288 1103 q 292 1038 288 1055 q 284 1030 284 1036 q 290 1021 285 1021 l 292 1021 l 294 1026 l 295 1026 q 307 996 302 1026 l 305 995 l 299 995 l 312 987 q 483 986 483 991 l 483 985 q 465 981 483 983 l 464 980 l 464 979 q 484 974 469 976 q 490 967 490 971 q 462 931 478 931 l 441 930 l 381 934 l 345 933 q 41 937 41 930 q 32 947 32 943 l 32 948 l 43 970 l 39 974 l 39 974 q 62 987 39 985 l 75 989 l 183 991 q 198 1001 196 991 l 198 1008 q 192 1097 198 1061 q 213 1290 202 1290 l 215 1299 q 199 1355 209 1355 q 132 1317 148 1336 l 124 1315 q 42 1341 60 1328 q 38 1350 38 1341 l 40 1352 l 47 1351 l 56 1351 q 153 1396 78 1351 q 189 1423 177 1409 q 208 1427 201 1427 z "},"":{"ha":838,"x_min":197,"x_max":715,"o":"m 370 37 l 373 -11 q 349 -96 362 -20 q 450 -103 359 -109 l 460 -103 q 555 -134 526 -103 l 633 -178 l 650 -191 l 650 -193 l 648 -193 l 665 -205 q 673 -214 673 -210 l 685 -236 q 694 -273 693 -236 l 694 -309 q 692 -377 715 -346 l 688 -377 q 464 -540 586 -532 q 285 -551 334 -551 q 198 -544 273 -547 l 197 -544 l 197 -543 l 214 -458 q 250 -435 214 -435 l 255 -434 q 281 -445 277 -445 l 286 -445 q 329 -442 300 -445 q 362 -439 358 -439 q 551 -263 545 -430 q 486 -232 540 -248 l 427 -218 l 423 -218 q 274 -247 378 -218 l 252 -250 l 248 -245 l 248 -243 q 244 -136 252 -243 q 269 -5 259 -117 q 281 35 271 35 l 282 37 l 282 38 l 281 47 l 282 47 q 340 43 289 43 q 370 37 365 43 z "},"":{"ha":1171,"x_min":31,"x_max":1127,"o":"m 199 1427 q 260 1413 260 1423 q 268 1405 260 1405 l 271 1403 q 272 1397 267 1397 q 277 1388 277 1397 l 286 1165 q 275 1027 275 1128 l 275 1023 q 279 942 275 963 q 271 932 271 940 q 277 921 272 921 l 279 921 l 280 927 l 282 927 q 293 889 288 927 l 291 888 l 286 888 l 298 878 q 460 877 460 884 l 460 876 q 443 870 460 874 l 442 869 l 442 868 q 461 863 446 865 q 467 854 467 858 q 440 809 455 809 l 420 808 l 363 812 l 329 811 q 41 816 41 808 q 32 828 32 823 l 32 829 l 43 857 l 39 862 l 39 863 q 61 878 39 875 l 73 881 l 176 884 q 190 896 188 884 l 190 904 q 184 1016 190 971 q 204 1256 194 1256 l 206 1267 q 190 1337 201 1337 q 127 1289 142 1314 l 120 1287 q 41 1320 59 1304 q 38 1331 38 1320 l 40 1333 l 47 1333 l 55 1333 q 147 1389 76 1333 q 181 1423 170 1405 q 199 1427 193 1427 m 944 1446 q 989 1424 989 1439 q 1017 1408 1017 1416 q 994 1370 994 1377 l 1005 1354 l 1005 1351 q 985 1309 1005 1340 q 692 734 925 1154 q 576 506 604 544 q 396 136 467 317 l 359 76 l 381 46 q 355 24 381 38 l 350 24 q 260 81 320 24 q 222 117 222 98 l 227 136 q 321 359 277 277 q 362 433 342 433 l 372 433 l 353 445 l 353 446 l 426 616 q 450 667 450 646 q 507 750 495 705 l 505 772 q 540 815 515 793 l 747 1233 q 884 1461 823 1461 q 944 1446 920 1461 m 796 636 l 797 636 q 857 622 857 632 q 818 388 849 585 q 800 325 812 345 q 765 255 772 296 q 854 245 772 251 q 895 239 881 239 l 909 239 l 964 242 l 990 242 l 990 243 q 979 435 984 281 q 969 455 973 453 q 1005 464 969 461 q 1015 467 1005 466 q 1033 458 1030 467 l 1028 446 q 1048 293 1048 422 q 1056 247 1048 247 l 1060 247 q 1117 252 1103 247 l 1117 254 l 1124 250 l 1123 242 l 1123 236 l 1128 230 l 1127 222 q 1102 192 1127 197 q 1078 182 1078 186 l 1059 182 q 1056 179 1056 182 q 1064 73 1064 126 q 1070 36 1070 57 l 1080 33 l 1080 32 q 1009 9 1080 25 q 986 15 1000 15 l 983 16 q 996 106 996 74 q 981 189 996 189 l 934 190 l 841 190 l 807 189 q 647 200 647 190 q 643 202 643 200 q 679 238 679 226 q 696 298 696 267 q 740 469 726 360 q 762 584 740 482 q 773 623 762 597 l 774 623 q 787 618 781 618 l 793 618 l 797 621 l 797 625 l 796 636 z "},"":{"ha":1161,"x_min":33,"x_max":1090,"o":"m 229 1426 q 301 1414 301 1422 q 310 1406 301 1406 l 313 1404 q 314 1398 309 1398 q 320 1389 320 1398 l 331 1180 q 318 1051 318 1145 l 318 1047 q 323 971 318 990 q 313 961 313 969 q 320 951 314 951 l 323 951 l 324 957 l 326 957 q 339 921 334 957 l 337 920 l 331 920 l 345 910 q 535 910 535 916 l 535 909 q 516 903 535 907 l 514 902 l 514 901 q 537 896 519 898 q 543 888 543 892 q 512 846 530 846 l 488 844 l 422 848 l 382 847 q 43 852 43 844 q 33 864 33 859 l 33 865 l 45 891 l 41 896 l 41 896 q 66 911 41 908 l 81 914 l 201 916 q 218 927 216 916 l 218 935 q 211 1040 218 998 q 235 1266 222 1266 l 237 1276 q 219 1342 231 1342 q 144 1297 162 1320 l 136 1295 q 44 1326 65 1311 q 39 1337 40 1326 l 42 1338 l 50 1338 l 59 1338 q 168 1390 84 1338 q 208 1422 195 1406 q 229 1426 221 1426 m 949 1442 q 994 1420 994 1435 q 1023 1404 1023 1412 q 1000 1366 1000 1373 l 1010 1350 l 1010 1347 q 990 1305 1010 1336 q 697 730 930 1150 q 582 502 609 540 q 401 132 472 313 l 365 72 l 387 42 q 361 20 387 34 l 355 20 q 266 77 326 20 q 228 113 228 94 l 232 132 q 327 355 282 273 q 368 429 347 429 l 377 429 l 358 441 l 358 442 l 431 612 q 456 663 456 642 q 513 746 500 701 l 510 768 q 545 811 521 789 l 753 1229 q 890 1457 829 1457 q 949 1442 925 1457 m 912 651 q 1008 629 942 651 q 1043 606 1043 612 q 1075 559 1075 575 l 1091 505 q 1049 408 1079 468 q 933 333 1014 378 q 850 275 869 276 l 811 241 q 724 167 724 170 q 709 123 717 153 l 709 121 q 755 111 709 114 l 767 107 l 767 109 l 768 109 q 844 96 785 109 l 896 93 l 942 97 l 965 97 q 1033 81 1027 93 l 1061 73 l 1067 69 l 1067 66 l 1070 58 l 1071 57 q 1065 17 1069 17 l 955 20 l 932 20 q 868 16 905 20 q 670 32 725 32 q 653 48 653 36 q 646 89 646 65 l 646 116 q 665 215 646 194 l 689 229 q 695 246 695 239 q 759 292 755 292 q 829 338 785 302 l 833 338 l 839 344 l 907 385 q 990 448 962 422 q 1018 512 1011 472 q 988 564 1018 547 q 902 574 980 568 q 888 577 902 576 l 828 540 q 820 516 820 526 l 820 511 l 822 510 q 791 498 822 503 l 752 492 l 752 492 l 746 492 l 738 492 l 715 491 l 713 494 q 741 571 724 555 q 817 619 796 618 q 890 648 831 633 l 912 651 z "},"":{"ha":1176,"x_min":37,"x_max":1066,"o":"m 41 1309 q 241 1295 111 1303 q 397 1277 259 1290 q 452 1254 452 1267 q 416 1212 447 1241 q 368 1159 416 1209 q 299 1095 368 1151 l 299 1092 l 300 1092 q 368 1102 312 1092 q 457 1065 387 1102 q 496 997 477 1048 l 496 988 q 472 845 496 872 q 361 745 450 797 q 202 705 310 725 q 159 700 187 700 l 151 700 l 145 699 q 63 718 98 699 l 63 720 q 80 770 68 723 l 82 770 l 82 771 l 105 770 l 116 770 l 259 795 l 349 843 q 405 897 402 880 q 427 988 427 924 q 424 997 425 997 l 364 1035 l 355 1036 q 161 992 275 1036 l 150 986 l 145 988 l 145 995 q 135 1010 145 1000 l 135 1010 q 159 1058 135 1015 q 177 1087 162 1073 l 222 1141 q 268 1194 245 1184 q 276 1211 276 1204 l 276 1213 q 256 1221 266 1221 l 60 1223 q 47 1238 50 1223 l 47 1242 l 50 1245 l 50 1249 q 37 1308 44 1261 l 37 1308 l 41 1309 m 940 1396 q 985 1374 985 1389 q 1013 1358 1013 1366 q 990 1320 990 1326 l 1001 1303 l 1001 1301 q 981 1259 1001 1290 q 688 684 921 1104 q 572 456 600 494 q 392 85 463 267 l 355 26 l 377 -4 q 351 -26 377 -12 l 346 -26 q 256 31 316 -26 q 218 66 218 47 l 222 85 q 317 309 273 227 q 358 382 338 382 l 368 382 l 349 395 l 349 396 l 422 566 q 446 617 446 595 q 503 700 491 655 l 500 722 q 536 765 511 743 l 743 1183 q 880 1411 819 1411 q 940 1396 916 1411 m 785 740 l 786 741 q 837 724 837 736 q 804 455 830 682 q 789 383 799 406 q 759 302 765 350 q 835 291 765 297 q 869 284 858 284 l 881 284 l 928 288 l 950 288 l 950 288 q 940 509 945 332 q 932 533 935 530 q 962 542 932 539 q 971 545 962 545 q 986 536 983 545 l 981 522 q 998 345 998 494 q 1005 293 998 293 l 1008 293 q 1057 299 1045 293 l 1057 301 l 1063 296 l 1062 288 l 1062 280 l 1066 273 l 1065 264 q 1044 229 1065 236 q 1024 218 1024 223 l 1008 218 q 1005 215 1005 218 q 1012 93 1012 154 q 1017 50 1017 75 l 1025 47 l 1025 45 q 966 20 1025 37 q 946 26 958 26 l 943 28 q 954 130 954 94 q 942 226 954 226 l 902 228 l 823 228 l 795 226 q 660 239 660 227 q 656 241 656 239 q 687 283 687 269 q 701 352 701 315 q 738 548 727 422 q 757 680 738 563 q 767 726 757 696 l 767 726 q 778 720 773 720 l 783 720 l 786 723 l 786 728 l 785 740 z "},"":{"ha":772,"x_min":22,"x_max":770,"o":"m 359 -60 q 190 -9 318 -60 q 23 199 23 65 l 23 267 q 69 408 23 334 q 113 500 96 500 q 190 561 190 537 l 190 581 q 175 725 190 651 q 200 823 181 823 q 269 858 216 823 l 289 862 q 323 826 323 862 q 358 541 358 631 q 264 446 358 523 q 204 375 214 400 q 181 353 185 353 l 162 359 q 131 282 147 359 l 131 276 l 151 241 l 151 235 l 152 235 l 145 216 l 145 190 q 178 145 145 171 q 224 106 190 106 q 369 84 289 84 l 389 84 q 584 221 494 84 l 660 317 l 660 321 q 736 332 701 372 q 772 274 772 293 l 749 202 q 665 99 725 150 q 466 -35 553 10 q 359 -60 418 -60 m 241 960 q 136 1001 209 962 l 141 1028 l 143 1030 l 143 1034 l 131 1066 q 174 1203 96 1154 q 340 1088 297 1207 l 345 1059 q 241 960 345 1018 z "},"":{"ha":533,"x_min":122,"x_max":472,"o":"m 336 1222 l 343 1222 q 419 1172 381 1203 q 456 1123 456 1139 l 456 1123 q 458 1109 449 1133 l 460 1109 q 465 1088 461 1109 l 471 1073 l 469 1063 l 472 1036 q 463 987 468 1025 q 395 883 460 974 q 339 854 368 854 q 282 850 311 850 l 269 850 q 203 872 255 850 q 138 964 138 933 q 122 1002 129 985 q 142 1066 122 1010 q 157 1114 142 1100 q 243 1210 191 1188 q 317 1227 288 1227 l 336 1222 m 187 994 l 187 990 q 209 947 195 972 q 236 925 209 940 q 285 902 250 911 l 298 901 q 346 914 328 907 l 372 937 q 411 1012 411 982 l 411 1017 q 406 1057 406 1031 q 408 1089 406 1076 q 381 1116 408 1093 q 339 1152 361 1145 l 331 1152 q 245 1138 245 1149 q 220 1100 228 1119 q 197 1066 197 1076 q 187 994 190 1039 z "},"":{"ha":1199,"x_min":33,"x_max":1172,"o":"m 153 625 q 290 639 153 648 q 312 991 298 819 q 324 1074 324 1051 l 324 1092 l 317 1130 l 229 1130 q 225 1118 225 1130 l 217 1115 l 84 1120 l 37 1115 l 33 1122 l 33 1210 q 52 1291 33 1291 q 134 1312 76 1312 q 334 1336 221 1336 l 359 1336 l 369 1339 l 378 1336 l 396 1336 q 663 1283 507 1336 q 842 1179 818 1206 l 932 1115 q 954 1092 948 1103 l 954 1089 l 951 1089 q 1105 800 1115 901 l 1108 783 l 1108 788 q 1137 722 1108 798 q 1165 570 1165 646 l 1172 448 l 1165 381 q 1058 189 1054 184 q 1042 175 1062 194 q 815 11 930 77 q 675 -57 764 -38 l 540 -85 l 524 -88 q 366 -66 475 -79 q 191 -53 258 -53 q 159 -60 171 -53 q 127 -34 152 -60 l 118 -34 q 106 -65 114 -34 l 102 -65 l 102 -66 q 87 -31 87 -64 l 92 104 l 90 106 l 90 109 q 103 118 92 118 l 178 111 l 184 111 q 210 115 201 111 l 293 95 l 302 102 l 302 111 l 296 137 q 302 248 302 167 q 283 353 302 353 l 282 361 q 285 486 283 423 q 245 495 264 490 l 184 490 q 153 625 168 461 m 757 652 q 688 486 798 454 q 452 465 572 461 l 453 444 q 410 95 453 209 l 410 83 q 567 52 410 68 q 804 125 665 52 q 929 267 917 225 q 982 479 954 311 l 982 495 q 880 909 982 677 q 749 1039 812 1015 q 514 1105 547 1114 q 450 1096 450 1112 l 457 987 l 450 818 q 444 716 445 793 l 446 625 q 465 623 456 624 q 484 628 465 627 l 522 621 l 538 621 l 757 652 z "},"":{"ha":1080,"x_min":35,"x_max":1061,"o":"m 617 1309 q 784 1268 760 1283 q 945 1112 920 1184 l 1012 1012 q 1061 715 1035 916 q 1016 449 1046 480 q 955 278 994 362 q 829 56 865 94 q 696 -8 757 -8 q 670 -26 670 -15 l 586 -58 l 575 -56 q 449 -68 494 -68 l 425 -68 q 281 -20 408 -68 q 199 46 250 -8 q 159 100 159 73 q 57 340 107 174 q 38 407 38 395 l 35 438 q 126 891 35 747 q 180 1036 156 933 q 247 1122 191 1055 q 395 1264 247 1169 q 500 1299 395 1272 l 617 1309 m 176 594 l 176 435 q 262 224 176 273 q 370 138 346 138 q 461 103 426 138 l 477 100 l 499 103 l 515 87 l 518 87 q 547 107 529 87 q 665 148 635 121 q 798 293 798 279 l 876 530 q 943 705 921 705 l 945 705 l 945 715 q 921 787 945 736 q 886 971 907 941 q 681 1164 846 1081 q 613 1188 628 1188 l 601 1188 q 509 1152 521 1152 q 503 1135 503 1152 q 376 1040 393 1063 l 285 924 q 225 815 252 883 q 176 594 176 707 m 846 1339 q 891 1317 891 1332 q 920 1301 920 1309 q 897 1263 897 1270 l 907 1246 l 907 1244 q 887 1202 907 1233 q 594 627 827 1047 q 479 399 506 437 q 298 28 369 210 l 262 -31 l 283 -61 q 258 -83 283 -69 l 252 -83 q 163 -26 222 -83 q 125 9 125 -9 l 129 28 q 224 252 179 170 q 264 326 244 326 l 274 326 l 255 338 l 255 339 l 328 509 q 353 560 353 538 q 410 643 397 598 l 407 665 q 442 708 418 686 l 650 1126 q 787 1354 726 1354 q 846 1339 822 1354 z "},"":{"ha":1732,"x_min":37,"x_max":1681,"o":"m 1206 974 q 1398 907 1284 974 q 1495 808 1495 836 q 1569 618 1569 646 l 1571 604 q 1542 514 1542 538 l 1531 511 l 1370 511 q 1317 505 1347 511 q 937 526 1044 526 l 897 526 q 873 480 873 492 q 887 414 887 456 q 909 328 887 340 l 911 319 l 911 317 l 899 321 l 899 317 l 918 298 q 952 236 918 271 q 1086 100 1013 126 q 1229 80 1145 80 q 1282 103 1241 80 q 1424 227 1318 114 l 1424 232 q 1400 239 1424 236 l 1396 248 q 1500 357 1439 332 q 1569 305 1507 349 q 1681 153 1611 239 l 1681 146 q 1592 68 1619 68 l 1586 68 q 1535 115 1586 110 q 1453 53 1525 115 q 1303 -11 1413 22 q 1130 -37 1177 -37 l 951 -14 l 815 90 q 789 145 798 111 q 486 -4 595 42 q 320 -26 411 -26 l 311 -26 q 137 53 208 -8 q 83 148 125 65 q 49 250 49 189 l 49 304 q 77 401 49 355 q 163 548 103 476 q 222 594 193 585 q 416 646 321 646 l 502 648 l 511 648 q 648 629 620 651 l 659 629 q 667 639 667 629 q 591 817 635 745 q 412 875 526 875 l 336 884 q 236 844 236 865 q 189 718 198 795 q 121 708 184 708 l 109 705 q 90 673 102 705 q 37 694 37 681 q 52 831 43 711 q 194 990 81 917 q 258 1021 248 1021 l 492 1027 q 618 1000 525 1027 q 747 838 728 895 q 800 719 777 806 q 899 884 837 807 q 987 954 921 930 q 1096 974 1027 964 q 1206 974 1112 981 m 194 358 q 225 244 206 244 l 244 221 l 244 218 l 227 221 l 227 216 q 374 123 266 168 q 412 114 389 117 q 707 227 450 114 q 722 248 722 235 l 722 258 q 693 438 705 334 l 690 439 q 648 473 690 460 q 425 510 476 510 q 227 415 283 477 q 194 358 194 380 m 894 654 l 1246 651 l 1265 644 l 1289 647 q 1390 621 1369 621 q 1402 613 1390 616 q 1415 644 1415 628 l 1415 680 q 1320 789 1415 705 q 1222 840 1279 831 l 1158 849 q 954 773 1002 819 q 894 654 935 738 z "},"":{"ha":1139,"x_min":35,"x_max":1116,"o":"m 597 1046 q 673 1019 618 1028 q 830 932 711 1019 l 856 924 l 865 924 l 899 907 q 956 850 949 869 l 956 848 q 935 819 956 837 q 856 696 929 789 l 856 689 l 859 670 q 804 656 833 667 q 783 682 792 656 q 730 736 730 715 l 751 796 q 628 848 751 833 l 505 856 q 331 806 441 856 q 236 673 270 773 q 191 566 208 581 l 184 549 q 191 537 190 549 l 179 452 q 216 339 187 448 l 209 327 l 209 320 q 224 258 218 311 q 332 156 240 202 l 433 83 q 727 156 598 83 q 854 302 854 266 l 848 331 l 848 334 q 930 425 849 342 q 962 396 936 425 l 962 391 l 952 388 q 1006 346 1006 377 q 1070 225 1038 304 q 1088 182 1080 225 q 1116 160 1112 171 q 1092 141 1116 144 q 1012 80 1047 125 q 943 146 947 146 l 838 80 q 743 18 787 53 l 548 -46 l 518 -49 q 339 -12 456 -49 q 199 73 212 42 q 41 368 41 262 l 35 431 q 52 594 52 498 l 102 715 q 172 850 102 768 q 378 1012 212 937 q 597 1043 446 1034 l 597 1046 m 483 37 l 486 -11 q 461 -96 475 -20 q 563 -103 472 -109 l 572 -103 q 667 -134 639 -103 l 746 -178 l 762 -191 l 762 -193 l 761 -193 l 777 -205 q 785 -214 785 -210 l 798 -236 q 807 -273 806 -236 l 807 -309 q 804 -377 827 -346 l 800 -377 q 576 -540 699 -532 q 397 -551 446 -551 q 311 -544 385 -547 l 309 -544 l 309 -543 l 327 -458 q 362 -435 327 -435 l 368 -434 q 393 -445 389 -445 l 399 -445 q 441 -442 412 -445 q 475 -439 471 -439 q 663 -263 658 -430 q 598 -232 652 -248 l 540 -218 l 536 -218 q 387 -247 491 -218 l 365 -250 l 361 -245 l 361 -243 q 357 -136 365 -243 q 381 -5 372 -117 q 393 35 384 35 l 395 37 l 395 38 l 393 47 l 395 47 q 453 43 401 43 q 483 37 477 43 z "}," ":{"ha":601,"x_min":0,"x_max":0,"o":""},"":{"ha":864,"x_min":35,"x_max":846,"o":"m 392 9 q 155 64 255 9 q 102 132 102 122 q 35 235 35 197 l 35 247 q 68 334 35 283 q 217 496 68 377 q 340 533 247 521 l 393 547 q 556 533 515 547 q 678 461 666 461 l 681 461 l 688 467 l 688 472 q 637 562 688 484 q 581 631 600 612 q 374 730 562 644 q 320 651 353 671 l 241 704 l 281 768 q 227 802 258 781 l 201 802 l 179 822 l 179 823 l 191 834 l 174 849 q 233 937 212 937 q 339 894 254 930 l 384 989 l 469 949 l 423 852 q 602 757 548 781 q 746 646 708 690 q 784 567 784 602 q 818 483 811 509 q 846 345 829 483 l 846 326 l 808 197 q 759 92 784 122 q 656 27 734 61 q 415 7 656 9 l 392 9 m 198 157 q 340 98 198 134 q 452 77 427 85 l 480 81 q 581 118 514 81 l 700 255 l 700 259 q 637 326 700 290 l 581 389 q 425 448 536 426 l 420 448 q 229 384 382 448 q 186 319 205 374 q 161 308 164 312 l 161 292 l 198 157 m 636 572 l 637 572 l 636 572 z "},"":{"ha":972,"x_min":7,"x_max":952,"o":"m 472 712 q 492 566 483 712 l 495 566 q 377 540 495 545 q 281 519 324 528 l 278 217 l 278 186 q 385 170 278 170 l 746 170 l 807 165 q 826 270 815 165 q 842 296 831 296 q 952 274 952 293 q 949 220 949 235 q 936 106 949 182 l 936 77 l 937 68 q 928 30 928 47 q 911 5 924 30 q 831 -8 872 -8 l 823 -8 l 661 5 l 652 5 l 282 -8 l 22 15 q 7 39 7 27 q 54 151 22 151 q 129 165 62 159 q 138 496 146 213 q 100 495 115 495 l 100 499 q 85 499 100 507 l 72 492 q 7 625 7 492 q 132 674 7 658 q 130 712 132 692 q 149 1104 140 811 l 149 1123 q 109 1152 149 1152 l 92 1154 l 92 1161 l 76 1183 q 83 1177 83 1183 q 66 1168 79 1168 l 58 1168 q 39 1211 39 1179 l 39 1218 q 64 1271 39 1260 q 77 1290 69 1271 l 99 1297 q 692 1207 250 1297 l 724 1204 l 749 1207 l 753 1198 l 751 1088 q 736 1077 747 1077 q 670 1086 659 1086 l 670 1084 q 292 1128 670 1077 l 282 761 l 282 723 l 282 684 l 463 712 l 472 712 z "},"|":{"ha":331,"x_min":98,"x_max":293,"o":"m 117 1394 l 240 1400 q 288 1371 288 1400 q 277 1181 277 1302 l 277 884 l 274 602 l 277 526 l 293 15 l 98 8 q 115 203 115 165 q 134 616 122 269 q 113 1238 122 728 l 117 1394 z "},"^":{"ha":1157,"x_min":282,"x_max":784,"o":"m 401 800 q 289 812 382 800 l 289 815 q 294 823 294 819 l 289 830 l 289 831 l 290 833 l 301 838 q 282 845 301 842 l 282 846 l 283 846 q 294 854 294 853 l 294 857 l 292 860 l 292 863 q 346 876 311 875 q 374 943 336 875 q 392 987 381 945 l 407 1019 l 407 1021 q 403 1028 403 1025 q 435 1074 415 1043 q 449 1112 444 1107 q 468 1146 457 1112 q 509 1199 487 1171 q 538 1210 528 1210 l 555 1200 q 576 1187 576 1199 l 575 1187 l 575 1181 q 578 1176 575 1176 q 629 1081 579 1176 l 652 1019 q 712 916 705 933 q 739 861 735 867 l 770 856 q 784 833 770 844 q 774 815 784 829 q 736 789 774 789 q 632 798 654 789 q 616 864 613 798 l 618 864 l 669 868 l 627 962 q 613 991 627 968 q 563 1088 593 1039 q 544 1124 548 1124 l 541 1124 q 479 1024 525 1120 q 437 928 460 1005 l 423 871 q 463 868 453 863 l 468 868 l 473 863 l 473 863 q 468 859 469 863 q 476 844 468 852 l 468 834 l 468 825 l 463 821 q 401 800 463 806 z "},"":{"ha":856,"x_min":37,"x_max":831,"o":"m 758 1413 q 803 1392 803 1407 q 831 1375 831 1383 q 808 1337 808 1344 l 819 1321 l 819 1318 q 799 1276 819 1308 q 506 701 739 1122 q 391 473 418 511 q 210 103 281 285 l 195 14 q 170 -8 195 5 l 164 -8 q 75 49 134 -8 q 37 84 37 65 l 41 103 q 136 327 91 244 q 176 400 156 400 l 167 412 l 167 414 l 240 583 q 264 635 264 613 q 321 718 309 673 l 319 739 q 354 783 330 761 l 562 1200 q 699 1428 637 1428 q 758 1413 734 1428 z "},"":{"ha":385,"x_min":122,"x_max":311,"o":"m 279 650 l 302 628 q 311 595 311 612 l 311 568 q 222 422 311 492 l 198 412 q 122 519 159 412 l 122 529 q 149 628 122 610 l 279 650 z "},"":{"ha":385,"x_min":122,"x_max":311,"o":"m 222 659 q 302 628 279 650 q 311 595 311 612 l 311 568 q 222 422 311 492 l 198 412 q 122 519 159 412 l 122 529 q 149 628 122 610 q 222 659 202 659 z "},"":{"ha":1233,"x_min":94,"x_max":1172,"o":"m 467 1274 q 499 1248 499 1265 l 487 1207 l 487 1202 l 505 1179 q 457 1138 505 1143 q 435 1131 435 1138 l 476 1078 q 507 1093 491 1086 q 699 1135 624 1135 l 751 1122 l 764 1122 q 753 1131 753 1126 q 768 1169 768 1156 l 768 1179 l 758 1191 l 758 1192 l 777 1236 l 796 1240 l 800 1240 l 834 1233 l 1017 1233 q 1150 1207 1099 1233 l 1152 1198 q 1128 1103 1152 1114 q 1027 1077 1108 1077 q 1000 1067 1000 1074 q 1019 1059 1000 1062 l 1019 1055 q 986 1039 1019 1051 q 963 996 986 1035 l 967 993 q 1062 869 1062 911 l 1059 869 l 1069 837 l 1072 837 q 1085 781 1076 836 l 1100 743 l 1097 720 l 1103 651 q 1078 528 1093 621 q 926 293 1072 494 q 1020 178 987 178 q 1172 126 1097 178 l 1169 98 l 1160 76 q 1153 34 1160 34 l 1103 35 q 1058 16 1095 35 l 985 12 q 798 43 875 12 l 780 83 l 766 98 l 751 133 q 822 178 751 153 l 825 180 l 825 186 l 818 202 q 755 189 787 189 q 606 179 682 179 l 571 179 q 427 224 540 179 l 400 182 q 376 156 376 163 q 426 99 426 136 q 391 23 414 23 q 345 -4 381 -4 q 221 15 244 15 l 144 14 q 94 81 104 14 q 117 134 94 110 q 153 176 118 144 l 155 176 q 189 148 178 148 q 245 205 245 167 q 326 308 289 259 q 232 469 232 408 q 191 564 208 521 q 243 726 191 586 q 283 846 243 811 q 363 981 320 925 q 350 1008 357 993 q 250 1103 292 1103 q 176 1134 176 1103 q 170 1172 176 1172 q 296 1248 210 1248 q 467 1274 431 1274 m 452 804 q 392 720 392 743 q 366 538 376 652 l 366 526 q 423 418 388 480 q 495 362 423 397 l 623 304 l 656 298 q 780 334 735 316 l 848 391 q 949 581 952 505 l 949 597 q 939 697 939 629 q 945 780 939 745 q 873 846 945 789 q 762 936 819 920 q 693 937 727 939 q 624 927 659 936 q 551 900 589 918 q 471 849 513 882 l 452 804 z "},"":{"ha":617,"x_min":58,"x_max":537,"o":"m 362 495 q 448 484 404 495 q 515 393 515 439 q 537 292 528 358 l 507 114 q 456 62 496 83 l 452 62 l 450 69 l 452 71 l 452 90 q 429 256 429 167 l 437 286 l 437 288 l 423 288 q 327 339 370 288 q 290 420 307 349 q 302 468 290 446 l 359 495 l 359 498 l 362 495 m 132 391 q 216 380 172 391 q 285 289 285 336 q 307 187 297 254 l 275 9 q 225 -42 266 -22 l 221 -42 l 218 -35 l 221 -34 l 221 -15 q 197 152 197 62 l 206 182 l 206 183 l 193 183 q 96 235 138 183 q 58 316 76 244 q 72 363 58 342 l 129 391 l 129 393 l 132 391 z "},"":{"ha":345,"x_min":33,"x_max":288,"o":"m 126 434 q 241 374 186 434 q 278 248 278 330 q 288 229 283 248 l 288 228 q 270 161 288 214 l 241 77 l 178 -3 q 142 42 142 22 q 165 161 149 111 l 165 168 q 137 203 165 194 q 35 311 35 258 l 33 323 q 126 434 45 434 z "},"":{"ha":601,"x_min":15,"x_max":578,"o":"m 553 1005 q 575 857 564 1005 l 578 857 q 385 825 578 837 q 378 823 381 823 l 397 15 l 202 8 q 220 203 220 165 q 233 795 227 260 l 79 777 q 15 910 15 777 q 161 962 15 945 q 180 967 161 966 l 218 960 l 235 960 q 217 1238 222 1072 l 222 1394 l 346 1400 q 393 1371 393 1400 q 381 1181 381 1302 l 381 981 l 544 1005 l 553 1005 z "},"":{"ha":601,"x_min":-8,"x_max":586,"o":"m 575 1050 q 557 902 586 1047 l 560 901 q 381 914 555 882 l 378 916 q 370 917 374 916 l 373 819 l 551 818 l 560 817 q 557 667 571 814 l 560 667 q 378 663 557 647 l 397 15 l 202 8 q 209 608 209 570 q 212 658 210 624 q 84 663 121 656 l 84 667 q 71 670 87 682 l 56 665 q 14 807 -8 675 q 167 836 19 841 q 186 837 167 838 l 220 825 q 224 926 222 871 q 85 944 123 933 l 87 948 l 73 952 l 58 948 q 30 1093 -4 964 q 184 1107 38 1128 q 205 1107 186 1109 l 221 1099 q 217 1238 216 1169 l 222 1394 l 346 1400 q 393 1371 393 1400 q 381 1181 381 1302 l 381 1072 l 566 1051 l 575 1050 z "},"":{"ha":532,"x_min":83,"x_max":475,"o":"m 395 751 q 437 726 426 726 l 437 716 q 430 711 430 716 l 452 707 q 463 694 457 707 q 288 510 463 662 q 263 481 263 496 l 263 476 q 311 407 263 454 q 475 213 384 315 l 475 208 q 373 175 458 208 q 247 293 340 175 q 88 486 88 463 l 83 491 l 83 495 l 85 498 l 85 500 l 102 538 l 100 540 l 100 543 q 301 700 170 608 q 395 751 358 747 m 359 194 l 373 194 l 376 194 l 376 197 l 359 194 z "},"":{"ha":768,"x_min":83,"x_max":734,"o":"m 395 751 q 437 726 426 726 l 437 716 q 430 711 430 716 l 452 707 q 463 694 457 707 q 288 510 429 637 q 263 481 263 496 l 263 476 q 311 407 263 454 l 475 213 l 475 208 q 373 175 458 208 q 247 293 340 175 q 88 486 88 463 l 83 491 l 83 495 l 85 498 l 85 500 q 102 538 85 515 l 100 540 l 100 543 q 264 677 170 608 q 395 751 358 747 m 654 735 q 696 709 685 709 l 696 700 q 689 694 689 700 l 696 688 l 701 688 l 711 690 q 722 678 716 690 q 547 494 722 646 q 522 465 522 480 l 522 460 q 570 391 522 438 q 734 197 643 298 l 734 191 q 632 159 718 191 q 506 277 600 159 q 347 469 347 446 l 342 475 l 342 479 l 345 481 l 338 510 q 361 522 372 469 l 359 524 l 359 526 q 560 684 429 591 q 654 735 617 731 z "},"":{"ha":540,"x_min":79,"x_max":473,"o":"m 189 811 q 231 773 231 803 l 229 766 l 227 766 l 240 758 q 397 530 382 582 q 435 472 435 483 q 458 445 435 458 l 473 419 q 362 293 468 385 q 240 141 269 189 l 233 141 l 233 144 l 236 168 l 233 170 l 231 170 q 153 160 214 156 q 117 178 153 167 l 107 217 l 100 235 q 245 429 113 288 q 255 435 255 429 l 255 438 q 110 681 255 458 q 79 739 79 727 l 87 742 l 107 761 l 107 764 l 106 766 q 189 811 129 811 z "},"":{"ha":819,"x_min":79,"x_max":795,"o":"m 189 811 q 231 773 231 803 l 229 766 l 227 766 l 240 758 q 397 530 382 582 q 435 472 435 483 q 458 445 435 458 l 473 419 q 362 293 468 385 q 240 141 269 189 l 233 141 l 233 144 l 236 168 l 233 170 l 231 170 q 151 127 214 156 l 148 130 l 148 132 l 153 160 q 117 178 153 167 l 107 189 l 107 217 l 100 235 q 245 429 113 288 q 255 435 255 429 l 255 438 q 110 681 255 458 q 79 739 79 727 l 87 742 l 107 761 l 107 764 l 106 766 q 189 811 129 811 m 510 804 q 553 766 553 796 l 551 760 l 548 760 l 563 753 q 731 526 705 576 q 757 465 757 476 q 781 439 757 453 l 795 414 q 684 288 791 378 q 563 136 591 183 l 556 136 l 556 138 l 557 161 l 556 164 l 553 164 q 472 121 537 151 l 471 123 l 471 126 l 475 155 q 439 171 475 160 l 430 183 l 430 212 l 423 228 q 567 423 435 282 q 576 430 576 423 l 576 433 q 433 674 576 453 q 401 734 401 722 l 408 736 l 430 755 l 430 757 l 427 760 q 510 804 452 804 z "},"":{"ha":926,"x_min":-33,"x_max":1055,"o":"m 682 625 l 681 624 l 694 627 l 789 636 l 799 633 q 834 487 810 631 q 635 465 755 480 q 635 414 635 442 l 827 414 l 837 412 q 834 263 848 411 l 837 263 q 637 252 834 250 q 661 140 644 140 l 663 140 l 716 130 l 751 126 l 755 114 l 754 57 l 754 42 l 770 23 l 770 16 q 597 -28 739 -28 q 395 -7 395 -24 l 391 41 l 393 104 q 452 130 393 130 q 502 140 502 133 l 502 142 q 491 258 492 179 q 255 261 312 250 q 218 400 198 273 q 396 419 252 426 l 412 416 l 498 415 q 500 454 499 434 q 282 463 335 449 l 283 467 l 270 471 l 235 468 q 227 612 170 560 q 381 625 235 647 q 401 625 382 628 l 435 609 l 448 605 q 260 971 395 709 q 179 1092 260 978 q 157 1099 170 1099 l 72 1096 q 42 1114 42 1101 q 18 1105 33 1112 q -1 1143 4 1105 q -33 1171 -24 1171 l -33 1180 q -14 1199 -14 1187 l -27 1210 q 20 1241 -27 1237 l 58 1241 q 327 1270 142 1241 l 346 1272 q 355 1265 355 1268 q 346 1146 350 1242 q 302 1133 342 1133 q 435 937 336 1062 l 476 852 q 545 773 499 812 q 631 880 572 795 q 751 1042 680 952 q 783 1108 783 1086 l 774 1114 l 736 1114 q 688 1215 694 1114 q 736 1238 688 1238 q 837 1260 736 1260 l 945 1260 q 1050 1244 1050 1260 q 1055 1200 1055 1232 l 1055 1177 q 1034 1127 1055 1127 q 1015 1099 1023 1127 l 1010 1099 l 994 1112 q 773 838 837 922 q 623 640 629 673 l 682 625 m 682 628 l 682 625 l 694 627 l 682 628 z "},"":{"ha":1017,"x_min":60,"x_max":945,"o":"m 457 1294 q 688 1245 499 1294 q 793 1203 780 1203 q 806 1248 806 1218 l 806 1249 l 803 1261 q 833 1282 803 1282 q 884 1295 852 1295 q 932 1286 932 1295 l 945 1135 l 945 1089 q 930 1020 945 1032 q 909 1006 916 1006 q 822 1031 822 1013 q 768 1086 808 1070 l 510 1165 q 418 1135 433 1165 q 399 1066 399 1108 l 399 1065 q 535 913 410 940 q 773 809 661 887 q 910 703 886 731 l 916 694 l 916 690 q 906 686 916 686 l 906 685 q 928 628 928 640 q 883 448 928 484 q 799 363 865 406 q 785 351 792 357 q 831 302 807 331 l 837 294 l 837 290 q 827 286 837 286 q 849 228 849 239 q 804 46 849 84 q 720 -38 787 5 q 570 -106 644 -106 l 517 -106 q 393 -73 393 -87 q 312 -23 324 -23 q 206 53 236 14 l 201 53 q 170 -1 180 -1 q 72 33 72 12 q 60 171 64 54 l 76 270 q 90 324 76 324 l 187 336 q 208 248 198 336 l 254 167 q 391 71 254 161 q 488 31 426 31 l 543 31 q 654 85 623 31 q 707 202 692 126 l 707 206 q 656 296 707 243 q 648 294 652 294 l 595 294 q 473 327 473 315 q 391 377 404 377 l 267 505 q 273 825 115 718 q 342 871 321 852 l 296 911 q 255 998 258 972 l 256 1024 l 251 1086 q 278 1139 251 1108 q 353 1226 278 1158 q 434 1287 422 1264 l 457 1294 m 732 486 q 785 602 770 526 l 785 606 q 785 610 785 608 q 743 629 743 617 q 689 686 730 669 l 473 762 l 431 765 q 339 734 354 765 q 320 666 320 708 l 320 665 q 410 519 320 578 q 632 448 495 483 q 646 433 637 438 q 732 486 707 439 z "},"":{"ha":1630,"x_min":56,"x_max":1581,"o":"m 872 1104 q 929 1085 888 1092 q 1048 1021 958 1085 l 1067 1016 l 1076 1016 l 1100 1005 q 1143 963 1138 977 l 1143 962 q 1133 937 1143 954 q 1067 850 1123 920 l 1067 846 l 1069 833 q 1028 822 1050 830 q 1012 841 1019 822 q 972 880 972 864 l 989 924 q 895 962 989 951 l 803 967 q 671 930 754 967 q 600 834 625 907 q 566 757 578 766 l 560 745 q 566 736 564 745 l 557 674 q 585 591 563 670 l 579 583 l 579 578 q 590 533 586 571 l 673 458 l 747 406 q 970 458 872 406 q 1066 566 1066 540 l 1061 586 l 1061 589 q 1124 654 1062 594 q 1147 633 1128 654 l 1147 629 l 1139 628 l 1130 629 l 1127 629 l 1127 624 q 1181 597 1181 620 q 1229 509 1204 566 q 1242 479 1237 509 q 1264 463 1261 469 q 1246 449 1264 450 q 1185 404 1211 437 q 1133 452 1137 452 l 1054 404 q 982 359 1015 384 l 836 313 l 812 311 q 678 336 765 311 q 572 399 582 376 q 452 613 452 536 l 449 659 q 460 777 460 708 l 498 865 q 552 963 498 903 q 708 1080 581 1025 q 872 1103 758 1096 l 872 1104 m 865 1397 q 1320 1301 1108 1397 l 1370 1143 q 1472 1023 1421 1103 q 1579 821 1529 975 l 1581 766 q 1542 610 1581 718 l 1538 530 l 1538 434 q 1413 235 1538 366 q 1364 145 1388 198 q 1109 52 1340 92 q 829 -11 964 -11 q 288 161 393 -47 l 278 199 l 274 189 q 184 293 228 198 q 149 338 167 302 q 56 788 119 435 l 156 1046 q 252 1207 156 1069 q 865 1397 397 1397 m 254 792 l 267 776 l 258 743 l 258 731 l 296 476 q 473 228 340 305 q 712 151 606 151 q 1123 214 875 151 q 1337 378 1337 294 q 1432 665 1396 488 l 1432 772 q 1293 1044 1432 928 q 1204 1158 1293 1063 q 958 1260 1065 1260 l 807 1282 l 776 1282 q 521 1154 576 1282 q 388 1061 446 1118 q 312 955 351 1061 l 254 792 z "},"":{"ha":1614,"x_min":56,"x_max":1581,"o":"m 656 1100 l 661 1100 q 758 1086 684 1100 q 1016 1039 859 1086 q 1123 924 1085 991 q 1134 850 1134 884 l 1134 848 q 1086 731 1134 796 q 1005 673 1058 699 q 941 636 985 658 q 920 616 920 620 q 1070 425 1028 475 q 1138 369 1108 369 q 1237 343 1237 363 q 1246 288 1240 343 q 1237 282 1245 282 l 1227 282 l 1154 267 q 1073 279 1145 279 q 1002 286 1002 279 q 989 334 1000 307 l 989 342 l 989 347 q 952 403 989 357 q 940 430 948 426 q 849 583 906 475 q 826 595 837 595 l 745 578 q 689 549 689 578 l 689 529 q 713 381 689 381 l 731 378 l 745 378 l 777 385 q 785 335 785 369 l 780 323 l 781 302 q 689 281 781 292 l 685 282 l 585 283 l 510 283 q 498 313 498 283 l 498 334 q 521 377 498 377 l 579 389 l 583 407 q 563 742 572 663 q 555 998 562 998 l 551 1000 l 461 985 l 456 986 l 458 997 l 444 997 l 444 1000 l 442 1000 l 444 1015 l 444 1021 q 434 1046 444 1029 q 452 1054 452 1048 l 444 1063 l 444 1065 q 556 1086 444 1073 l 656 1100 m 678 1004 l 678 994 l 688 918 q 677 788 681 798 l 669 780 l 669 765 l 678 705 q 692 663 678 663 l 693 663 q 793 685 793 675 q 887 722 856 705 q 1024 793 945 722 q 1046 867 1046 833 l 1046 880 q 1010 943 1046 891 q 883 1010 943 1010 l 840 1013 q 678 1004 742 1004 m 865 1397 q 1320 1301 1108 1397 q 1472 1023 1421 1103 q 1579 821 1529 975 l 1581 766 q 1570 679 1581 718 q 1538 530 1558 640 l 1538 434 q 1413 235 1538 366 q 1364 145 1388 198 q 1109 52 1340 92 q 829 -11 964 -11 q 288 161 393 -47 l 288 170 l 296 175 l 278 199 l 274 189 q 184 293 228 198 q 149 338 167 302 q 56 788 119 435 l 156 1046 q 252 1207 156 1069 q 865 1397 397 1397 m 254 792 l 267 776 l 258 743 l 258 731 l 296 476 q 473 228 340 305 q 712 151 606 151 q 1123 214 875 151 q 1337 378 1337 294 q 1432 665 1396 488 l 1432 772 q 1293 1044 1432 928 q 1204 1158 1293 1063 q 958 1260 1065 1260 l 807 1282 l 776 1282 q 521 1154 576 1282 l 312 955 l 254 792 z "},"":{"ha":718,"x_min":56,"x_max":618,"o":"m 594 1139 q 616 991 605 1139 l 618 991 q 426 959 618 971 q 119 911 210 914 q 56 1044 56 911 q 202 1096 56 1080 q 221 1101 202 1100 l 259 1095 l 277 1095 l 585 1139 l 594 1139 z "},"":{"ha":433,"x_min":45,"x_max":393,"o":"m 259 956 l 266 956 q 342 906 304 937 q 378 857 378 873 q 393 807 372 867 l 393 764 q 316 610 368 654 q 262 589 290 589 q 205 585 233 585 l 191 585 q 126 606 178 585 q 56 693 61 667 q 45 736 52 719 q 55 789 45 745 q 90 878 65 834 q 165 944 114 922 q 240 962 210 962 l 259 956 m 110 728 l 110 724 q 132 681 118 707 q 159 659 132 674 q 208 636 172 646 l 221 635 q 269 648 251 642 l 294 671 q 334 746 334 716 l 334 751 q 328 791 328 765 q 331 823 328 810 q 304 850 331 827 q 262 886 283 879 l 254 886 q 142 834 151 853 q 119 800 119 810 q 110 728 113 773 l 110 728 z "},"":{"ha":677,"x_min":66,"x_max":629,"o":"m 605 666 q 627 518 616 666 l 629 518 q 437 486 629 498 q 159 441 221 441 l 145 445 l 130 438 q 66 522 66 438 q 213 623 66 606 q 232 628 213 627 l 270 621 l 288 621 l 595 666 l 605 666 z "},"":{"ha":803,"x_min":66,"x_max":784,"o":"m 760 658 q 781 511 770 658 l 784 511 q 591 477 784 491 l 159 441 l 159 445 q 145 445 159 461 l 130 438 q 66 571 66 438 q 213 623 66 606 q 232 628 213 627 l 270 621 l 288 621 l 750 658 l 760 658 z "},"":{"ha":677,"x_min":66,"x_max":629,"o":"m 605 666 q 627 518 616 666 l 629 518 q 437 486 629 498 q 159 441 221 441 l 130 438 q 66 571 66 438 q 213 623 66 606 q 232 628 213 627 l 270 621 l 288 621 l 595 666 l 605 666 z "},"":{"ha":811,"x_min":168,"x_max":746,"o":"m 722 349 q 743 201 732 349 l 746 201 q 553 168 746 180 q 275 123 338 123 l 275 127 q 262 127 275 144 l 247 121 q 183 254 183 121 q 330 305 183 289 q 349 311 330 309 l 350 309 q 350 467 342 346 q 262 458 289 458 l 262 463 l 247 463 l 233 456 q 168 589 168 456 q 316 640 168 624 q 335 646 316 644 l 340 644 q 342 770 338 734 l 347 769 l 349 784 l 343 799 q 483 845 351 863 q 517 692 518 841 q 518 673 519 692 l 513 656 l 699 684 l 708 684 q 728 536 719 684 l 731 536 q 538 503 731 515 q 506 496 522 499 l 509 319 l 712 349 l 722 349 z "},"":{"ha":1111,"x_min":7,"x_max":1085,"o":"m 171 935 l 300 892 q 323 830 304 861 l 326 811 q 317 309 309 696 q 361 237 317 254 l 374 206 q 500 186 374 194 l 507 186 q 605 271 545 186 q 665 342 652 319 l 674 342 l 674 354 l 671 363 q 688 414 681 380 l 690 415 l 690 433 l 724 791 l 724 823 l 719 842 l 719 845 q 741 892 741 860 q 754 914 741 910 l 798 892 l 840 892 q 947 860 914 892 l 947 852 l 956 829 q 966 798 963 819 l 947 563 l 949 560 l 949 557 q 924 330 937 521 l 924 275 q 935 152 924 152 l 943 152 q 1051 168 981 152 q 1085 145 1062 167 q 1063 -23 1078 -23 l 1042 -7 l 985 -12 l 776 -7 q 743 69 760 -7 q 731 92 731 80 l 734 110 l 728 110 q 617 60 713 110 q 487 3 612 47 q 281 -16 456 -14 l 278 -262 l 140 -266 q 127 510 127 282 l 148 731 l 148 735 q 19 761 148 742 q 7 854 7 779 q 26 906 7 906 q 171 935 26 928 z "},"":{"ha":1048,"x_min":34,"x_max":974,"o":"m 35 732 q 109 930 45 807 q 208 1024 130 971 q 363 1067 221 1039 l 423 1074 q 597 1065 480 1074 l 598 1067 q 602 1072 598 1072 l 604 1072 q 614 1062 604 1063 q 708 1067 656 1067 l 718 1067 l 720 1065 l 724 1066 l 781 1053 l 909 1072 q 943 1053 943 1072 l 968 674 l 966 473 l 968 419 l 962 164 l 974 15 l 819 11 l 799 948 q 764 949 772 949 l 724 939 l 745 349 l 745 334 q 732 194 745 241 l 732 163 q 737 142 732 146 q 742 133 742 137 l 742 129 l 753 8 q 589 18 589 -1 l 595 60 l 595 62 l 591 88 l 597 99 q 589 190 589 140 l 589 199 q 597 241 589 212 l 591 275 l 595 285 l 591 297 l 595 309 q 589 449 589 345 l 589 490 l 590 522 q 585 530 587 530 q 449 426 572 530 q 34 678 134 293 l 35 732 z "},"":{"ha":917,"x_min":103,"x_max":853,"o":"m 814 636 q 818 522 823 635 q 819 445 819 490 q 840 243 844 305 l 834 228 l 841 214 q 704 157 853 164 q 673 289 669 160 l 674 305 l 661 477 q 624 479 643 477 q 197 476 404 463 l 197 480 q 183 481 199 496 l 167 476 q 121 617 103 484 q 420 644 125 651 q 439 647 420 647 l 476 635 l 492 632 l 798 636 l 798 639 q 802 637 800 639 l 804 637 l 814 636 z "},"":{"ha":522,"x_min":35,"x_max":481,"o":"m 249 1027 q 308 1013 264 1027 q 368 932 360 960 q 400 845 387 911 q 414 777 414 830 l 415 754 l 412 660 q 444 589 412 632 q 483 558 473 558 l 483 557 q 452 520 483 545 q 422 496 429 496 l 422 496 q 351 552 408 496 q 246 507 299 531 q 169 496 211 496 l 164 496 q 83 535 116 505 q 58 583 77 541 q 42 635 42 604 l 42 662 q 55 711 42 688 q 95 785 67 749 q 123 808 109 804 q 214 834 169 834 l 254 836 l 258 836 q 306 825 293 836 l 311 825 q 315 830 315 825 q 284 915 306 873 q 212 950 265 950 l 176 955 q 129 934 129 945 q 107 871 112 910 q 75 866 105 866 l 70 864 q 61 848 67 864 q 36 859 36 852 q 43 928 39 867 q 110 1008 57 971 q 140 1024 135 1024 l 249 1027 m 110 689 q 124 632 115 632 l 133 620 l 133 619 l 125 620 l 125 617 q 194 571 143 593 q 212 566 201 567 q 334 622 230 566 q 341 632 341 626 l 341 637 q 327 728 333 676 l 326 729 q 306 746 326 739 q 218 766 242 766 q 125 718 152 749 q 110 689 110 700 z "},"":{"ha":331,"x_min":98,"x_max":293,"o":"m 273 722 l 274 602 l 277 526 l 293 15 l 98 8 q 115 203 115 165 q 117 722 122 269 l 273 722 m 117 799 q 113 1238 118 935 l 117 1394 l 240 1400 q 288 1371 288 1400 q 277 1181 277 1302 l 277 884 l 277 792 l 117 799 z "},"":{"ha":616,"x_min":38,"x_max":601,"o":"m 350 903 q 430 815 419 903 q 373 685 430 769 q 304 637 327 637 q 195 726 241 637 l 195 735 q 236 865 217 837 q 350 903 304 903 m 302 350 l 342 350 q 420 281 397 350 l 420 274 q 392 165 410 182 q 326 110 353 110 q 252 153 278 121 q 228 214 228 197 l 247 296 q 302 350 247 335 m 576 628 q 598 480 587 628 l 601 480 q 408 448 601 460 q 130 403 193 403 l 102 400 q 38 533 38 400 q 184 585 38 568 q 203 590 184 589 l 241 583 l 259 583 l 567 628 l 576 628 z "},"`":{"ha":401,"x_min":41,"x_max":404,"o":"m 41 1057 q 115 1090 69 1077 q 292 966 168 1063 q 304 951 297 966 q 302 956 304 954 l 404 865 l 302 829 l 281 845 l 193 909 l 190 914 l 41 1057 z "},"":{"ha":414,"x_min":49,"x_max":387,"o":"m 121 1137 l 115 1076 q 153 983 117 1010 q 241 977 203 960 q 298 1052 271 1001 q 314 1116 324 1103 q 387 1128 304 1128 l 362 1063 q 254 926 365 962 q 233 920 255 920 l 217 914 q 187 921 206 914 q 123 939 142 925 q 104 955 114 955 q 75 1008 100 959 q 55 1093 50 1058 q 54 1137 60 1128 q 121 1137 49 1145 m 365 1080 l 366 1081 l 365 1080 z "},"":{"ha":385,"x_min":7,"x_max":194,"o":"m 106 996 q 187 966 163 986 q 194 932 194 949 l 194 906 q 106 792 194 829 l 83 783 q 7 856 43 783 l 7 865 q 33 966 7 947 q 106 996 85 996 z "},"":{"ha":464,"x_min":27,"x_max":457,"o":"m 30 916 q 57 941 41 920 q 155 975 87 966 q 191 964 165 975 l 214 945 l 243 909 q 271 863 260 892 l 321 837 l 323 837 q 374 856 355 844 q 396 891 397 867 l 396 907 q 381 918 397 907 q 444 920 422 940 q 457 882 448 920 l 457 867 q 427 818 457 842 q 392 792 410 799 q 313 774 376 777 q 289 780 309 774 l 288 780 q 288 777 289 777 l 286 777 l 281 779 q 229 819 237 804 q 220 838 229 834 l 203 859 l 195 883 q 133 909 170 910 l 132 909 q 102 902 114 909 q 90 872 90 897 l 91 860 q 49 838 84 861 q 27 909 27 895 l 30 916 m 83 854 l 83 854 l 83 863 l 84 863 q 85 857 91 857 l 83 854 m 420 930 q 423 930 426 930 l 420 930 z "},"":{"ha":538,"x_min":-3,"x_max":457,"o":"m 280 1271 l 288 1271 q 389 1208 339 1248 q 437 1148 437 1168 l 435 1148 l 440 1131 l 441 1131 q 448 1105 443 1130 l 456 1086 l 454 1074 l 457 1041 q 445 980 452 1026 q 357 848 441 962 q 282 814 320 814 q 207 809 245 809 l 189 809 q 104 836 172 809 q 18 951 18 911 q -3 997 6 977 q 23 1077 -3 1008 q 44 1136 23 1119 q 157 1257 88 1230 q 253 1278 216 1278 l 280 1271 m 82 988 l 82 982 q 111 929 93 960 q 147 902 111 919 q 212 873 164 884 l 229 871 q 291 888 268 879 l 325 916 q 376 1009 378 971 l 376 1017 q 371 1066 371 1033 q 374 1107 371 1090 q 338 1139 374 1112 q 282 1184 311 1175 l 271 1184 q 160 1166 160 1180 q 125 1119 136 1142 q 95 1078 95 1089 q 82 988 87 1044 z "},"":{"ha":1082,"x_min":7,"x_max":1119,"o":"m 585 1253 q 694 1211 694 1237 l 785 943 l 846 727 q 967 271 891 514 l 1002 193 l 1012 148 l 1006 126 q 1055 109 1028 113 l 1093 109 l 1096 110 q 1119 100 1115 106 l 1107 77 l 1109 46 q 1090 5 1109 27 l 1084 5 l 1067 1 l 1067 -4 q 1046 -14 1067 -9 l 1020 -5 l 1002 -5 l 884 -18 q 787 30 848 -18 l 802 46 l 802 53 l 784 94 q 853 115 784 115 l 856 118 l 856 125 q 779 317 856 210 l 776 317 q 319 277 582 301 l 277 277 q 225 127 267 267 l 225 126 q 247 118 235 118 l 285 118 q 396 66 350 118 l 396 64 q 349 14 396 49 q 62 -7 349 -7 q 15 4 15 -4 l 22 28 l 22 31 q 7 64 22 38 q 41 92 7 76 l 45 99 l 45 126 q 62 142 45 142 l 69 136 q 83 175 88 175 q 114 266 102 214 l 212 537 l 247 625 q 281 682 248 643 l 281 686 l 275 705 q 294 730 294 718 l 290 734 q 313 774 290 753 l 311 787 l 397 1040 q 456 1176 433 1104 q 484 1214 461 1177 q 585 1253 560 1251 m 313 406 l 319 401 q 707 441 564 441 l 783 441 l 789 448 l 789 452 q 637 877 665 787 q 595 1000 610 967 q 571 1034 582 1027 l 571 993 q 380 633 430 715 q 313 415 350 576 l 313 406 m 869 -5 l 869 -8 l 869 -5 m 406 1541 q 480 1575 434 1561 q 656 1450 533 1548 q 669 1435 662 1450 q 667 1440 669 1438 l 769 1350 l 667 1313 l 646 1329 l 557 1393 l 555 1398 l 406 1541 z "},"":{"ha":1082,"x_min":7,"x_max":1119,"o":"m 585 1253 q 694 1211 694 1237 l 785 943 l 846 727 q 967 271 891 514 l 1002 193 l 1012 148 l 1006 126 q 1055 109 1028 113 l 1093 109 l 1096 110 q 1119 100 1115 106 l 1107 77 l 1109 46 q 1090 5 1109 27 l 1084 5 l 1067 1 l 1067 -4 q 1046 -14 1067 -9 l 1020 -5 l 1002 -5 l 884 -18 q 787 30 848 -18 l 802 46 l 802 53 l 784 94 q 853 115 784 115 l 856 118 l 856 125 q 779 317 856 210 l 776 317 q 319 277 582 301 l 277 277 q 225 127 267 267 l 225 126 q 247 118 235 118 l 285 118 q 396 66 350 118 l 396 64 q 349 14 396 49 q 62 -7 349 -7 q 15 4 15 -4 l 22 28 l 22 31 q 7 64 22 38 q 41 92 7 76 l 45 99 l 45 126 q 62 142 45 142 l 69 136 q 83 175 88 175 q 114 266 102 214 l 212 537 l 247 625 q 281 682 248 643 l 281 686 l 275 705 q 294 730 294 718 l 290 734 q 313 774 290 753 l 311 787 l 397 1040 q 456 1176 433 1104 q 484 1214 461 1177 q 585 1253 560 1251 m 313 406 l 319 401 q 707 441 564 441 l 783 441 l 789 448 l 789 452 q 637 877 665 787 q 595 1000 610 967 q 571 1034 582 1027 l 571 993 q 380 633 430 715 q 313 415 350 576 l 313 406 m 869 -5 l 869 -8 l 869 -5 m 644 1499 q 564 1401 567 1416 l 563 1394 l 498 1322 l 481 1303 l 407 1345 l 481 1447 q 480 1443 480 1444 q 490 1459 486 1458 l 620 1600 q 675 1563 655 1586 l 644 1499 m 513 1344 l 510 1344 l 513 1344 z "},"":{"ha":1082,"x_min":7,"x_max":1119,"o":"m 585 1253 q 694 1211 694 1237 l 785 943 l 846 727 q 967 271 891 514 l 1002 193 l 1012 148 l 1006 126 q 1055 109 1028 113 l 1093 109 l 1096 110 q 1119 100 1115 106 l 1107 77 l 1109 46 q 1090 5 1109 27 l 1084 5 l 1067 1 l 1067 -4 q 1046 -14 1067 -9 l 1020 -5 l 1002 -5 l 884 -18 q 787 30 848 -18 l 802 46 l 802 53 l 784 94 q 853 115 784 115 l 856 118 l 856 125 q 779 317 856 210 l 776 317 q 319 277 582 301 l 277 277 q 225 127 267 267 l 225 126 q 247 118 235 118 l 285 118 q 396 66 350 118 l 396 64 q 349 14 396 49 q 62 -7 349 -7 q 15 4 15 -4 l 22 28 l 22 31 q 7 64 22 38 q 41 92 7 76 l 45 99 l 45 126 q 62 142 45 142 l 69 136 q 83 175 88 175 q 114 266 102 214 l 212 537 l 247 625 q 281 682 248 643 l 281 686 l 275 705 q 294 730 294 718 l 290 734 q 313 774 290 753 l 311 787 l 397 1040 q 456 1176 433 1104 q 484 1214 461 1177 q 585 1253 560 1251 m 313 406 l 319 401 q 707 441 564 441 l 783 441 l 789 448 l 789 452 q 637 877 665 787 q 595 1000 610 967 q 571 1034 582 1027 l 571 993 q 380 633 430 715 q 313 415 350 576 l 313 406 m 869 -5 l 869 -8 l 869 -5 m 326 1345 l 378 1442 q 396 1474 385 1444 l 410 1496 l 410 1497 q 406 1503 406 1500 q 439 1535 418 1514 q 452 1561 446 1558 q 469 1586 460 1561 q 515 1624 495 1605 q 564 1629 533 1632 l 579 1622 q 600 1613 600 1621 l 598 1613 l 598 1609 l 601 1605 q 655 1530 602 1605 l 677 1487 q 732 1413 727 1427 l 770 1345 l 696 1325 q 629 1423 661 1370 q 578 1506 597 1476 q 552 1545 559 1535 l 495 1470 q 425 1320 476 1444 l 326 1345 z "},"":{"ha":1082,"x_min":7,"x_max":1119,"o":"m 585 1253 q 694 1211 694 1237 l 785 943 l 846 727 q 967 271 891 514 l 1002 193 l 1012 148 l 1006 126 q 1055 109 1028 113 l 1093 109 l 1096 110 q 1119 100 1115 106 l 1107 77 l 1109 46 q 1090 5 1109 27 l 1084 5 l 1067 1 l 1067 -4 q 1046 -14 1067 -9 l 1020 -5 l 1002 -5 l 884 -18 q 787 30 848 -18 l 802 46 l 802 53 l 784 94 q 853 115 784 115 l 856 118 l 856 125 q 779 317 856 210 l 776 317 q 319 277 582 301 l 277 277 q 225 127 267 267 l 225 126 q 247 118 235 118 l 285 118 q 396 66 350 118 l 396 64 q 349 14 396 49 q 62 -7 349 -7 q 15 4 15 -4 l 22 28 l 22 31 q 7 64 22 38 q 41 92 7 76 l 45 99 l 45 126 q 62 142 45 142 l 69 136 q 83 175 88 175 q 114 266 102 214 l 212 537 l 247 625 q 281 682 248 643 l 281 686 l 275 705 q 294 730 294 718 l 290 734 q 313 774 290 753 l 311 787 l 397 1040 q 456 1176 433 1104 q 484 1214 461 1177 q 585 1253 560 1251 m 313 406 l 319 401 q 707 441 564 441 l 783 441 l 789 448 l 789 452 q 637 877 665 787 q 595 1000 610 967 q 571 1034 582 1027 l 571 993 q 380 633 430 715 q 313 415 350 576 l 313 406 m 869 -5 l 869 -8 l 869 -5 m 369 1512 q 396 1538 380 1516 q 494 1572 426 1563 q 530 1561 505 1572 l 553 1542 l 582 1506 q 610 1459 600 1489 l 661 1434 l 662 1434 q 713 1453 694 1440 q 735 1488 736 1463 l 735 1504 q 720 1515 736 1504 q 783 1516 761 1537 q 796 1478 787 1516 l 796 1463 q 766 1415 796 1439 q 731 1389 749 1396 q 652 1371 715 1374 q 628 1377 648 1371 l 627 1377 q 627 1374 628 1374 l 625 1374 l 620 1375 q 568 1416 576 1401 q 559 1435 568 1431 l 543 1455 l 534 1480 q 472 1506 509 1507 l 471 1506 q 441 1499 453 1506 q 429 1469 429 1493 l 430 1457 q 388 1435 423 1458 q 366 1506 366 1492 l 369 1512 m 422 1451 l 422 1451 l 422 1459 l 423 1459 q 425 1454 430 1454 l 422 1451 m 760 1527 q 762 1527 765 1527 l 760 1527 z "},"":{"ha":1082,"x_min":7,"x_max":1119,"o":"m 585 1253 q 694 1211 694 1237 l 785 943 l 846 727 q 967 271 891 514 l 1002 193 l 1012 148 l 1006 126 q 1055 109 1028 113 l 1093 109 l 1096 110 q 1119 100 1115 106 l 1107 77 l 1109 46 q 1090 5 1109 27 l 1084 5 l 1067 1 l 1067 -4 q 1046 -14 1067 -9 l 1020 -5 l 1002 -5 l 884 -18 q 787 30 848 -18 l 802 46 l 802 53 l 784 94 q 853 115 784 115 l 856 118 l 856 125 q 779 317 856 210 l 776 317 q 319 277 582 301 l 277 277 q 225 127 267 267 l 225 126 q 247 118 235 118 l 285 118 q 396 66 350 118 l 396 64 q 349 14 396 49 q 62 -7 349 -7 q 15 4 15 -4 l 22 28 l 22 31 q 7 64 22 38 q 41 92 7 76 l 45 99 l 45 126 q 62 142 45 142 l 69 136 q 83 175 88 175 q 114 266 102 214 l 212 537 l 247 625 q 281 682 248 643 l 281 686 l 275 705 q 294 730 294 718 l 290 734 q 313 774 290 753 l 311 787 l 397 1040 q 456 1176 433 1104 q 484 1214 461 1177 q 585 1253 560 1251 m 313 406 l 319 401 q 707 441 564 441 l 783 441 l 789 448 l 789 452 q 637 877 665 787 q 595 1000 610 967 q 571 1034 582 1027 l 571 993 q 380 633 430 715 q 313 415 350 576 l 313 406 m 869 -5 l 869 -8 l 869 -5 m 382 1516 q 463 1485 439 1507 q 471 1453 471 1469 l 471 1426 q 382 1313 471 1350 l 358 1303 q 282 1377 319 1303 l 282 1386 q 309 1485 282 1468 q 382 1516 362 1516 m 711 1507 q 792 1476 768 1497 q 799 1443 799 1459 l 799 1416 q 711 1303 799 1340 l 688 1294 q 612 1367 648 1294 l 612 1377 q 637 1476 612 1458 q 711 1507 690 1507 z "},"":{"ha":1082,"x_min":7,"x_max":1119,"o":"m 585 1253 q 694 1211 694 1237 l 785 943 l 846 727 q 967 271 891 514 l 1002 193 l 1012 148 l 1006 126 q 1055 109 1028 113 l 1093 109 l 1096 110 q 1119 100 1115 106 l 1107 77 l 1109 46 q 1090 5 1109 27 l 1084 5 l 1067 1 l 1067 -4 q 1046 -14 1067 -9 l 1020 -5 l 1002 -5 l 884 -18 q 787 30 848 -18 l 802 46 l 802 53 l 784 94 q 853 115 784 115 l 856 118 l 856 125 q 779 317 856 210 l 776 317 q 319 277 582 301 l 277 277 q 225 127 267 267 l 225 126 q 247 118 235 118 l 285 118 q 396 66 350 118 l 396 64 q 349 14 396 49 q 62 -7 349 -7 q 15 4 15 -4 l 22 28 l 22 31 q 7 64 22 38 q 41 92 7 76 l 45 99 l 45 126 q 62 142 45 142 l 69 136 q 83 175 88 175 q 114 266 102 214 l 212 537 l 247 625 q 281 682 248 643 l 281 686 l 275 705 q 294 730 294 718 l 290 734 q 313 774 290 753 l 311 787 l 397 1040 q 456 1176 433 1104 q 484 1214 461 1177 q 585 1253 560 1251 m 313 406 l 319 401 q 707 441 564 441 l 783 441 l 789 448 l 789 452 q 637 877 665 787 q 595 1000 610 967 q 571 1034 582 1027 l 571 993 q 380 633 430 715 q 313 415 350 576 l 313 406 m 869 -5 l 869 -8 l 869 -5 m 581 1572 l 587 1572 q 663 1522 625 1553 q 700 1473 700 1489 l 700 1473 q 703 1459 693 1482 l 704 1459 q 709 1438 705 1459 l 715 1423 l 713 1413 l 716 1386 q 707 1337 712 1375 q 639 1233 704 1324 q 583 1204 612 1204 q 526 1200 555 1200 l 513 1200 q 448 1222 499 1200 q 382 1314 382 1283 q 366 1352 373 1335 q 387 1416 366 1360 q 401 1463 387 1450 q 487 1560 435 1538 q 562 1577 532 1577 l 581 1572 m 431 1344 l 431 1340 q 453 1297 439 1322 q 480 1275 453 1290 q 529 1252 494 1261 l 543 1251 q 590 1264 572 1257 l 616 1287 q 655 1362 655 1332 l 655 1367 q 650 1407 650 1381 q 652 1439 650 1426 q 625 1466 652 1443 q 583 1501 605 1495 l 575 1501 q 490 1488 490 1499 q 464 1450 472 1469 q 441 1416 441 1426 q 431 1344 434 1389 z "},"":{"ha":1375,"x_min":7,"x_max":1352,"o":"m 811 1286 q 1241 1267 1241 1280 q 1229 1260 1241 1261 l 1229 1256 l 1232 1256 q 1326 1284 1252 1275 l 1336 1286 q 1343 1260 1343 1272 q 1352 1073 1343 1156 l 1317 1000 q 1274 987 1295 987 q 1214 1023 1214 987 l 1214 1028 q 1233 1057 1215 1038 q 1214 1089 1214 1065 q 1185 1123 1214 1123 l 1153 1124 l 1153 1118 l 1138 1115 l 906 1120 l 787 1120 q 668 1112 663 1120 q 685 750 673 1104 q 707 738 696 738 l 720 738 l 814 743 l 966 726 q 986 779 986 726 q 1032 811 986 802 l 1046 821 q 1070 627 1070 821 l 1070 551 q 1061 529 1070 532 q 989 551 1032 541 q 970 608 981 551 q 823 627 970 627 q 690 614 690 627 l 688 586 l 700 393 q 682 168 694 286 l 690 165 q 899 184 818 174 l 903 184 q 1172 164 1008 184 l 1176 164 q 1194 183 1188 164 l 1203 183 l 1222 165 l 1223 165 l 1226 175 q 1213 209 1226 209 l 1198 203 q 1169 244 1177 218 q 1238 273 1169 264 q 1286 250 1245 273 q 1308 212 1308 250 q 1317 -5 1309 69 l 1312 -24 l 1302 -24 q 1203 -7 1286 -15 q 536 12 1203 -1 q 492 47 492 12 q 486 114 486 53 l 495 155 l 492 174 l 500 183 l 505 183 q 533 165 522 165 l 538 165 q 578 194 578 174 l 575 300 q 319 277 457 289 l 277 277 q 225 127 267 267 l 225 126 q 247 118 235 118 l 285 118 q 396 66 350 118 l 396 64 q 349 14 396 49 q 62 -7 349 -7 q 15 4 15 -4 l 22 28 l 22 31 q 7 64 22 38 q 41 92 7 76 l 45 99 l 45 126 q 62 142 45 142 l 69 136 q 83 175 88 175 q 114 266 102 214 l 212 537 l 247 625 q 281 682 248 643 l 281 686 l 275 705 q 294 730 294 718 l 290 734 q 313 774 290 753 l 311 787 l 397 1040 l 448 1234 q 495 1264 449 1272 l 496 1264 l 811 1286 m 313 406 l 319 401 q 571 434 463 425 l 567 620 q 548 667 567 633 q 560 971 552 667 q 380 633 427 711 q 313 415 350 576 l 313 406 z "},"":{"ha":1090,"x_min":22,"x_max":1066,"o":"m 547 1244 l 563 1244 q 766 1180 656 1244 q 841 1124 826 1124 l 850 1124 q 867 1146 867 1133 l 867 1149 l 857 1177 q 867 1222 857 1183 q 905 1227 876 1227 q 975 1191 916 1227 q 987 1177 987 1191 l 987 1001 q 968 859 987 879 l 966 852 l 971 845 l 971 842 q 888 814 971 814 q 864 804 872 804 l 857 804 q 814 911 857 836 q 753 1058 784 1034 q 585 1118 723 1095 l 529 1123 l 456 1115 q 437 1108 408 1097 l 437 1105 q 271 981 396 1063 q 193 876 220 943 l 148 665 q 190 406 148 484 q 363 114 266 199 q 604 45 492 45 l 632 45 q 755 85 688 45 q 854 190 774 123 q 918 273 918 240 l 918 279 l 917 330 q 940 351 917 338 q 949 363 940 358 l 955 363 l 1000 355 l 1032 355 q 1047 330 1047 355 q 1066 199 1066 239 q 1042 42 1066 104 l 1042 35 l 1044 22 l 1035 7 l 1035 4 q 1066 -5 1035 0 l 1066 -9 l 943 -69 l 937 -69 q 892 22 911 -35 l 890 23 l 888 23 q 803 -22 856 11 q 623 -85 656 -85 l 509 -50 l 487 -47 l 475 -47 l 452 -54 q 311 -15 407 -54 q 180 88 232 5 q 47 382 47 281 q 31 487 31 452 q 31 526 34 506 q 22 731 26 526 q 73 899 22 776 q 83 952 79 899 q 98 997 90 955 q 237 1115 151 1059 q 347 1181 277 1152 q 547 1244 490 1244 m 484 -3 l 487 -50 q 463 -136 476 -60 q 564 -142 473 -148 l 574 -142 q 669 -174 640 -142 l 747 -217 l 764 -231 l 764 -232 l 762 -232 l 779 -244 q 787 -254 787 -250 l 799 -275 q 808 -312 807 -275 l 808 -349 q 806 -416 829 -385 l 802 -416 q 578 -579 700 -571 q 399 -590 448 -590 q 312 -583 387 -586 l 311 -583 l 311 -582 l 328 -498 q 363 -475 328 -475 l 369 -473 q 395 -484 391 -484 l 400 -484 q 443 -481 414 -484 q 476 -479 472 -479 q 665 -302 659 -469 q 600 -271 654 -288 l 541 -258 l 537 -258 q 388 -286 492 -258 l 366 -289 l 362 -285 l 362 -282 q 358 -175 366 -282 q 382 -45 373 -156 q 395 -4 385 -4 l 396 -3 l 396 -1 l 395 8 l 396 8 q 454 4 403 4 q 484 -3 479 4 z "},"":{"ha":963,"x_min":1,"x_max":951,"o":"m 410 1303 q 840 1284 840 1298 q 827 1278 840 1279 l 827 1274 l 830 1274 q 925 1302 850 1293 l 935 1303 q 941 1278 941 1290 q 951 1090 941 1173 l 916 1017 q 872 1005 894 1005 q 812 1040 812 1005 l 812 1046 q 831 1074 814 1055 q 812 1107 812 1082 q 784 1141 812 1141 l 751 1142 l 751 1135 l 736 1133 l 505 1138 l 385 1138 q 267 1130 262 1138 q 283 768 271 1122 q 305 755 294 755 l 319 755 l 412 761 l 564 743 q 585 796 585 743 q 631 829 585 819 l 644 838 q 669 644 669 838 l 669 568 q 659 547 669 549 q 587 568 631 559 q 568 625 579 568 q 422 644 568 644 q 289 632 289 644 l 286 604 l 298 411 q 281 186 293 304 l 289 183 q 498 202 416 191 l 502 202 q 770 182 606 202 l 774 182 q 792 201 787 182 l 802 201 l 821 183 l 822 183 l 825 193 q 811 227 825 227 l 796 221 q 768 262 776 236 q 837 290 768 282 q 884 267 844 290 q 906 229 906 267 q 916 12 907 87 l 910 -7 l 901 -7 q 802 11 884 3 q 134 30 802 16 q 91 65 91 30 q 84 132 84 71 l 94 172 l 91 191 l 99 201 l 103 201 q 132 183 121 183 l 137 183 q 176 212 176 191 l 165 637 q 146 685 165 651 q 160 1046 152 685 q 167 1084 167 1057 l 172 1131 l 106 1141 l 58 1154 l 34 1152 q 4 1236 4 1152 l 1 1237 q 42 1297 5 1297 l 43 1297 l 410 1303 m 270 1600 q 345 1634 298 1621 q 521 1510 397 1607 q 533 1495 526 1510 q 532 1500 533 1497 l 633 1409 l 532 1373 l 510 1389 l 422 1453 l 419 1458 l 270 1600 z "},"":{"ha":963,"x_min":1,"x_max":951,"o":"m 410 1303 q 840 1284 840 1298 q 827 1278 840 1279 l 827 1274 l 830 1274 q 925 1302 850 1293 l 935 1303 q 941 1278 941 1290 q 951 1090 941 1173 l 916 1017 q 872 1005 894 1005 q 812 1040 812 1005 l 812 1046 q 831 1074 814 1055 q 812 1107 812 1082 q 784 1141 812 1141 l 751 1142 l 751 1135 l 736 1133 l 505 1138 l 385 1138 q 267 1130 262 1138 q 283 768 271 1122 q 305 755 294 755 l 319 755 l 412 761 l 564 743 q 585 796 585 743 q 631 829 585 819 l 644 838 q 669 644 669 838 l 669 568 q 659 547 669 549 q 587 568 631 559 q 568 625 579 568 q 422 644 568 644 q 289 632 289 644 l 286 604 l 298 411 q 281 186 293 304 l 289 183 q 498 202 416 191 l 502 202 q 770 182 606 202 l 774 182 q 792 201 787 182 l 802 201 l 821 183 l 822 183 l 825 193 q 811 227 825 227 l 796 221 q 768 262 776 236 q 837 290 768 282 q 884 267 844 290 q 906 229 906 267 q 916 12 907 87 l 910 -7 l 901 -7 q 802 11 884 3 q 134 30 802 16 q 91 65 91 30 q 84 132 84 71 l 94 172 l 91 191 l 99 201 l 103 201 q 132 183 121 183 l 137 183 q 176 212 176 191 l 165 637 q 146 685 165 651 q 160 1046 152 685 q 167 1084 167 1057 l 172 1131 l 106 1141 l 58 1154 l 34 1152 q 4 1236 4 1152 l 1 1237 q 42 1297 5 1297 l 43 1297 l 410 1303 m 572 1558 q 492 1461 495 1476 l 491 1454 l 426 1382 l 410 1363 l 335 1405 l 410 1507 q 408 1503 408 1504 q 418 1519 414 1518 l 548 1660 q 604 1622 583 1645 l 572 1558 m 441 1404 l 438 1404 l 441 1404 z "},"":{"ha":963,"x_min":1,"x_max":951,"o":"m 410 1303 q 840 1284 840 1298 q 827 1278 840 1279 l 827 1274 l 830 1274 q 925 1302 850 1293 l 935 1303 q 941 1278 941 1290 q 951 1090 941 1173 l 916 1017 q 872 1005 894 1005 q 812 1040 812 1005 l 812 1046 q 831 1074 814 1055 q 812 1107 812 1082 q 784 1141 812 1141 l 751 1142 l 751 1135 l 736 1133 l 505 1138 l 385 1138 q 267 1130 262 1138 q 283 768 271 1122 q 305 755 294 755 l 319 755 l 412 761 l 564 743 q 585 796 585 743 q 631 829 585 819 l 644 838 q 669 644 669 838 l 669 568 q 659 547 669 549 q 587 568 631 559 q 568 625 579 568 q 422 644 568 644 q 289 632 289 644 l 286 604 l 298 411 q 281 186 293 304 l 289 183 q 498 202 416 191 l 502 202 q 770 182 606 202 l 774 182 q 792 201 787 182 l 802 201 l 821 183 l 822 183 l 825 193 q 811 227 825 227 l 796 221 q 768 262 776 236 q 837 290 768 282 q 884 267 844 290 q 906 229 906 267 q 916 12 907 87 l 910 -7 l 901 -7 q 802 11 884 3 q 134 30 802 16 q 91 65 91 30 q 84 132 84 71 l 94 172 l 91 191 l 99 201 l 103 201 q 132 183 121 183 l 137 183 q 176 212 176 191 l 165 637 q 146 685 165 651 q 160 1046 152 685 q 167 1084 167 1057 l 172 1131 l 106 1141 l 58 1154 l 34 1152 q 4 1236 4 1152 l 1 1237 q 42 1297 5 1297 l 43 1297 l 410 1303 m 228 1411 l 281 1507 q 298 1539 288 1510 l 312 1561 l 312 1563 q 308 1568 308 1565 q 342 1600 320 1579 q 354 1626 349 1624 q 372 1651 362 1626 q 418 1689 397 1670 q 467 1694 435 1697 l 481 1687 q 502 1678 502 1686 l 500 1678 l 500 1674 l 503 1670 q 557 1595 505 1670 l 579 1552 q 635 1478 629 1492 l 673 1411 l 598 1390 q 531 1488 563 1435 q 480 1571 499 1541 q 454 1610 461 1600 l 397 1535 q 327 1385 378 1510 l 228 1411 z "},"":{"ha":963,"x_min":1,"x_max":951,"o":"m 410 1303 q 840 1284 840 1298 q 827 1278 840 1279 l 827 1274 l 830 1274 q 925 1302 850 1293 l 935 1303 q 941 1278 941 1290 q 951 1090 941 1173 l 916 1017 q 872 1005 894 1005 q 812 1040 812 1005 l 812 1046 q 831 1074 814 1055 q 812 1107 812 1082 q 784 1141 812 1141 l 751 1142 l 751 1135 l 736 1133 l 505 1138 l 385 1138 q 267 1130 262 1138 q 283 768 271 1122 q 305 755 294 755 l 319 755 l 412 761 l 564 743 q 585 796 585 743 q 631 829 585 819 l 644 838 q 669 644 669 838 l 669 568 q 659 547 669 549 q 587 568 631 559 q 568 625 579 568 q 422 644 568 644 q 289 632 289 644 l 286 604 l 298 411 q 281 186 293 304 l 289 183 q 498 202 416 191 l 502 202 q 770 182 606 202 l 774 182 q 792 201 787 182 l 802 201 l 821 183 l 822 183 l 825 193 q 811 227 825 227 l 796 221 q 768 262 776 236 q 837 290 768 282 q 884 267 844 290 q 906 229 906 267 q 916 12 907 87 l 910 -7 l 901 -7 q 802 11 884 3 q 134 30 802 16 q 91 65 91 30 q 84 132 84 71 l 94 172 l 91 191 l 99 201 l 103 201 q 132 183 121 183 l 137 183 q 176 212 176 191 l 165 637 q 146 685 165 651 q 160 1046 152 685 q 167 1084 167 1057 l 172 1131 l 106 1141 l 58 1154 l 34 1152 q 4 1236 4 1152 l 1 1237 q 42 1297 5 1297 l 43 1297 l 410 1303 m 334 1610 q 414 1579 391 1600 q 422 1546 422 1563 l 422 1519 q 334 1407 422 1443 l 309 1397 q 233 1470 270 1397 l 233 1480 q 260 1579 233 1561 q 334 1610 313 1610 m 662 1600 q 743 1569 719 1591 q 750 1537 750 1553 l 750 1510 q 662 1397 750 1434 l 639 1388 q 563 1461 600 1388 l 563 1470 q 589 1569 563 1552 q 662 1600 642 1600 z "},"":{"ha":601,"x_min":-27,"x_max":581,"o":"m 156 1225 l 184 1222 q 438 1253 308 1222 l 448 1251 l 448 1248 l 441 1234 q 484 1222 457 1222 q 519 1108 519 1183 l 519 1104 q 427 1058 519 1067 q 351 1013 351 1058 l 351 760 q 332 719 351 719 l 330 716 l 330 697 l 334 652 l 334 650 l 349 560 q 362 247 349 471 q 343 161 355 174 q 365 149 343 149 l 372 149 q 536 171 446 171 q 581 118 581 171 l 581 102 q 560 7 581 7 l 513 7 l 486 0 l 467 12 l 64 0 q 38 85 38 0 l 38 123 q 45 137 39 137 l 47 137 l 64 152 l 73 156 q 187 145 106 156 l 194 145 q 210 159 208 145 l 203 232 l 213 346 q 168 1038 187 1038 l 1 1047 q -27 1096 -27 1077 l -27 1127 l -24 1165 q -27 1227 -24 1184 l -19 1219 l -9 1219 q 156 1225 35 1219 m 76 1225 l 73 1222 l 73 1219 l 80 1213 l 83 1213 l 83 1222 l 76 1225 m 69 1640 q 144 1674 98 1660 q 320 1549 197 1647 q 332 1534 326 1549 q 331 1539 332 1537 l 433 1449 l 331 1412 l 309 1428 l 221 1492 l 218 1497 l 69 1640 z "},"":{"ha":601,"x_min":-27,"x_max":581,"o":"m 156 1225 l 184 1222 q 438 1253 308 1222 l 448 1251 l 448 1248 l 441 1234 q 484 1222 457 1222 q 519 1108 519 1183 l 519 1104 q 427 1058 519 1067 q 351 1013 351 1058 l 351 760 q 332 719 351 719 l 330 716 l 330 697 l 334 652 l 334 650 l 349 560 q 362 247 349 471 q 343 161 355 174 q 365 149 343 149 l 372 149 q 536 171 446 171 q 581 118 581 171 l 581 102 q 560 7 581 7 l 513 7 l 486 0 l 467 12 l 64 0 q 38 85 38 0 l 38 123 q 45 137 39 137 l 47 137 l 64 152 l 73 156 q 187 145 106 156 l 194 145 q 210 159 208 145 l 203 232 l 213 346 q 168 1038 187 1038 l 1 1047 q -27 1096 -27 1077 l -27 1127 l -24 1165 q -27 1227 -24 1184 l -19 1219 l -9 1219 q 156 1225 35 1219 m 76 1225 l 73 1222 l 73 1219 l 80 1213 l 83 1213 l 83 1222 l 76 1225 m 425 1506 q 345 1408 347 1423 l 343 1401 l 278 1329 l 262 1310 l 187 1352 l 262 1454 q 260 1450 260 1451 q 270 1466 266 1465 l 400 1607 q 456 1569 435 1592 l 425 1506 m 293 1351 l 290 1351 l 293 1351 z "},"":{"ha":601,"x_min":-27,"x_max":581,"o":"m 156 1225 l 184 1222 q 438 1253 308 1222 l 448 1251 l 448 1248 l 441 1234 q 484 1222 457 1222 q 519 1108 519 1183 l 519 1104 q 427 1058 519 1067 q 351 1013 351 1058 l 351 760 q 332 719 351 719 l 330 716 l 330 697 l 334 652 l 334 650 l 349 560 q 362 247 349 471 q 343 161 355 174 q 365 149 343 149 l 372 149 q 536 171 446 171 q 581 118 581 171 l 581 102 q 560 7 581 7 l 513 7 l 486 0 l 467 12 l 64 0 q 38 85 38 0 l 38 123 q 45 137 39 137 l 47 137 l 64 152 l 73 156 q 187 145 106 156 l 194 145 q 210 159 208 145 l 203 232 l 213 346 q 168 1038 187 1038 l 1 1047 q -27 1096 -27 1077 l -27 1127 l -24 1165 q -27 1227 -24 1184 l -19 1219 l -9 1219 q 156 1225 35 1219 m 76 1225 l 73 1222 l 73 1219 l 80 1213 l 83 1213 l 83 1222 l 76 1225 m 65 1381 l 118 1477 q 136 1510 125 1480 l 149 1531 l 149 1533 q 145 1538 145 1535 q 179 1571 157 1549 q 191 1596 186 1594 q 209 1621 199 1596 q 255 1659 235 1640 q 304 1664 273 1667 l 319 1657 q 339 1648 339 1656 l 338 1648 l 338 1644 l 340 1640 q 395 1565 342 1640 l 416 1522 q 472 1449 467 1462 l 510 1381 l 435 1360 q 368 1458 400 1405 q 317 1541 336 1511 q 292 1580 298 1571 l 235 1506 q 164 1355 216 1480 l 65 1381 z "},"":{"ha":601,"x_min":-27,"x_max":581,"o":"m 156 1225 l 184 1222 q 438 1253 308 1222 l 448 1251 l 448 1248 l 441 1234 q 484 1222 457 1222 q 519 1108 519 1183 l 519 1104 q 427 1058 519 1067 q 351 1013 351 1058 l 351 760 q 332 719 351 719 l 330 716 l 330 697 l 334 652 l 334 650 l 349 560 q 362 247 349 471 q 343 161 355 174 q 365 149 343 149 l 372 149 q 536 171 446 171 q 581 118 581 171 l 581 102 q 560 7 581 7 l 513 7 l 486 0 l 467 12 l 64 0 q 38 85 38 0 l 38 123 q 45 137 39 137 l 47 137 l 64 152 l 73 156 q 187 145 106 156 l 194 145 q 210 159 208 145 l 203 232 l 213 346 q 168 1038 187 1038 l 1 1047 q -27 1096 -27 1077 l -27 1127 l -24 1165 q -27 1227 -24 1184 l -19 1219 l -9 1219 q 156 1225 35 1219 m 76 1225 l 73 1222 l 73 1219 l 80 1213 l 83 1213 l 83 1222 l 76 1225 m 148 1621 q 228 1590 205 1611 q 236 1557 236 1573 l 236 1530 q 148 1417 236 1454 l 123 1408 q 47 1481 84 1408 l 47 1491 q 75 1590 47 1572 q 148 1621 127 1621 m 476 1611 q 557 1580 533 1602 q 564 1548 564 1564 l 564 1520 q 476 1408 564 1444 l 453 1398 q 377 1472 414 1398 l 377 1481 q 403 1580 377 1563 q 476 1611 456 1611 z "},"":{"ha":1082,"x_min":35,"x_max":1080,"o":"m 1031 1328 l 1050 1328 q 1070 1280 1070 1328 l 1073 1274 l 1076 1271 l 1078 1264 l 1080 1264 q 1025 1210 1063 1210 q 956 1200 1025 1203 l 952 1194 q 1006 260 1006 502 l 1013 80 q 987 11 1013 11 q 933 7 975 7 l 873 7 q 826 27 826 7 q 776 141 821 66 q 715 321 750 273 q 689 359 715 330 q 506 694 593 517 q 425 852 487 723 q 311 1023 368 954 l 304 1023 l 304 977 q 316 742 304 918 q 285 327 316 617 l 285 301 l 297 260 l 290 127 l 300 77 l 290 39 l 290 33 q 292 1 292 12 q 266 -30 292 -30 l 104 -34 q 53 11 53 -27 q 35 103 45 76 q 126 149 35 113 l 129 151 l 129 213 q 140 245 129 236 l 140 251 q 126 374 126 251 l 126 397 q 167 1255 167 764 q 178 1314 168 1314 q 254 1324 178 1322 l 275 1324 q 382 1207 316 1324 q 494 1061 454 1118 l 575 925 q 727 631 669 817 q 804 502 787 502 q 829 576 829 528 l 826 654 l 831 916 q 819 1027 819 990 l 819 1034 q 833 1181 819 1138 q 734 1198 833 1198 l 728 1204 l 728 1267 q 781 1326 728 1326 q 1031 1328 997 1328 m 774 1229 l 779 1229 l 774 1229 m 323 1541 q 350 1567 334 1545 q 448 1600 380 1591 q 484 1590 458 1600 l 507 1571 l 536 1534 q 564 1488 553 1518 l 614 1462 l 616 1462 q 667 1481 648 1469 q 689 1516 690 1492 l 689 1533 q 674 1544 690 1533 q 736 1545 715 1565 q 750 1507 741 1545 l 750 1492 q 720 1443 750 1468 q 685 1417 703 1424 q 606 1400 669 1402 q 582 1405 602 1400 l 581 1405 q 581 1402 582 1402 l 579 1402 l 574 1404 q 522 1444 530 1430 q 513 1463 522 1459 l 496 1484 l 488 1508 q 426 1534 463 1535 l 425 1534 q 395 1527 407 1534 q 382 1497 382 1522 l 384 1485 q 342 1463 377 1487 q 320 1534 320 1520 l 323 1541 m 376 1480 l 376 1480 l 376 1488 l 377 1488 q 378 1482 384 1482 l 376 1480 m 713 1556 q 716 1556 719 1556 l 713 1556 z "},"":{"ha":1080,"x_min":35,"x_max":1061,"o":"m 617 1309 q 784 1268 760 1283 q 945 1112 920 1184 l 1012 1012 q 1061 715 1035 916 q 1016 449 1046 480 q 955 278 994 362 q 829 56 865 94 q 696 -8 757 -8 q 670 -26 670 -15 l 586 -58 l 575 -56 q 449 -68 494 -68 l 425 -68 q 281 -20 408 -68 q 199 46 250 -8 q 159 100 159 73 q 57 340 107 174 q 38 407 38 395 l 35 438 q 126 891 35 747 q 180 1036 156 933 q 247 1122 191 1055 q 395 1264 247 1169 q 500 1299 395 1272 l 617 1309 m 176 594 l 176 435 q 262 224 176 273 q 370 138 346 138 q 461 103 426 138 l 477 100 l 499 103 l 515 87 l 518 87 q 547 107 529 87 q 665 148 635 121 q 798 293 798 279 l 876 530 q 943 705 921 705 l 945 705 l 945 715 q 921 787 945 736 q 886 971 907 941 q 681 1164 846 1081 q 613 1188 628 1188 l 601 1188 q 509 1152 521 1152 q 503 1135 503 1152 q 376 1040 393 1063 l 285 924 q 225 815 252 883 q 176 594 176 707 m 358 1624 q 433 1657 387 1644 q 609 1533 486 1630 q 621 1518 614 1533 q 620 1523 621 1520 l 722 1432 l 620 1396 l 598 1412 l 510 1476 l 507 1481 l 358 1624 z "},"":{"ha":1080,"x_min":35,"x_max":1061,"o":"m 617 1309 q 784 1268 760 1283 q 945 1112 920 1184 l 1012 1012 q 1061 715 1035 916 q 1016 449 1046 480 q 955 278 994 362 q 829 56 865 94 q 696 -8 757 -8 q 670 -26 670 -15 l 586 -58 l 575 -56 q 449 -68 494 -68 l 425 -68 q 281 -20 408 -68 q 199 46 250 -8 q 159 100 159 73 q 57 340 107 174 q 38 407 38 395 l 35 438 q 126 891 35 747 q 180 1036 156 933 q 247 1122 191 1055 q 395 1264 247 1169 q 500 1299 395 1272 l 617 1309 m 176 594 l 176 435 q 262 224 176 273 q 370 138 346 138 q 461 103 426 138 l 477 100 l 499 103 l 515 87 l 518 87 q 547 107 529 87 q 665 148 635 121 q 798 293 798 279 l 876 530 q 943 705 921 705 l 945 705 l 945 715 q 921 787 945 736 q 886 971 907 941 q 681 1164 846 1081 q 613 1188 628 1188 l 601 1188 q 509 1152 521 1152 q 503 1135 503 1152 q 376 1040 393 1063 l 285 924 q 225 815 252 883 q 176 594 176 707 m 655 1576 q 575 1478 578 1493 l 574 1472 l 509 1400 l 492 1381 l 418 1423 l 492 1525 q 491 1520 491 1522 q 500 1537 496 1535 l 631 1678 q 686 1640 666 1663 l 655 1576 m 524 1421 l 521 1421 l 524 1421 z "},"":{"ha":1080,"x_min":35,"x_max":1061,"o":"m 617 1309 q 784 1268 760 1283 q 945 1112 920 1184 l 1012 1012 q 1061 715 1035 916 q 1016 449 1046 480 q 955 278 994 362 q 829 56 865 94 q 696 -8 757 -8 q 670 -26 670 -15 l 586 -58 l 575 -56 q 449 -68 494 -68 l 425 -68 q 281 -20 408 -68 q 199 46 250 -8 q 159 100 159 73 q 57 340 107 174 q 38 407 38 395 l 35 438 q 126 891 35 747 q 180 1036 156 933 q 247 1122 191 1055 q 395 1264 247 1169 q 500 1299 395 1272 l 617 1309 m 176 594 l 176 435 q 262 224 176 273 q 370 138 346 138 q 461 103 426 138 l 477 100 l 499 103 l 515 87 l 518 87 q 547 107 529 87 q 665 148 635 121 q 798 293 798 279 l 876 530 q 943 705 921 705 l 945 705 l 945 715 q 921 787 945 736 q 886 971 907 941 q 681 1164 846 1081 q 613 1188 628 1188 l 601 1188 q 509 1152 521 1152 q 503 1135 503 1152 q 376 1040 393 1063 l 285 924 q 225 815 252 883 q 176 594 176 707 m 355 1423 l 408 1519 q 426 1552 415 1522 l 439 1573 l 439 1575 q 435 1580 435 1577 q 469 1613 448 1591 q 481 1638 476 1636 q 499 1663 490 1638 q 545 1701 525 1682 q 594 1706 563 1709 l 609 1699 q 629 1690 629 1698 l 628 1690 l 628 1686 l 631 1682 q 685 1607 632 1682 l 707 1564 q 762 1491 757 1504 l 800 1423 l 726 1402 q 659 1500 690 1447 q 608 1583 627 1553 q 582 1622 589 1613 l 525 1548 q 454 1397 506 1522 l 355 1423 z "},"":{"ha":1080,"x_min":35,"x_max":1061,"o":"m 617 1309 q 784 1268 760 1283 q 945 1112 920 1184 l 1012 1012 q 1061 715 1035 916 q 1016 449 1046 480 q 955 278 994 362 q 829 56 865 94 q 696 -8 757 -8 q 670 -26 670 -15 l 586 -58 l 575 -56 q 449 -68 494 -68 l 425 -68 q 281 -20 408 -68 q 199 46 250 -8 q 159 100 159 73 q 57 340 107 174 q 38 407 38 395 l 35 438 q 126 891 35 747 q 180 1036 156 933 q 247 1122 191 1055 q 395 1264 247 1169 q 500 1299 395 1272 l 617 1309 m 176 594 l 176 435 q 262 224 176 273 q 370 138 346 138 q 461 103 426 138 l 477 100 l 499 103 l 515 87 l 518 87 q 547 107 529 87 q 665 148 635 121 q 798 293 798 279 l 876 530 q 943 705 921 705 l 945 705 l 945 715 q 921 787 945 736 q 886 971 907 941 q 681 1164 846 1081 q 613 1188 628 1188 l 601 1188 q 509 1152 521 1152 q 503 1135 503 1152 q 376 1040 393 1063 l 285 924 q 225 815 252 883 q 176 594 176 707 m 334 1541 q 361 1567 345 1545 q 458 1600 391 1591 q 495 1590 469 1600 l 518 1571 l 547 1534 q 575 1488 564 1518 l 625 1462 l 627 1462 q 678 1481 659 1469 q 700 1516 701 1492 l 700 1533 q 685 1544 701 1533 q 747 1545 726 1565 q 761 1507 751 1545 l 761 1492 q 731 1443 761 1468 q 696 1417 713 1424 q 617 1400 680 1402 q 593 1405 613 1400 l 591 1405 q 591 1402 593 1402 l 590 1402 l 585 1404 q 533 1444 541 1430 q 524 1463 533 1459 l 507 1484 l 499 1508 q 437 1534 473 1535 l 435 1534 q 406 1527 418 1534 q 393 1497 393 1522 l 395 1485 q 353 1463 388 1487 q 331 1534 331 1520 l 334 1541 m 387 1480 l 387 1480 l 387 1488 l 388 1488 q 389 1482 395 1482 l 387 1480 m 724 1556 q 727 1556 730 1556 l 724 1556 z "},"":{"ha":1080,"x_min":35,"x_max":1061,"o":"m 617 1309 q 784 1268 760 1283 q 945 1112 920 1184 l 1012 1012 q 1061 715 1035 916 q 1016 449 1046 480 q 955 278 994 362 q 829 56 865 94 q 696 -8 757 -8 q 670 -26 670 -15 l 586 -58 l 575 -56 q 449 -68 494 -68 l 425 -68 q 281 -20 408 -68 q 199 46 250 -8 q 159 100 159 73 q 57 340 107 174 q 38 407 38 395 l 35 438 q 126 891 35 747 q 180 1036 156 933 q 247 1122 191 1055 q 395 1264 247 1169 q 500 1299 395 1272 l 617 1309 m 176 594 l 176 435 q 262 224 176 273 q 370 138 346 138 q 461 103 426 138 l 477 100 l 499 103 l 515 87 l 518 87 q 547 107 529 87 q 665 148 635 121 q 798 293 798 279 l 876 530 q 943 705 921 705 l 945 705 l 945 715 q 921 787 945 736 q 886 971 907 941 q 681 1164 846 1081 q 613 1188 628 1188 l 601 1188 q 509 1152 521 1152 q 503 1135 503 1152 q 376 1040 393 1063 l 285 924 q 225 815 252 883 q 176 594 176 707 m 445 1681 q 525 1649 502 1671 q 533 1617 533 1633 l 533 1590 q 445 1477 533 1514 l 420 1468 q 345 1541 381 1468 l 345 1550 q 372 1649 345 1632 q 445 1681 425 1681 m 773 1671 q 854 1640 830 1662 q 861 1607 861 1624 l 861 1580 q 773 1468 861 1504 l 750 1458 q 674 1531 711 1458 l 674 1541 q 700 1640 674 1622 q 773 1671 753 1671 z "},"":{"ha":811,"x_min":104,"x_max":719,"o":"m 674 274 q 556 184 680 264 l 556 182 q 396 342 540 172 q 278 237 300 252 l 277 240 q 264 231 269 250 l 258 217 q 126 286 205 179 q 266 461 104 315 q 278 477 263 465 l 283 479 q 159 628 228 549 l 163 629 q 156 643 175 636 l 142 651 q 228 772 111 708 q 397 621 258 789 q 410 608 399 624 l 415 591 l 593 784 l 601 789 q 705 682 609 796 l 707 685 q 526 483 719 667 q 505 458 515 469 l 670 282 l 674 274 z "},"":{"ha":869,"x_min":-7,"x_max":869,"o":"m 114 1171 l 218 1158 l 262 1158 q 335 1145 335 1158 l 320 1127 l 320 1126 q 354 1111 320 1118 l 354 1107 q 323 1051 336 1095 l 212 1035 q 197 1031 212 1032 l 197 1028 l 205 890 q 186 709 205 850 l 186 674 q 197 518 186 623 l 195 515 l 193 515 q 193 301 189 439 q 216 243 209 271 q 297 142 243 243 q 425 110 334 110 l 471 98 l 484 98 q 576 164 548 98 q 658 304 597 193 q 684 387 684 332 l 684 418 l 677 601 l 681 624 q 689 613 686 624 l 693 613 q 708 671 707 613 q 684 689 684 671 l 696 829 q 643 1016 678 1016 q 551 1051 551 1029 q 529 1104 529 1081 q 642 1154 566 1154 q 774 1164 642 1161 q 867 1145 867 1164 l 869 1133 l 869 1104 q 810 1019 869 1046 l 804 1012 l 804 1009 q 833 700 822 749 q 807 408 807 625 q 731 142 807 382 q 700 92 704 92 l 699 73 l 699 72 q 651 34 694 64 q 557 3 621 3 l 509 7 l 406 -12 q 136 81 210 -12 q 104 121 104 96 l 107 138 q 41 330 79 179 l 31 401 l 31 414 l 35 449 l 24 453 l 26 472 l 15 494 q 41 566 18 526 l 41 651 l 64 883 l 64 1019 q 7 1050 64 1042 q -7 1139 -7 1085 q 114 1171 -7 1171 m 252 1407 q 327 1440 281 1427 q 503 1316 380 1413 q 515 1301 509 1316 q 514 1306 515 1303 l 616 1215 l 514 1179 l 492 1195 l 404 1259 l 401 1264 l 252 1407 z "},"":{"ha":869,"x_min":-7,"x_max":869,"o":"m 114 1171 l 218 1158 l 262 1158 q 335 1145 335 1158 l 320 1127 l 320 1126 q 354 1111 320 1118 l 354 1107 q 323 1051 336 1095 l 212 1035 q 197 1031 212 1032 l 197 1028 l 205 890 q 186 709 205 850 l 186 674 q 197 518 186 623 l 195 515 l 193 515 q 193 301 189 439 q 216 243 209 271 q 297 142 243 243 q 425 110 334 110 l 471 98 l 484 98 q 576 164 548 98 q 658 304 597 193 q 684 387 684 332 l 684 418 l 677 601 l 681 624 q 689 613 686 624 l 693 613 q 708 671 707 613 q 684 689 684 671 l 696 829 q 643 1016 678 1016 q 551 1051 551 1029 q 529 1104 529 1081 q 642 1154 566 1154 q 774 1164 642 1161 q 867 1145 867 1164 l 869 1133 l 869 1104 q 810 1019 869 1046 l 804 1012 l 804 1009 q 833 700 822 749 q 807 408 807 625 q 731 142 807 382 q 700 92 704 92 l 699 73 l 699 72 q 651 34 694 64 q 557 3 621 3 l 509 7 l 406 -12 q 136 81 210 -12 q 104 121 104 96 l 107 138 q 41 330 79 179 l 31 401 l 31 414 l 35 449 l 24 453 l 26 472 l 15 494 q 41 566 18 526 l 41 651 l 64 883 l 64 1019 q 7 1050 64 1042 q -7 1139 -7 1085 q 114 1171 -7 1171 m 537 1389 q 457 1291 460 1306 l 456 1284 l 391 1213 l 374 1194 l 300 1236 l 374 1337 q 373 1333 373 1335 q 382 1350 378 1348 l 513 1491 q 568 1453 548 1476 l 537 1389 m 406 1234 l 403 1234 l 406 1234 z "},"":{"ha":869,"x_min":-7,"x_max":869,"o":"m 114 1171 l 218 1158 l 262 1158 q 335 1145 335 1158 l 320 1127 l 320 1126 q 354 1111 320 1118 l 354 1107 q 323 1051 336 1095 l 212 1035 q 197 1031 212 1032 l 197 1028 l 205 890 q 186 709 205 850 l 186 674 q 197 518 186 623 l 195 515 l 193 515 q 193 301 189 439 q 216 243 209 271 q 297 142 243 243 q 425 110 334 110 l 471 98 l 484 98 q 576 164 548 98 q 658 304 597 193 q 684 387 684 332 l 684 418 l 677 601 l 681 624 q 689 613 686 624 l 693 613 q 708 671 707 613 q 684 689 684 671 l 696 829 q 643 1016 678 1016 q 551 1051 551 1029 q 529 1104 529 1081 q 642 1154 566 1154 q 774 1164 642 1161 q 867 1145 867 1164 l 869 1133 l 869 1104 q 810 1019 869 1046 l 804 1012 l 804 1009 q 833 700 822 749 q 807 408 807 625 q 731 142 807 382 q 700 92 704 92 l 699 73 l 699 72 q 651 34 694 64 q 557 3 621 3 l 509 7 l 406 -12 q 136 81 210 -12 q 104 121 104 96 l 107 138 q 41 330 79 179 l 31 401 l 31 414 l 35 449 l 24 453 l 26 472 l 15 494 q 41 566 18 526 l 41 651 l 64 883 l 64 1019 q 7 1050 64 1042 q -7 1139 -7 1085 q 114 1171 -7 1171 m 191 1276 l 244 1373 q 262 1405 251 1375 l 275 1427 l 275 1428 q 271 1434 271 1431 q 305 1466 283 1444 q 317 1492 312 1489 q 335 1516 326 1492 q 381 1554 361 1535 q 430 1560 399 1563 l 445 1553 q 465 1544 465 1552 l 464 1544 l 464 1539 l 467 1535 q 521 1461 468 1535 l 543 1417 q 598 1344 593 1358 l 636 1276 l 562 1256 q 494 1354 526 1301 q 444 1436 463 1407 q 418 1476 425 1466 l 361 1401 q 290 1251 342 1375 l 191 1276 z "},"":{"ha":869,"x_min":-7,"x_max":869,"o":"m 114 1171 l 218 1158 l 262 1158 q 335 1145 335 1158 l 320 1127 l 320 1126 q 354 1111 320 1118 l 354 1107 q 323 1051 336 1095 l 212 1035 q 197 1031 212 1032 l 197 1028 l 205 890 q 186 709 205 850 l 186 674 q 197 518 186 623 l 195 515 l 193 515 q 193 301 189 439 q 216 243 209 271 q 297 142 243 243 q 425 110 334 110 l 471 98 l 484 98 q 576 164 548 98 q 658 304 597 193 q 684 387 684 332 l 684 418 l 677 601 l 681 624 q 689 613 686 624 l 693 613 q 708 671 707 613 q 684 689 684 671 l 696 829 q 643 1016 678 1016 q 551 1051 551 1029 q 529 1104 529 1081 q 642 1154 566 1154 q 774 1164 642 1161 q 867 1145 867 1164 l 869 1133 l 869 1104 q 810 1019 869 1046 l 804 1012 l 804 1009 q 833 700 822 749 q 807 408 807 625 q 731 142 807 382 q 700 92 704 92 l 699 73 l 699 72 q 651 34 694 64 q 557 3 621 3 l 509 7 l 406 -12 q 136 81 210 -12 q 104 121 104 96 l 107 138 q 41 330 79 179 l 31 401 l 31 414 l 35 449 l 24 453 l 26 472 l 15 494 q 41 566 18 526 l 41 651 l 64 883 l 64 1019 q 7 1050 64 1042 q -7 1139 -7 1085 q 114 1171 -7 1171 m 278 1516 q 358 1485 335 1507 q 366 1453 366 1469 l 366 1426 q 278 1313 366 1350 l 254 1303 q 178 1377 214 1303 l 178 1386 q 205 1485 178 1468 q 278 1516 258 1516 m 606 1507 q 688 1476 663 1497 q 694 1443 694 1459 l 694 1416 q 606 1303 694 1340 l 583 1294 q 507 1367 544 1294 l 507 1377 q 533 1476 507 1458 q 606 1507 586 1507 z "},"":{"ha":926,"x_min":-33,"x_max":1055,"o":"m 346 1272 q 355 1265 355 1268 q 346 1146 350 1242 q 302 1133 342 1133 q 435 937 336 1062 l 476 852 q 545 773 499 812 q 631 880 572 795 q 751 1042 680 952 q 783 1108 783 1086 l 774 1114 l 736 1114 q 688 1215 694 1114 q 736 1238 688 1238 q 837 1260 736 1260 l 945 1260 q 1050 1244 1050 1260 q 1055 1200 1055 1232 l 1055 1177 q 1034 1127 1055 1127 q 1012 1116 1023 1127 l 994 1116 q 883 977 929 1032 q 773 838 837 922 q 623 640 629 673 l 623 631 q 635 408 635 609 q 661 140 635 140 l 663 140 l 716 130 l 751 126 l 755 114 l 754 57 l 754 42 l 770 23 l 770 16 q 597 -28 739 -28 q 395 -7 395 -24 l 391 41 l 393 104 q 452 130 393 130 q 502 140 502 133 l 502 142 q 480 563 480 221 q 464 614 476 589 q 441 652 464 632 q 260 971 393 746 q 179 1092 260 978 q 157 1099 170 1099 l 72 1096 q 42 1114 42 1101 l 33 1124 q 18 1105 33 1112 q -1 1143 4 1105 q -33 1171 -24 1171 l -33 1180 q -14 1199 -14 1187 l -27 1210 q 20 1241 -27 1237 l 58 1241 q 327 1270 142 1241 l 346 1272 m 694 1606 q 614 1508 617 1523 l 613 1501 l 548 1430 l 532 1411 l 457 1453 l 532 1554 q 530 1550 530 1552 q 540 1567 536 1565 l 670 1708 q 726 1670 705 1693 l 694 1606 m 563 1451 l 560 1451 l 563 1451 z "},"":{"ha":1006,"x_min":37,"x_max":991,"o":"m 492 1027 q 618 1000 525 1027 q 747 838 728 895 q 814 666 787 798 q 844 532 844 637 l 846 487 l 840 300 q 909 159 840 245 q 991 98 971 98 l 991 95 q 925 22 991 72 q 863 -26 876 -26 l 861 -26 q 709 85 833 -24 q 486 -4 600 45 q 320 -26 411 -26 l 311 -26 q 137 53 208 -8 q 83 148 125 65 q 49 250 49 189 l 49 304 q 77 401 49 355 q 163 548 103 476 q 222 594 193 585 q 416 646 321 646 l 502 648 l 511 648 q 614 627 586 648 l 625 627 q 633 636 633 627 q 567 806 614 722 q 412 875 526 875 l 336 884 q 236 844 236 865 q 189 718 198 795 q 121 708 184 708 l 109 705 q 90 673 102 705 q 37 694 37 681 q 52 831 43 711 q 194 990 81 917 q 258 1021 248 1021 l 492 1027 m 194 358 q 225 244 206 244 l 244 221 l 244 218 l 227 221 l 227 216 q 374 123 266 168 q 412 114 389 117 q 673 224 450 114 q 688 245 688 232 l 688 255 q 659 435 671 331 l 656 437 q 614 471 656 457 q 425 510 476 510 q 227 415 283 477 q 194 358 194 380 m 263 1320 q 338 1354 292 1340 q 514 1229 391 1326 q 526 1214 519 1229 q 525 1219 526 1217 l 627 1128 l 525 1092 l 503 1108 l 415 1172 l 412 1177 l 263 1320 z "},"":{"ha":1006,"x_min":37,"x_max":991,"o":"m 492 1027 q 618 1000 525 1027 q 747 838 728 895 q 814 666 787 798 q 844 532 844 637 l 846 487 l 840 300 q 909 159 840 245 q 991 98 971 98 l 991 95 q 925 22 991 72 q 863 -26 876 -26 l 861 -26 q 709 85 833 -24 q 486 -4 600 45 q 320 -26 411 -26 l 311 -26 q 137 53 208 -8 q 83 148 125 65 q 49 250 49 189 l 49 304 q 77 401 49 355 q 163 548 103 476 q 222 594 193 585 q 416 646 321 646 l 502 648 l 511 648 q 614 627 586 648 l 625 627 q 633 636 633 627 q 567 806 614 722 q 412 875 526 875 l 336 884 q 236 844 236 865 q 189 718 198 795 q 121 708 184 708 l 109 705 q 90 673 102 705 q 37 694 37 681 q 52 831 43 711 q 194 990 81 917 q 258 1021 248 1021 l 492 1027 m 194 358 q 225 244 206 244 l 244 221 l 244 218 l 227 221 l 227 216 q 374 123 266 168 q 412 114 389 117 q 673 224 450 114 q 688 245 688 232 l 688 255 q 659 435 671 331 l 656 437 q 614 471 656 457 q 425 510 476 510 q 227 415 283 477 q 194 358 194 380 m 553 1297 q 473 1199 476 1214 l 472 1192 l 407 1120 l 391 1101 l 316 1143 l 391 1245 q 389 1241 389 1242 q 399 1257 395 1256 l 529 1398 q 585 1360 564 1383 l 553 1297 m 422 1142 l 419 1142 l 422 1142 z "},"":{"ha":1006,"x_min":37,"x_max":991,"o":"m 492 1027 q 618 1000 525 1027 q 747 838 728 895 q 814 666 787 798 q 844 532 844 637 l 846 487 l 840 300 q 909 159 840 245 q 991 98 971 98 l 991 95 q 925 22 991 72 q 863 -26 876 -26 l 861 -26 q 709 85 833 -24 q 486 -4 600 45 q 320 -26 411 -26 l 311 -26 q 137 53 208 -8 q 83 148 125 65 q 49 250 49 189 l 49 304 q 77 401 49 355 q 163 548 103 476 q 222 594 193 585 q 416 646 321 646 l 502 648 l 511 648 q 614 627 586 648 l 625 627 q 633 636 633 627 q 567 806 614 722 q 412 875 526 875 l 336 884 q 236 844 236 865 q 189 718 198 795 q 121 708 184 708 l 109 705 q 90 673 102 705 q 37 694 37 681 q 52 831 43 711 q 194 990 81 917 q 258 1021 248 1021 l 492 1027 m 194 358 q 225 244 206 244 l 244 221 l 244 218 l 227 221 l 227 216 q 374 123 266 168 q 412 114 389 117 q 673 224 450 114 q 688 245 688 232 l 688 255 q 659 435 671 331 l 656 437 q 614 471 656 457 q 425 510 476 510 q 227 415 283 477 q 194 358 194 380 m 148 1137 l 201 1233 q 218 1265 208 1236 l 232 1287 l 232 1289 q 228 1294 228 1291 q 262 1326 240 1305 q 274 1352 269 1350 q 292 1377 282 1352 q 338 1415 317 1396 q 387 1420 355 1423 l 401 1413 q 422 1404 422 1412 l 420 1404 l 420 1400 l 423 1396 q 477 1321 425 1396 l 499 1278 q 555 1204 549 1218 l 593 1137 l 518 1116 q 451 1214 483 1161 q 400 1297 419 1267 q 374 1336 381 1326 l 317 1261 q 247 1111 298 1236 l 148 1137 z "},"":{"ha":1006,"x_min":49,"x_max":1004,"o":"m 505 1043 q 631 1016 537 1043 q 760 854 741 911 q 826 682 799 814 q 856 548 856 654 l 859 503 l 852 316 q 921 175 852 262 q 1004 114 983 114 l 1004 111 q 937 38 1004 88 q 875 -9 888 -9 l 873 -9 q 722 102 845 -8 q 498 12 612 61 q 332 -9 423 -9 l 323 -9 q 149 69 220 8 q 95 164 137 81 q 61 266 61 205 l 61 320 q 90 418 61 372 q 175 564 115 492 q 235 610 205 601 q 429 662 334 662 l 514 665 l 524 665 q 627 643 598 665 l 637 643 q 646 652 646 643 q 579 822 627 738 q 425 891 538 891 l 349 901 q 248 860 248 882 q 201 734 210 811 q 133 724 197 724 l 121 722 q 102 689 114 722 q 49 711 49 697 q 64 848 56 727 q 206 1006 94 933 q 270 1038 260 1038 l 505 1043 m 206 374 q 237 260 218 260 l 256 237 l 256 235 l 239 237 l 239 232 q 387 140 278 184 q 425 130 401 133 q 685 240 463 130 q 700 262 700 248 l 700 271 q 671 452 684 347 l 669 453 q 627 487 669 473 q 437 526 488 526 q 239 431 296 494 q 206 374 206 396 m 274 1294 q 301 1320 285 1298 q 399 1354 331 1344 q 435 1343 410 1354 l 458 1324 l 487 1287 q 515 1241 505 1271 l 566 1215 l 567 1215 q 618 1234 600 1222 q 640 1270 642 1245 l 640 1286 q 625 1297 642 1286 q 688 1298 666 1318 q 701 1260 692 1298 l 701 1245 q 671 1196 701 1221 q 636 1171 654 1177 q 557 1153 620 1156 q 533 1158 553 1153 l 532 1158 q 532 1156 533 1156 l 530 1156 l 525 1157 q 473 1198 481 1183 q 464 1217 473 1213 l 448 1237 l 439 1261 q 377 1287 414 1289 l 376 1287 q 346 1280 358 1287 q 334 1251 334 1275 l 335 1238 q 293 1217 328 1240 q 271 1287 271 1274 l 274 1294 m 327 1233 l 327 1233 l 327 1241 l 328 1241 q 330 1236 335 1236 l 327 1233 m 665 1309 q 667 1309 670 1309 l 665 1309 z "},"":{"ha":1006,"x_min":37,"x_max":991,"o":"m 492 1027 q 618 1000 525 1027 q 747 838 728 895 q 814 666 787 798 q 844 532 844 637 l 846 487 l 840 300 q 909 159 840 245 q 991 98 971 98 l 991 95 q 925 22 991 72 q 863 -26 876 -26 l 861 -26 q 709 85 833 -24 q 486 -4 600 45 q 320 -26 411 -26 l 311 -26 q 137 53 208 -8 q 83 148 125 65 q 49 250 49 189 l 49 304 q 77 401 49 355 q 163 548 103 476 q 222 594 193 585 q 416 646 321 646 l 502 648 l 511 648 q 614 627 586 648 l 625 627 q 633 636 633 627 q 567 806 614 722 q 412 875 526 875 l 336 884 q 236 844 236 865 q 189 718 198 795 q 121 708 184 708 l 109 705 q 90 673 102 705 q 37 694 37 681 q 52 831 43 711 q 194 990 81 917 q 258 1021 248 1021 l 492 1027 m 194 358 q 225 244 206 244 l 244 221 l 244 218 l 227 221 l 227 216 q 374 123 266 168 q 412 114 389 117 q 673 224 450 114 q 688 245 688 232 l 688 255 q 659 435 671 331 l 656 437 q 614 471 656 457 q 425 510 476 510 q 227 415 283 477 q 194 358 194 380 m 264 1366 q 345 1335 321 1356 q 353 1302 353 1318 l 353 1275 q 264 1162 353 1199 l 240 1153 q 164 1226 201 1153 l 164 1236 q 191 1335 164 1317 q 264 1366 244 1366 m 593 1356 q 674 1325 650 1347 q 681 1293 681 1309 l 681 1265 q 593 1153 681 1190 l 570 1143 q 494 1217 530 1143 l 494 1226 q 519 1325 494 1308 q 593 1356 572 1356 z "},"":{"ha":1006,"x_min":37,"x_max":991,"o":"m 492 1027 q 618 1000 525 1027 q 747 838 728 895 q 814 666 787 798 q 844 532 844 637 l 846 487 l 840 300 q 909 159 840 245 q 991 98 971 98 l 991 95 q 925 22 991 72 q 863 -26 876 -26 l 861 -26 q 709 85 833 -24 q 486 -4 600 45 q 320 -26 411 -26 l 311 -26 q 137 53 208 -8 q 83 148 125 65 q 49 250 49 189 l 49 304 q 77 401 49 355 q 163 548 103 476 q 222 594 193 585 q 416 646 321 646 l 502 648 l 511 648 q 614 627 586 648 l 625 627 q 633 636 633 627 q 567 806 614 722 q 412 875 526 875 l 336 884 q 236 844 236 865 q 189 718 198 795 q 121 708 184 708 l 109 705 q 90 673 102 705 q 37 694 37 681 q 52 831 43 711 q 194 990 81 917 q 258 1021 248 1021 l 492 1027 m 194 358 q 225 244 206 244 l 244 221 l 244 218 l 227 221 l 227 216 q 374 123 266 168 q 412 114 389 117 q 673 224 450 114 q 688 245 688 232 l 688 255 q 659 435 671 331 l 656 437 q 614 471 656 457 q 425 510 476 510 q 227 415 283 477 q 194 358 194 380 m 490 1374 l 496 1374 q 572 1324 534 1355 q 609 1275 609 1291 l 609 1275 q 612 1261 602 1284 l 613 1261 q 618 1240 614 1261 l 624 1225 l 623 1215 l 625 1188 q 616 1139 621 1177 q 548 1035 613 1126 q 492 1006 521 1006 q 435 1002 464 1002 l 422 1002 q 357 1024 408 1002 q 292 1116 292 1085 q 275 1154 282 1137 q 296 1218 275 1162 q 311 1265 296 1252 q 396 1362 345 1340 q 471 1379 441 1379 l 490 1374 m 340 1146 l 340 1142 q 362 1099 349 1124 q 389 1077 362 1092 q 438 1054 403 1063 l 452 1053 q 499 1066 481 1059 l 525 1089 q 564 1164 564 1134 l 564 1169 q 559 1208 559 1183 q 562 1241 559 1227 q 534 1268 562 1245 q 492 1303 514 1297 l 484 1303 q 399 1290 399 1301 q 373 1252 381 1271 q 350 1218 350 1227 q 340 1146 343 1191 z "},"":{"ha":975,"x_min":27,"x_max":958,"o":"m 483 945 q 675 879 562 945 q 772 780 772 807 q 846 590 846 617 l 848 575 q 819 486 819 510 l 808 483 l 647 483 q 594 476 624 483 q 214 498 321 498 l 174 498 q 151 452 151 464 q 164 385 164 427 q 186 300 164 312 l 189 290 l 189 289 l 176 293 l 176 289 l 195 270 q 229 208 195 243 q 363 72 290 98 q 506 52 422 52 q 559 75 518 52 q 701 198 595 85 l 701 203 q 677 210 701 208 l 673 220 q 777 328 716 304 q 846 277 784 320 q 958 125 888 210 l 958 118 q 869 39 897 39 l 863 39 q 812 87 863 81 q 730 24 802 87 q 581 -39 690 -7 q 407 -65 454 -65 l 300 -27 q 134 71 210 -27 q 81 153 102 103 q 39 309 81 165 q 27 414 27 370 l 27 416 q 176 856 27 670 q 264 925 198 902 q 373 945 304 936 q 483 945 389 952 m 171 625 l 524 623 l 543 616 l 566 618 q 667 593 646 593 q 680 585 667 587 q 692 616 692 600 l 692 651 q 597 761 692 677 q 499 811 556 803 l 435 821 q 231 745 279 791 q 171 625 212 709 m 245 1279 q 320 1313 274 1299 q 496 1188 373 1286 q 509 1173 502 1188 q 507 1179 509 1176 l 609 1088 l 507 1051 l 486 1067 l 397 1131 l 395 1137 l 245 1279 z "},"":{"ha":975,"x_min":27,"x_max":958,"o":"m 483 945 q 675 879 562 945 q 772 780 772 807 q 846 590 846 617 l 848 575 q 819 486 819 510 l 808 483 l 647 483 q 594 476 624 483 q 214 498 321 498 l 174 498 q 151 452 151 464 q 164 385 164 427 q 186 300 164 312 l 189 290 l 189 289 l 176 293 l 176 289 l 195 270 q 229 208 195 243 q 363 72 290 98 q 506 52 422 52 q 559 75 518 52 q 701 198 595 85 l 701 203 q 677 210 701 208 l 673 220 q 777 328 716 304 q 846 277 784 320 q 958 125 888 210 l 958 118 q 869 39 897 39 l 863 39 q 812 87 863 81 q 730 24 802 87 q 581 -39 690 -7 q 407 -65 454 -65 l 300 -27 q 134 71 210 -27 q 81 153 102 103 q 39 309 81 165 q 27 414 27 370 l 27 416 q 176 856 27 670 q 264 925 198 902 q 373 945 304 936 q 483 945 389 952 m 171 625 l 524 623 l 543 616 l 566 618 q 667 593 646 593 q 680 585 667 587 q 692 616 692 600 l 692 651 q 597 761 692 677 q 499 811 556 803 l 435 821 q 231 745 279 791 q 171 625 212 709 m 549 1232 q 469 1134 472 1149 l 468 1127 l 403 1055 l 387 1036 l 312 1078 l 387 1180 q 385 1176 385 1177 q 395 1192 391 1191 l 525 1333 q 581 1295 560 1318 l 549 1232 m 418 1077 l 415 1077 l 418 1077 z "},"":{"ha":975,"x_min":27,"x_max":958,"o":"m 483 945 q 675 879 562 945 q 772 780 772 807 q 846 590 846 617 l 848 575 q 819 486 819 510 l 808 483 l 647 483 q 594 476 624 483 q 214 498 321 498 l 174 498 q 151 452 151 464 q 164 385 164 427 q 186 300 164 312 l 189 290 l 189 289 l 176 293 l 176 289 l 195 270 q 229 208 195 243 q 363 72 290 98 q 506 52 422 52 q 559 75 518 52 q 701 198 595 85 l 701 203 q 677 210 701 208 l 673 220 q 777 328 716 304 q 846 277 784 320 q 958 125 888 210 l 958 118 q 869 39 897 39 l 863 39 q 812 87 863 81 q 730 24 802 87 q 581 -39 690 -7 q 407 -65 454 -65 l 300 -27 q 134 71 210 -27 q 81 153 102 103 q 39 309 81 165 q 27 414 27 370 l 27 416 q 176 856 27 670 q 264 925 198 902 q 373 945 304 936 q 483 945 389 952 m 171 625 l 524 623 l 543 616 l 566 618 q 667 593 646 593 q 680 585 667 587 q 692 616 692 600 l 692 651 q 597 761 692 677 q 499 811 556 803 l 435 821 q 231 745 279 791 q 171 625 212 709 m 186 1061 l 239 1157 q 256 1190 245 1160 l 270 1211 l 270 1213 q 266 1218 266 1215 q 300 1251 278 1229 q 312 1276 307 1274 q 330 1301 320 1276 q 376 1339 355 1320 q 425 1344 393 1347 l 439 1337 q 460 1328 460 1336 l 458 1328 l 458 1324 l 461 1320 q 515 1245 463 1320 l 537 1202 q 593 1128 587 1142 l 631 1061 l 556 1040 q 489 1138 521 1085 q 438 1221 457 1191 q 412 1260 419 1251 l 355 1185 q 285 1035 336 1160 l 186 1061 z "},"":{"ha":975,"x_min":27,"x_max":958,"o":"m 483 945 q 675 879 562 945 q 772 780 772 807 q 846 590 846 617 l 848 575 q 819 486 819 510 l 808 483 l 647 483 q 594 476 624 483 q 214 498 321 498 l 174 498 q 151 452 151 464 q 164 385 164 427 q 186 300 164 312 l 189 290 l 189 289 l 176 293 l 176 289 l 195 270 q 229 208 195 243 q 363 72 290 98 q 506 52 422 52 q 559 75 518 52 q 701 198 595 85 l 701 203 q 677 210 701 208 l 673 220 q 777 328 716 304 q 846 277 784 320 q 958 125 888 210 l 958 118 q 869 39 897 39 l 863 39 q 812 87 863 81 q 730 24 802 87 q 581 -39 690 -7 q 407 -65 454 -65 l 300 -27 q 134 71 210 -27 q 81 153 102 103 q 39 309 81 165 q 27 414 27 370 l 27 416 q 176 856 27 670 q 264 925 198 902 q 373 945 304 936 q 483 945 389 952 m 171 625 l 524 623 l 543 616 l 566 618 q 667 593 646 593 q 680 585 667 587 q 692 616 692 600 l 692 651 q 597 761 692 677 q 499 811 556 803 l 435 821 q 231 745 279 791 q 171 625 212 709 m 312 1248 q 392 1217 369 1238 q 400 1184 400 1200 l 400 1157 q 312 1044 400 1081 l 288 1035 q 212 1108 248 1035 l 212 1118 q 239 1217 212 1199 q 312 1248 292 1248 m 640 1238 q 722 1207 697 1229 q 728 1175 728 1191 l 728 1147 q 640 1035 728 1072 l 617 1025 q 541 1099 578 1025 l 541 1108 q 567 1207 541 1190 q 640 1238 620 1238 z "}}}
